<?xml version="1.0" standalone="no"?>
<!DOCTYPE svg PUBLIC "-//W3C//DTD SVG 1.1//EN" "http://www.w3.org/Graphics/SVG/1.1/DTD/svg11.dtd" >
<svg xmlns="http://www.w3.org/2000/svg">
<metadata></metadata>
<defs>
<font id="oxygensansregular" horiz-adv-x="505" >
<font-face units-per-em="2048" ascent="1638" descent="-410" />
<missing-glyph horiz-adv-x="546" />
<glyph horiz-adv-x="0" />
<glyph unicode="&#xd;" horiz-adv-x="325" />
<glyph unicode=" "  horiz-adv-x="546" />
<glyph unicode="&#x09;" horiz-adv-x="546" />
<glyph unicode="&#xa0;" horiz-adv-x="546" />
<glyph unicode="!" horiz-adv-x="623" d="M312.5 -12q-63.5 0 -99.5 39.5t-36 94.5t36 94.5t99.5 39.5t99.5 -39.5t36 -94.5t-36 -94.5t-99.5 -39.5zM412 1380l-57 -936h-81l-62 936v177h200v-177z" />
<glyph unicode="&#x22;" horiz-adv-x="683" d="M432 1036l-21 503h153l-29 -503h-103zM141 1036l-22 503h154l-30 -503h-102z" />
<glyph unicode="#" horiz-adv-x="1208" d="M460 547h241l81 402h-240zM320 547l62 401h-180l9 127h197l85 415h155l-80 -415h238l72 415h131l-67 -415h140l-14 -126h-150l-68 -402h150l-10 -129h-158l-88 -442h-154l85 442h-239l-81 -442h-132l75 442h-175l10 129h187z" />
<glyph unicode="$" horiz-adv-x="1305" d="M708 -198h-96v177q-136 5 -264 41.5t-201 81.5l52 147q79 -40 129.5 -60t139 -38t192.5 -18q167 0 231.5 78.5t64.5 234.5q0 90 -64.5 152t-207.5 111l-183 64q-168 56 -260 145t-92 231q0 102 35.5 182t99 131.5t146 80t182.5 34.5v197h96v-197q97 -5 200.5 -30 t171.5 -67l-52 -138q-79 38 -164.5 57.5t-218.5 22.5q-141 0 -225 -71.5t-84 -189.5q0 -85 58 -138t173 -90l170 -57q93 -32 159 -64t126 -81.5t91 -119.5t31 -160q0 -221 -111 -340t-325 -131v-178z" />
<glyph unicode="%" horiz-adv-x="1855" d="M1425 -16q-171 0 -265 110t-94 282.5t95 282t264 109.5q172 0 265.5 -108.5t93.5 -283.5q0 -171 -95 -281.5t-264 -110.5zM1424.5 100q108.5 0 169.5 80.5t61 195.5q0 118 -61 197t-169.5 79t-169 -80t-60.5 -196q0 -117 60.5 -196.5t169 -79.5zM375 -4l810 1494h166 l-838 -1494h-138zM394.5 741q-146.5 0 -234.5 108.5t-88 276.5q0 170 88.5 281t233.5 111q148 0 237 -110.5t89 -281.5q0 -168 -89.5 -276.5t-236 -108.5zM394 860q93 0 144 76t51 190q0 117 -52 197.5t-143 80.5q-92 0 -143 -81.5t-51 -196.5q0 -118 50.5 -192t143.5 -74z " />
<glyph unicode="&#x26;" horiz-adv-x="1408" d="M577 939q110 53 183 141.5t73 181.5q0 85 -58 133t-143 48q-96 0 -157.5 -50.5t-61.5 -136.5q0 -73 47 -161.5t117 -155.5zM600 134q200 0 363 130q-76 82 -224.5 249.5t-224.5 249.5q-123 -63 -196 -152t-73 -198q0 -131 94 -205t261 -74zM591 -24q-257 0 -391.5 113 t-134.5 313q0 294 354 473q-187 205 -187 374q0 152 108 243t288 91q167 0 282 -83t115 -233q0 -129 -100.5 -245t-252.5 -186l410 -459q90 96 151 233l123 -94q-61 -136 -165 -258l210 -228l-160 -52l-160 168q-211 -170 -490 -170z" />
<glyph unicode="'" horiz-adv-x="407" d="M159 991l-53 566h195l-47 -566h-95z" />
<glyph unicode="(" horiz-adv-x="666" d="M569 -214h-156q-132 183 -206.5 412t-74.5 474q0 500 279 905h158q-263 -410 -263 -901q0 -229 69.5 -463.5t193.5 -426.5z" />
<glyph unicode=")" horiz-adv-x="669" d="M255 -214h-155q124 192 193.5 426.5t69.5 463.5q0 490 -264 901h157q280 -411 280 -905q0 -245 -74 -474t-207 -412z" />
<glyph unicode="*" horiz-adv-x="1181" d="M166 1286l364 -154l-37 419h189l-37 -419l366 154l51 -174l-374 -85q16 -22 113 -149.5t144 -189.5q-25 -17 -78.5 -48t-79.5 -48l-203 369l-193 -369l-159 96l253 339l-370 85z" />
<glyph unicode="+" horiz-adv-x="1178" d="M521 731v433h140v-433h397v-137h-398v-438h-140v438h-405v137h406z" />
<glyph unicode="," horiz-adv-x="488" d="M220 -283h-108q48 434 53 522h201v-45q-49 -197 -146 -477z" />
<glyph unicode="-" horiz-adv-x="909" d="M142 506v150h625v-150h-625z" />
<glyph unicode="." horiz-adv-x="535" d="M268 -12q-64 0 -100 39.5t-36 94.5t36 94.5t100 39.5t99.5 -39.5t35.5 -94.5t-35.5 -94.5t-99.5 -39.5z" />
<glyph unicode="/" horiz-adv-x="1005" d="M76 -222l689 1716h149l-691 -1716h-147z" />
<glyph unicode="0" horiz-adv-x="1282" d="M645 -20q-109 0 -196.5 38t-148.5 106t-101.5 165t-59.5 213t-19 253q0 362 132.5 568.5t392.5 206.5q175 0 292 -97.5t171.5 -268.5t54.5 -409q0 -173 -29.5 -311t-90 -243.5t-161.5 -163t-237 -57.5zM645 134q159 0 240.5 158t81.5 470q0 613 -322 613 q-159 0 -244 -158.5t-85 -454.5q0 -310 84.5 -469t244.5 -159z" />
<glyph unicode="1" horiz-adv-x="1092" d="M974 0h-813v157h342v1179q-63 -40 -147.5 -70t-161.5 -34v159q65 5 164 47t163 86h162v-1367h291v-157z" />
<glyph unicode="2" horiz-adv-x="1160" d="M121 0l-22 167l528 559q108 114 152 190t44 187q0 127 -70.5 197t-200.5 70q-101 0 -188.5 -28t-185.5 -98l-58 153q93 67 195 100t243 33q208 0 334.5 -113t126.5 -301q0 -77 -17.5 -142t-58 -129t-83 -114.5t-116.5 -126.5l-430 -447h711l-11 -157h-893z" />
<glyph unicode="3" horiz-adv-x="1237" d="M896 416q0 75 -24 130t-63.5 89t-101.5 54t-124.5 27.5t-147.5 9.5h-50v152h51q71 2 125 8.5t109.5 23t90.5 44.5t57.5 75.5t22.5 112.5q0 124 -70 178.5t-210 54.5q-203 0 -341 -109l-58 149q153 115 438 115q117 0 214 -39t160 -124t63 -201q0 -280 -268 -364 q144 -31 224.5 -131t80.5 -258q0 -200 -143.5 -316.5t-369.5 -116.5q-138 0 -243.5 34.5t-155.5 80.5l58 149q137 -110 342 -110q154 0 244 72.5t90 209.5z" />
<glyph unicode="4" horiz-adv-x="1274" d="M820 526v768l-510 -768h510zM801 1524h190v-998h187l-13 -147h-174v-379h-171v379h-689v155z" />
<glyph unicode="5" horiz-adv-x="1168" d="M531 -24q-255 0 -409 140l66 144q150 -119 350 -119q165 0 257 94.5t92 248.5q0 136 -81.5 221.5t-232.5 85.5q-152 0 -243 -101l-141 19l39 815h782l-14 -167h-623q0 -4 -15 -479q116 73 250 73q223 0 343.5 -130.5t120.5 -334.5q0 -232 -143.5 -371t-397.5 -139z" />
<glyph unicode="6" horiz-adv-x="1312" d="M649.5 134q151.5 0 237 93t85.5 231q0 147 -79 239.5t-228 92.5q-162 0 -251 -93t-89 -232t86.5 -235t238 -96zM655 -20q-158 0 -275 69.5t-174.5 182.5t-57.5 253q0 166 61 297t220 331q38 50 121 148.5t147 172.5l62 74h233l-540 -639q55 29 126.5 51t128.5 22 q195 0 326.5 -136t131.5 -344.5t-140 -345t-370 -136.5z" />
<glyph unicode="7" horiz-adv-x="1102" d="M995 1524v-137l-546 -1387h-185l523 1366h-654l-11 158h873z" />
<glyph unicode="8" horiz-adv-x="1295" d="M647 851q284 63 284 307q0 103 -82 160t-201.5 57t-203 -57t-83.5 -160q0 -120 73 -197.5t213 -109.5zM647 134q140 0 228 72t88 195q0 120 -86 201t-230 113q-143 -32 -231 -113t-88 -201q0 -123 89.5 -195t229.5 -72zM647 -20q-137 0 -248.5 45.5t-180 139.5t-68.5 224 q0 144 83.5 249.5t232.5 153.5q-285 101 -285 363q0 177 129.5 276t337 99t335 -99t127.5 -276q0 -262 -261 -363q138 -48 215.5 -154t77.5 -249q0 -130 -67.5 -224t-178 -139.5t-249.5 -45.5z" />
<glyph unicode="9" horiz-adv-x="1294" d="M651 753q157 0 232.5 86.5t75.5 226.5q0 138 -77 224t-225 86q-149 0 -235.5 -90t-86.5 -225q0 -140 83.5 -224t232.5 -84zM529 0h-220l530 662q-113 -61 -224 -61q-127 0 -233 55.5t-170.5 161t-64.5 239.5q0 204 139.5 339t364.5 135q232 0 364 -137t132 -348 q0 -144 -48 -260t-168 -279q-44 -57 -144 -184t-180 -224z" />
<glyph unicode=":" horiz-adv-x="487" d="M140 911v235h209v-235h-209zM140 -26v238h209v-238h-209z" />
<glyph unicode=";" d="M159 911v235h209v-235h-209zM122 -316l57 516h186l-128 -516h-115z" />
<glyph unicode="&#x3c;" horiz-adv-x="1225" d="M1093 1057l-791 -386l789 -361v-161l-977 468v99l979 501v-160z" />
<glyph unicode="=" horiz-adv-x="1247" d="M130 814v147h986v-147h-986zM131 384v145h985v-145h-985z" />
<glyph unicode="&#x3e;" horiz-adv-x="1234" d="M138 1223l976 -508v-99l-978 -461v162l788 354l-786 393v159z" />
<glyph unicode="?" horiz-adv-x="917" d="M402 -12q-64 0 -99.5 39.5t-35.5 94.5t35.5 94.5t99.5 39.5t100 -39.5t36 -94.5t-36 -94.5t-100 -39.5zM432 444h-88q0 79 45.5 191t99.5 205t99.5 197.5t45.5 170.5q-1 98 -62 144.5t-168 46.5q-130 0 -263 -82l-46 138q125 98 337 98q165 0 266.5 -87t101.5 -243 q0 -96 -37.5 -193t-87.5 -170.5t-122.5 -191t-120.5 -224.5z" />
<glyph unicode="@" horiz-adv-x="1830" d="M848 403q107 0 163.5 89.5t77.5 251.5q13 105 27 233q-58 20 -149 20q-139 0 -211 -106.5t-72 -270.5q0 -100 41 -158.5t123 -58.5zM893 -133q-358 0 -573.5 212.5t-215.5 577.5q0 243 108 440.5t304 310.5t444 113q217 0 391 -88t275 -253.5t101 -380.5 q0 -120 -36.5 -222.5t-95.5 -170t-134.5 -105t-154.5 -37.5q-83 0 -138 46t-66 128q-46 -65 -115.5 -115t-157.5 -50q-132 0 -211 96t-79 259q0 137 48 247.5t146.5 177.5t231.5 67q144 0 310 -56q-7 -46 -28 -184.5t-30 -214.5t-9 -132q0 -144 114 -144q102 0 186.5 122.5 t84.5 294.5q0 181 -83 315.5t-228 203.5t-331 69q-205 0 -367.5 -94.5t-252.5 -261.5t-90 -376q0 -313 178 -490.5t475 -177.5q253 0 454 116l36 -113q-193 -130 -491 -130z" />
<glyph unicode="A" horiz-adv-x="1436" d="M41 0l565 1557h226l564 -1557h-189l-178 482h-609l-179 -482h-200zM477 628h497l-256 742z" />
<glyph unicode="B" horiz-adv-x="1383" d="M380 893h328q158 0 242 59.5t84 202t-98.5 198t-304.5 55.5h-251v-515zM380 144h320q192 0 291.5 86t99.5 239q0 156 -105.5 219.5t-328.5 63.5h-277v-608zM199 0v1557h441q295 0 438.5 -90.5t143.5 -284.5q0 -30 -3.5 -59t-19 -75t-41.5 -83.5t-76 -74.5t-118 -58 q155 -28 235 -128t80 -241q0 -209 -139 -336t-404 -127h-537z" />
<glyph unicode="C" horiz-adv-x="1402" d="M832 -20q-216 3 -380 114t-250.5 298t-86.5 420q0 227 87.5 401t255.5 272t394 98q260 0 437 -112l-60 -139q-163 96 -374 96q-259 0 -403 -173t-144 -450q0 -107 22 -205.5t68 -184t112 -147.5t159 -98t203 -36q186 0 366 86l29 -144q-62 -38 -182 -67t-253 -29z" />
<glyph unicode="D" horiz-adv-x="1579" d="M199 0v1557h426q190 0 343.5 -48.5t264.5 -142.5t171 -243t60 -341q0 -372 -214.5 -577t-593.5 -205h-457zM399 1402v-1249h252q299 0 456 162.5t157 461.5q0 625 -644 625h-221z" />
<glyph unicode="E" horiz-adv-x="1247" d="M399 1401v-506h649v-154h-649v-585h717l-9 -156h-908v1557h917l-8 -156h-709z" />
<glyph unicode="F" horiz-adv-x="1150" d="M400 1401v-516h598v-149h-598v-736h-201v1557h873l-12 -156h-660z" />
<glyph unicode="G" horiz-adv-x="1596" d="M860 -20q-188 0 -332.5 60.5t-233.5 169t-134 251.5t-45 314q0 174 47 319t140.5 255t245 172t348.5 62q142 0 272.5 -30t222.5 -89l-56 -137q-193 101 -439 101q-123 0 -221.5 -33.5t-164.5 -93t-111 -143t-64.5 -178.5t-19.5 -205q0 -142 32.5 -257t98.5 -201.5 t174 -134.5t251 -48q93 0 200.5 9t154.5 22v483h-368l9 154h559v-736q-224 -86 -566 -86z" />
<glyph unicode="H" horiz-adv-x="1607" d="M399 858h809v699h200v-1557h-200v710h-809v-710h-200v1557h200v-699z" />
<glyph unicode="I" horiz-adv-x="623" d="M220 0v1557h200v-1557h-200z" />
<glyph unicode="J" horiz-adv-x="759" d="M104 -215l-16 165q56 0 99 7t72 17t48.5 30.5t29.5 37.5t15 49t6.5 54.5t1.5 62.5v1369h199v-1332q0 -85 -5.5 -143t-23 -114t-48.5 -91t-81 -62t-123.5 -38.5t-173.5 -11.5z" />
<glyph unicode="K" horiz-adv-x="1382" d="M1063 1556h251l-639 -701l691 -855h-234l-608 756l-125 -120v-636h-200v1556h200v-714z" />
<glyph unicode="L" horiz-adv-x="1096" d="M1058 157l-7 -157h-852v1557h201v-1400h658z" />
<glyph unicode="M" horiz-adv-x="1862" d="M1431 1557h232v-1557h-173v944l7 359l-477 -1182h-177l-482 1186l12 -367v-940h-174v1557h239l494 -1215z" />
<glyph unicode="N" horiz-adv-x="1663" d="M1295 233l-6 389v935h175v-1557h-205l-891 1323l6 -393v-930h-175v1557h201z" />
<glyph unicode="O" horiz-adv-x="1694" d="M848 134q132 0 235 50.5t167 139.5t96.5 205t32.5 252q0 188 -57.5 332t-179 229.5t-293.5 85.5q-130 0 -232.5 -48.5t-168 -136t-99 -205t-33.5 -257.5q0 -109 20 -205t62.5 -177t105 -140t150 -92t194.5 -33zM1579 781q0 -232 -84 -411.5t-251.5 -284.5t-395.5 -105 q-175 0 -314.5 59.5t-230.5 166t-139.5 253.5t-48.5 323q0 239 85.5 419t252 281t396.5 101q225 0 391.5 -101.5t252.5 -282.5t86 -418z" />
<glyph unicode="P" horiz-adv-x="1305" d="M689 833q181 0 254 75.5t73 233.5q0 133 -84 197t-233 64h-299v-567q218 -3 289 -3zM199 0v1557h504q230 0 371.5 -106t141.5 -305q0 -459 -536 -459q-221 0 -280 3v-690h-201z" />
<glyph unicode="Q" horiz-adv-x="1699" d="M1406 -356l-116 -116q-48 48 -164 199t-173 265l168 34q163 -263 285 -382zM848 134q132 0 235 50.5t167 139.5t96.5 205t32.5 252q0 188 -57.5 332t-179 229.5t-293.5 85.5q-130 0 -232.5 -48.5t-168 -136t-99 -205t-33.5 -257.5q0 -109 20 -205t62.5 -177t105 -140 t150 -92t194.5 -33zM1579 781q0 -232 -84 -411.5t-251.5 -284.5t-395.5 -105q-175 0 -314.5 59.5t-230.5 166t-139.5 253.5t-48.5 323q0 239 85.5 419t252 281t396.5 101q225 0 391.5 -101.5t252.5 -282.5t86 -418z" />
<glyph unicode="R" horiz-adv-x="1519" d="M199 0v1557h564q116 0 202.5 -10t160.5 -36.5t119.5 -70.5t71 -112.5t25.5 -162.5q0 -153 -59.5 -245t-215.5 -136q0 -2 17 -35.5t42.5 -86t40.5 -83.5l246 -579h-208l-207 520q-78 174 -110 224q-75 -6 -180 -6l-308 2v-740h-201zM802 895q102 0 169 16t104.5 51 t53 82.5t15.5 118.5q0 124 -77 181.5t-274 57.5h-393v-507h402z" />
<glyph unicode="S" horiz-adv-x="1376" d="M679 -20q-169 0 -302 43t-220 100l61 144q224 -133 461 -133q155 0 245.5 72t90.5 207q0 102 -64.5 168.5t-207.5 117.5l-257 89q-154 50 -240.5 147t-86.5 242q0 108 42 188t117 126.5t168 69t205 22.5q124 0 238.5 -37t197.5 -92l-62 -140q-187 114 -367 114 q-75 0 -138.5 -13.5t-114 -41t-79.5 -75t-29 -109.5q0 -173 213 -239l243 -85q90 -28 156.5 -62.5t123 -85.5t86 -125.5t29.5 -170.5q0 -218 -139.5 -329.5t-369.5 -111.5z" />
<glyph unicode="T" horiz-adv-x="1218" d="M1175 1557v-156h-466v-1401h-201v1401h-464v156h1131z" />
<glyph unicode="U" horiz-adv-x="1486" d="M743 -20q-296 0 -445.5 156t-149.5 418v1003h198v-1006q0 -208 96.5 -312.5t300.5 -104.5q397 0 397 417v1006h198v-1005q0 -126 -36 -230t-108 -181t-186.5 -119t-264.5 -42z" />
<glyph unicode="V" horiz-adv-x="1415" d="M802 0h-188l-571 1557h208l341 -1006l116 -330l116 333l343 1003h206z" />
<glyph unicode="W" horiz-adv-x="2242" d="M1020 1529h204l370 -1281l376 1309h198l-464 -1557h-208l-366 1299l-391 -1299h-204l-461 1557h199l369 -1308z" />
<glyph unicode="X" horiz-adv-x="1339" d="M780 794l520 -794h-208l-417 641l-415 -641h-208l519 794l-519 763h208l415 -609l417 609h208z" />
<glyph unicode="Y" horiz-adv-x="1322" d="M676 810l434 747h199l-532 -911v-646h-199v642l-565 915h200z" />
<glyph unicode="Z" horiz-adv-x="1332" d="M167 1557h1021v-132l-826 -1270h834l-7 -155h-1052v139l822 1263h-792v155z" />
<glyph unicode="[" horiz-adv-x="720" d="M329 1376v-1541h286v-134h-463v1811h463v-136h-286z" />
<glyph unicode="\" horiz-adv-x="952" d="M700 -62l-610 1554h159l610 -1554h-159z" />
<glyph unicode="]" horiz-adv-x="722" d="M108 1376v136h462v-1811h-462v134h285v1541h-285z" />
<glyph unicode="^" horiz-adv-x="1280" d="M122 600l454 946h104l479 -946h-145l-386 761l-358 -761h-148z" />
<glyph unicode="_" horiz-adv-x="1130" d="M87 -310v136h958v-136h-958z" />
<glyph unicode="`" horiz-adv-x="655" d="M416 1275l-330 395h256l188 -395h-114z" />
<glyph unicode="a" horiz-adv-x="1224" d="M516 114q107 0 212 49t131 118v268q-104 -10 -130 -14q-224 -27 -308 -76.5t-84 -165.5q0 -87 52 -133t127 -46zM491 -24q-154 0 -251.5 84t-97.5 235q0 172 133.5 255.5t387.5 102.5l196 16v98q0 116 -59 170.5t-180 54.5q-82 0 -185 -22t-181 -61q-14 36 -52 138 q72 41 189 67.5t225 26.5q215 0 327 -93t112 -308v-740h-158l-30 125q-49 -72 -153 -110.5t-223 -38.5z" />
<glyph unicode="b" horiz-adv-x="1330" d="M694 121q159 0 242 117.5t83 320.5q0 205 -84 322t-242 117q-174 0 -250 -115.5t-76 -342.5q0 -419 327 -419zM724 -24q-118 0 -215 54.5t-142 152.5l-19 -183h-177v1562l196 16v-399q0 -122 -5 -214q56 80 154.5 128t208.5 48q217 0 353.5 -162.5t136.5 -414.5 q0 -263 -131 -425.5t-360 -162.5z" />
<glyph unicode="c" horiz-adv-x="1058" d="M651 -24q-235 0 -385.5 163t-150.5 417q0 260 152.5 422.5t389.5 162.5q88 0 172.5 -21.5t131.5 -55.5l-47 -132q-113 60 -231 60q-175 0 -274 -118t-99 -320q0 -196 98 -312.5t275 -116.5q66 0 121 17.5t124 53.5l26 -139q-111 -81 -303 -81z" />
<glyph unicode="d" horiz-adv-x="1323" d="M636 121q327 0 327 419q0 227 -75.5 342.5t-250.5 115.5q-158 0 -242.5 -117.5t-84.5 -321.5q0 -203 83.5 -320.5t242.5 -117.5zM606 -24q-230 0 -360.5 162.5t-130.5 425.5q0 256 136.5 416.5t353.5 160.5q110 0 208.5 -48t154.5 -128q-5 74 -5 214v383l196 16v-1578 h-177l-19 183q-45 -98 -142 -152.5t-215 -54.5z" />
<glyph unicode="e" horiz-adv-x="1240" d="M669 -24q-247 0 -400.5 157t-153.5 423q0 255 154 420t378 165q213 0 330.5 -141.5t117.5 -380.5l-6 -94h-781q3 -187 113 -293.5t276 -106.5q164 0 347 96l27 -148q-159 -97 -402 -97zM312 652h600q-5 170 -66 256.5t-193 86.5q-134 0 -230.5 -93.5t-110.5 -249.5z" />
<glyph unicode="f" horiz-adv-x="859" d="M282 0v992h-232l6 107l226 19v70q0 208 84.5 299.5t242.5 91.5q34 0 96 -6.5t81 -11.5l-13 -146q-70 11 -119 11q-92 0 -134 -52t-42 -192v-64h261v-126h-261v-992h-196z" />
<glyph unicode="g" horiz-adv-x="1324" d="M587 -476q-131 0 -288 39l12 144q118 -33 261 -33q209 0 300 91.5t91 316.5v132q-40 -102 -128.5 -158t-218.5 -56q-120 0 -217.5 47.5t-158 126.5t-93 177.5t-32.5 204.5q0 120 31.5 225t92 186t158.5 127.5t222 46.5q221 0 349 -172l13 149h178v-952q0 -119 -15 -212 t-54 -176t-103 -137t-165 -85.5t-235 -31.5zM631 146q87 0 152.5 30.5t104 85t57 120.5t18.5 144v82q0 111 -32.5 196t-108.5 139.5t-187 54.5q-87 0 -152.5 -40t-101.5 -105.5t-53.5 -138t-17.5 -150.5q0 -59 11 -116.5t35.5 -113t61 -97t91 -66.5t122.5 -25z" />
<glyph unicode="h" horiz-adv-x="1225" d="M167 1562l196 16v-610q48 83 137.5 128t206.5 45q191 0 282.5 -114t91.5 -342v-685h-196v698q0 150 -45.5 224t-166.5 74q-171 0 -240.5 -98.5t-69.5 -285.5v-612h-196v1562z" />
<glyph unicode="i" horiz-adv-x="584" d="M199 1323v201h195v-201h-195zM199 0v1118h195v-1118h-195z" />
<glyph unicode="j" horiz-adv-x="610" d="M54 -446l-23 158h54q56 0 89.5 8.5t50.5 28.5t22 43.5t5 65.5l-1 1260h196v-1194q0 -108 -14 -174.5t-52 -112.5t-103 -64.5t-170 -18.5h-54zM251 1323v201h196v-201h-196z" />
<glyph unicode="k" horiz-adv-x="1171" d="M172 1562l196 16v-1005l524 545h240l-499 -522l507 -596h-219l-428 500l-125 -108v-392h-196v1562z" />
<glyph unicode="l" horiz-adv-x="708" d="M452 -20q-92 0 -145.5 29t-82.5 109t-29 224v1220l196 16v-1192q0 -110 8 -163t28.5 -73t64.5 -20h71l13 -140q-70 -10 -124 -10z" />
<glyph unicode="m" horiz-adv-x="1876" d="M356 588v-588h-189q-2 1048 -2 1118h162l20 -160q49 78 134 130.5t197 52.5q138 0 217 -60t107 -140q58 98 151.5 149t208.5 51q178 0 274 -108.5t96 -313.5v-719h-190v582q0 81 -3 136.5t-16 112t-35 89.5t-60.5 54.5t-93.5 21.5q-288 0 -288 -397v-599h-189v631 q0 192 -46 278.5t-159 86.5q-85 0 -144 -29.5t-91.5 -86t-46.5 -127.5t-14 -165z" />
<glyph unicode="n" horiz-adv-x="1248" d="M165 0v1118h167l21 -160q122 183 365 183q386 0 386 -456v-685h-196v698q0 146 -52.5 222t-175.5 76q-173 0 -246 -100t-73 -284v-612h-196z" />
<glyph unicode="o" horiz-adv-x="1274" d="M637.5 125q165.5 0 245.5 118.5t80 313.5q0 128 -32.5 223.5t-107 153.5t-186.5 58t-187 -58t-107.5 -153.5t-32.5 -223.5q0 -195 81 -313.5t246.5 -118.5zM637.5 -24q-236.5 0 -379.5 164t-143 419q0 261 139.5 421.5t382.5 160.5t382.5 -160.5t139.5 -421.5 q0 -255 -142.5 -419t-379 -164z" />
<glyph unicode="p" horiz-adv-x="1327" d="M694.5 120q156.5 0 239 117.5t82.5 322.5q0 203 -81.5 320t-238.5 117q-168 0 -250 -110t-82 -309q0 -217 87 -337.5t243.5 -120.5zM168 1118h177l19 -183q46 99 147 152.5t220 53.5q229 0 355 -161.5t126 -426.5q0 -254 -133.5 -415.5t-357.5 -161.5q-112 0 -214.5 54.5 t-148.5 141.5q6 -92 6 -234v-412l-196 -11v1603z" />
<glyph unicode="q" horiz-adv-x="1314" d="M636 120q175 0 251 115.5t76 342.5q0 419 -327 419q-159 0 -242.5 -117.5t-83.5 -319.5q0 -205 84 -322.5t242 -117.5zM1158 1118v-1592l-195 -11v423q0 140 5 214q-56 -79 -154.5 -127.5t-208.5 -48.5q-217 0 -353.5 162.5t-136.5 414.5q0 263 130.5 425.5t360.5 162.5 q118 0 215 -54t142 -152l19 183h176z" />
<glyph unicode="r" horiz-adv-x="823" d="M165 1118h167l15 -201q57 95 147.5 153t190.5 58q52 0 84 -6l-6 -157q-41 8 -81 8q-143 0 -232 -99t-89 -246v-628h-196v1118z" />
<glyph unicode="s" horiz-adv-x="1001" d="M494 -24q-238 0 -356 78l36 134q147 -78 311 -78q118 0 181.5 45t63.5 129q0 74 -47.5 113t-202.5 95l-76 29q-145 54 -209 130t-65 183q0 134 101 220.5t283 86.5q178 0 333 -73l-43 -122q-145 61 -282 61q-103 0 -163 -46.5t-60 -119.5q0 -64 40 -96t166 -81l72 -28 q171 -67 241.5 -139.5t70.5 -195.5q-2 -155 -106 -240t-289 -85z" />
<glyph unicode="t" horiz-adv-x="966" d="M619 -20q-165 0 -248.5 96t-83.5 275v640h-166l7 113l158 14l58 256l139 4v-260h326v-127h-326v-640q0 -127 37.5 -175t131.5 -48q78 0 152 28l30 -141q-82 -35 -215 -35z" />
<glyph unicode="u" horiz-adv-x="1258" d="M1094 1118v-1118h-166l-21 160q-43 -93 -141 -138.5t-226 -45.5q-385 0 -385 457v685h194v-698q0 -148 50.5 -223t173.5 -75q325 0 325 384v612h196z" />
<glyph unicode="v" horiz-adv-x="1153" d="M482 0l-439 1118h202l339 -924l325 924h202l-430 -1118h-199z" />
<glyph unicode="w" horiz-adv-x="1677" d="M57 1118h183l233 -905l266 905h205l276 -902l221 902h180l-308 -1118h-178l-293 958l-283 -958h-187z" />
<glyph unicode="x" horiz-adv-x="1143" d="M570 698l299 420h215l-404 -551l414 -567h-208l-316 444l-315 -444h-206l410 569l-394 549h206z" />
<glyph unicode="y" horiz-adv-x="1170" d="M116 -461l-6 146q8 -2 74.5 -8t87.5 -6q86 0 139 38.5t89 151.5q6 20 16 64t17 77l7 35l-491 1081h211l371 -895l284 895h211q-445 -1260 -460 -1298q-63 -168 -146.5 -234t-223.5 -66q-26 0 -94.5 7t-85.5 12z" />
<glyph unicode="z" horiz-adv-x="988" d="M130 1118h747v-140l-570 -844h589v-134h-790v131l581 852h-557v135z" />
<glyph unicode="{" horiz-adv-x="803" d="M693 -146v-141q-190 1 -274.5 86t-84.5 264v211q0 73 -8 120.5t-30 89.5t-66 62.5t-114 20.5v148q64 1 105.5 15t64 32.5t33.5 62t13 77t2 104.5v247q0 157 91.5 236t267.5 79v-140q-111 -1 -150.5 -52.5t-39.5 -180.5v-270q0 -92 -45.5 -160t-143.5 -127 q97 -31 143 -107t46 -175v-271q0 -131 39.5 -180t150.5 -51z" />
<glyph unicode="|" horiz-adv-x="546" d="M199 -309v2017h148v-2017h-148z" />
<glyph unicode="}" horiz-adv-x="813" d="M113 -287v141q110 2 150.5 51.5t40.5 179.5v271q0 95 39.5 155t148.5 133q-97 30 -142.5 106.5t-45.5 174.5v270q0 129 -40 180.5t-151 52.5v140q188 0 273.5 -85.5t85.5 -265.5v-211q0 -74 6.5 -120.5t28.5 -88.5t67 -61.5t117 -20.5v-148q-69 0 -114 -20.5t-67.5 -61.5 t-30 -89.5t-7.5 -121.5v-246q0 -312 -359 -315z" />
<glyph unicode="~" horiz-adv-x="1267" d="M165 513l-53 106q39 91 109 146.5t168 55.5q59 0 113.5 -15.5t137.5 -52.5q6 -4 30 -14.5l32 -14t29 -12t29 -11.5t25 -9.5t27 -8.5t23 -5.5t23.5 -4.5t20.5 -1q61 0 118 45t95 114l57 -99q-40 -97 -109 -151.5t-165 -54.5q-88 0 -240 69q-64 29 -97.5 43t-76 25.5 t-77.5 11.5q-66 0 -123.5 -45.5t-95.5 -116.5z" />
<glyph unicode="&#xa1;" horiz-adv-x="623" d="M312 983q-63 0 -99 40t-36 95q0 74 56 112q35 22 79 22q64 0 100 -39.5t36 -94.5q0 -35 -14.5 -65t-46.5 -50t-75 -20zM413 -140v-144h-200v144l57 936h81z" />
<glyph unicode="&#xa2;" horiz-adv-x="1094" d="M608 316v880q-136 -21 -223.5 -144.5t-87.5 -299.5q0 -175 85 -294.5t226 -141.5zM608 1v173q-152 13 -264 96.5t-167 209.5t-55 276q1 148 58 274.5t169 211t259 98.5v184h98v-184q168 -11 258 -96l-42 -121q-98 66 -216 75v-886q116 11 217 83l42 -122 q-95 -88 -259 -99v-173h-98z" />
<glyph unicode="&#xa3;" horiz-adv-x="1200" d="M121 0l-11 141q101 38 144.5 115t43.5 202v236h-190v137h190v97q0 102 10 184t38.5 163t75.5 135.5t126 88t184 33.5q207 0 364 -133l-79 -122q-140 106 -283 106q-142 0 -201.5 -95.5t-59.5 -275.5v-181h417v-137h-417v-165q0 -140 -25 -228t-100 -145q84 5 97 5h667 v-161h-991z" />
<glyph unicode="&#xa4;" horiz-adv-x="1321" d="M662 431q131 0 223.5 92.5t92.5 222.5t-92.5 223t-223.5 93t-223.5 -93t-92.5 -223q0 -131 92.5 -223t223.5 -92zM1189 311l-70 -75l-191 180q-115 -95 -266 -95q-156 0 -269 95l-187 -179l-75 74l189 181q-85 117 -85 254t85 254l-190 183l76 73l187 -179q113 95 269 95 q152 0 266 -96l191 180l72 -76l-189 -180q86 -121 86 -254q0 -140 -84 -254z" />
<glyph unicode="&#xa5;" horiz-adv-x="1324" d="M582 431v186h-359v126h310l-422 765h181l371 -687l376 687h176l-431 -765h311v-126h-352v-186h353v-126h-353v-305h-161v305h-360v126h360z" />
<glyph unicode="&#xa6;" horiz-adv-x="446" d="M150 889v720h149v-720h-149zM150 -407v723h149v-723h-149z" />
<glyph unicode="&#xa7;" horiz-adv-x="1038" d="M539 614l58 -25q146 89 146 194q0 35 -16 64.5t-37.5 49.5t-66 43t-78.5 36.5t-98 37.5q-65 -28 -106 -76t-41 -109q0 -71 54 -117.5t185 -97.5zM165 1332q0 140 113.5 212t307.5 72q126 0 269 -57q-5 -26 -14 -74t-13 -74q-138 63 -269 63q-233 0 -233 -138 q0 -63 54.5 -107t203.5 -102q163 -67 238.5 -140.5t75.5 -182.5q0 -87 -44 -160t-119 -120q152 -86 152 -241q0 -147 -117 -229.5t-313 -82.5q-189 0 -307 59v158q149 -77 309 -77q126 0 196 43t70 117q0 29 -11 51.5t-25 38.5t-51.5 36.5t-67 33.5t-95.5 39 q-176 68 -252.5 144t-76.5 198q0 88 45.5 157.5t123.5 110.5q-76 48 -113 106.5t-37 145.5z" />
<glyph unicode="&#xa8;" horiz-adv-x="784" d="M517 1278v216h158v-216h-158zM120 1278v216h158v-216h-158z" />
<glyph unicode="&#xa9;" horiz-adv-x="1871" d="M927 -27q-122 0 -236.5 32.5t-217 100.5t-179.5 163.5t-121.5 231t-44.5 295.5q0 199 67.5 358.5t180.5 258.5t253 151t294 52q129 0 248 -32.5t223.5 -99.5t181.5 -163t121.5 -231t44.5 -294q0 -160 -44.5 -295.5t-120.5 -232t-179.5 -163.5t-222.5 -99.5t-248 -32.5z M927 68q168 0 302.5 57.5t220.5 156.5t131 229.5t45 281.5t-46 282t-132 231.5t-221.5 158t-303.5 57.5q-159 0 -289.5 -57.5t-215 -157t-130 -230.5t-45.5 -278q0 -152 45.5 -284t130.5 -232t216 -157.5t292 -57.5zM934 276q-210 0 -347 148.5t-137 375.5q0 228 137 377 t358 149q182 0 314 -92l-62 -98q-46 32 -117 50.5t-145 18.5q-86 0 -154 -32.5t-108.5 -89t-62 -127t-21.5 -152.5q0 -182 93 -296t273 -114q70 0 146.5 22t120.5 52l40 -110q-56 -35 -146 -58.5t-182 -23.5z" />
<glyph unicode="&#xaa;" horiz-adv-x="841" d="M386 955q86 0 129.5 67t47.5 169v26q-14 -1 -55 -4t-61 -6t-54.5 -9t-53 -15.5t-39 -25t-29.5 -37.5t-9 -52q0 -113 124 -113zM147 647v108h555v-108h-555zM367 842q-98 0 -162 63t-64 166q0 57 22 99t56 66.5t92.5 41.5t113.5 23.5t138 12.5v18q-2 92 -30.5 130.5 t-101.5 38.5q-69 0 -119 -16.5t-100 -73.5l-62 80q100 130 287 130q107 0 176.5 -65.5t69.5 -200.5l-2 -354q0 -45 6 -137h-120l-4 80q-67 -102 -196 -102z" />
<glyph unicode="&#xab;" horiz-adv-x="1053" d="M663 572l260 -384l-129 -36l-308 426l310 411l130 -36zM554 953l-278 -381l273 -384l-144 -36l-275 378l-20 48l299 411z" />
<glyph unicode="&#xac;" horiz-adv-x="1263" d="M1129 841v-576h-138v429h-872v147h1010z" />
<glyph unicode="&#xad;" horiz-adv-x="963" d="M110 241v152h749v-152h-749z" />
<glyph unicode="&#xae;" horiz-adv-x="1871" d="M927 -27q-122 0 -236.5 32.5t-217 100.5t-179.5 163.5t-121.5 231t-44.5 295.5q0 199 67.5 358.5t180.5 258.5t253 151t294 52q129 0 248 -32.5t223.5 -99.5t181.5 -163t121.5 -231t44.5 -294q0 -160 -44.5 -295.5t-120.5 -232t-179.5 -163.5t-222.5 -99.5t-248 -32.5z M927 68q168 0 302.5 57.5t220.5 156.5t131 229.5t45 281.5t-46 282t-132 231.5t-221.5 158t-303.5 57.5q-159 0 -289.5 -57.5t-215 -157t-130 -230.5t-45.5 -278q0 -152 45.5 -284t130.5 -232t216 -157.5t292 -57.5zM753 1172v-313h186q122 0 177.5 33t55.5 126 q0 95 -53 124.5t-191 29.5h-175zM618 307v994h321q394 0 394 -275q0 -110 -62.5 -185t-202.5 -92q34 -25 66.5 -69.5t57 -88t72.5 -130t89 -154.5h-151q-8 14 -69.5 133.5t-106.5 189t-86 100.5h-187v-423h-135z" />
<glyph unicode="&#xaf;" horiz-adv-x="1081" d="M203 1514v142h681v-142h-681z" />
<glyph unicode="&#xb0;" horiz-adv-x="857" d="M427 906q-130 0 -223.5 95t-93.5 227.5t93.5 226t223.5 93.5q131 0 224.5 -93.5t93.5 -225.5q0 -130 -93 -226.5t-225 -96.5zM427.5 1029q79.5 0 136 59t56.5 141q0 83 -56.5 140t-135.5 57t-136 -57t-57 -140t56.5 -141.5t136 -58.5z" />
<glyph unicode="&#xb1;" horiz-adv-x="1261" d="M137 0v146h989v-146h-989zM559 805v424h138v-424h426v-145h-424v-423h-139v423h-423v145h422z" />
<glyph unicode="&#xb2;" horiz-adv-x="764" d="M625 663h-491v121q58 64 80.5 90t70 80t67 79t52.5 68t47 67.5t31.5 56.5t23.5 56.5t6 46.5q0 56 -33.5 90t-93.5 34q-108 0 -165 -145l-77 86q31 89 97 138t152 49q102 0 168.5 -68.5t66.5 -180.5q0 -55 -18 -111t-43.5 -103t-72.5 -107.5t-87 -104.5t-106 -112h325 v-130z" />
<glyph unicode="&#xb3;" horiz-adv-x="757" d="M356 643q-133 0 -223 106l56 106q79 -88 163 -88q66 0 110 42t44 112q0 145 -194 145h-48v130h45q177 0 177 132q0 62 -35 93t-94 31q-83 0 -170 -88l-54 105q43 51 103.5 82.5t123.5 31.5q99 0 171.5 -69t72.5 -183q0 -135 -98 -198q118 -63 118 -217q0 -123 -77.5 -198 t-190.5 -75z" />
<glyph unicode="&#xb4;" horiz-adv-x="650" d="M130 1275l190 395h258l-332 -395h-116z" />
<glyph unicode="&#xb6;" horiz-adv-x="1168" d="M624 -161h-128v1025q-164 3 -275.5 116t-111.5 255q0 70 25.5 132t78 113t143.5 81.5t210 30.5h474v-135h-76v-1618h-117v1618h-223v-1618z" />
<glyph unicode="&#xb7;" horiz-adv-x="416" d="M120 572v202h171v-202h-171z" />
<glyph unicode="&#xb8;" horiz-adv-x="607" d="M116 -418l115 435h87l-45 -435h-157z" />
<glyph unicode="&#xb9;" horiz-adv-x="637" d="M146 760h121v676q-43 -28 -135 -76v104q96 48 152 104h99v-808h127v-97h-364v97z" />
<glyph unicode="&#xba;" horiz-adv-x="882" d="M444 842q-157 0 -243 109.5t-86 281.5q0 168 87.5 278t238.5 110t237.5 -111t86.5 -281q0 -167 -85.5 -277t-235.5 -110zM444 959q91 0 143.5 77t52.5 190q0 119 -53.5 197t-147.5 78q-91 0 -143.5 -78t-52.5 -193q0 -120 52 -195.5t149 -75.5z" />
<glyph unicode="&#xbb;" horiz-adv-x="1075" d="M663 989l295 -425l-298 -412l-143 36l276 384l-270 381zM261 989l309 -425l-310 -412l-130 36l263 384l-262 381z" />
<glyph unicode="&#xbc;" horiz-adv-x="1686" d="M1404 730l-250 -365h250v365zM351 0l937 1577h138l-939 -1577h-136zM1394 916h122v-551h97l10 -121h-109v-204h-110v204h-396v101zM149 760h120v676q-47 -30 -133 -76v104q96 48 152 104h98v-808h127v-97h-364v97z" />
<glyph unicode="&#xbd;" horiz-adv-x="1673" d="M261 0l937 1577h138l-938 -1577h-137zM1527 -30h-564v94q232 233 294 302q151 172 151 262q0 66 -41.5 106.5t-98.5 40.5q-58 0 -116 -32.5t-101 -96.5l-79 66q35 81 120 127t180 46q112 0 189.5 -63t77.5 -181q0 -70 -29 -138t-91 -140.5t-120.5 -130t-153.5 -145.5 q-13 -11 -19 -16h401v-101zM149 760h120v676q-47 -30 -133 -76v104q96 48 152 104h98v-808h127v-97h-364v97z" />
<glyph unicode="&#xbe;" horiz-adv-x="1713" d="M1120 368h251q2 228 3 367zM352 0l935 1577h147l-946 -1577h-136zM1374 45v205h-400v99l387 572h123v-553h97l9 -118h-107v-205h-109zM354 643q-132 0 -222 106l54 106q78 -88 162 -88q66 0 112.5 42.5t46.5 111.5q0 145 -195 145h-49v130h45q177 0 177 132 q0 62 -34.5 93t-93.5 31q-86 0 -173 -88l-52 105q43 51 103.5 82.5t122.5 31.5q103 0 185.5 -69.5t82.5 -182.5q0 -64 -30 -115.5t-85 -82.5q135 -63 135 -217q0 -122 -88 -197.5t-204 -75.5z" />
<glyph unicode="&#xbf;" horiz-adv-x="931" d="M517.5 1553q63.5 0 99.5 -39.5t36 -94.5t-36 -94.5t-99.5 -39.5t-99.5 39.5t-36 94.5t36 94.5t99.5 39.5zM488 1098h89q0 -80 -45.5 -192t-100 -205t-99.5 -197.5t-45 -170.5q1 -98 61.5 -145t166.5 -47q129 0 265 83l45 -138q-124 -98 -337 -98q-164 0 -266 87t-102 243 q0 78 23 152.5t64 145.5t85 138t100 160.5t96 183.5z" />
<glyph unicode="&#xc0;" horiz-adv-x="1436" d="M662 1766l-330 395h256l188 -395h-114zM41 0l565 1557h226l564 -1557h-189l-178 482h-609l-179 -482h-200zM477 628h497l-256 742z" />
<glyph unicode="&#xc1;" horiz-adv-x="1436" d="M661 1766l190 395h258l-332 -395h-116zM41 0l565 1557h226l564 -1557h-189l-178 482h-609l-179 -482h-200zM477 628h497l-256 742z" />
<glyph unicode="&#xc2;" horiz-adv-x="1436" d="M419 1766l190 395h217l191 -395h-136l-164 277l-165 -277h-133zM41 0l565 1557h226l564 -1557h-189l-178 482h-609l-179 -482h-200zM477 628h497l-256 742z" />
<glyph unicode="&#xc3;" horiz-adv-x="1436" d="M401 1765q0 112 45 167.5t129 55.5q56 0 132 -23.5t123 -48.5l47 -23q19 1 29.5 18.5t12.5 32t5 44.5h112q0 -223 -153 -223q-40 0 -119.5 24.5t-138.5 49.5l-60 25q-24 -2 -39 -28.5t-17 -70.5h-108zM41 0l565 1557h226l564 -1557h-189l-178 482h-609l-179 -482h-200z M477 628h497l-256 742z" />
<glyph unicode="&#xc4;" horiz-adv-x="1436" d="M837 1765v216h158v-216h-158zM440 1765v216h158v-216h-158zM41 0l565 1557h226l564 -1557h-189l-178 482h-609l-179 -482h-200zM477 628h497l-256 742z" />
<glyph unicode="&#xc5;" horiz-adv-x="1436" d="M720 1647q-83 0 -141.5 51.5t-58.5 136.5q0 88 58.5 144.5t139.5 56.5t139.5 -58.5t58.5 -142.5q0 -85 -58 -136.5t-138 -51.5zM718 1721q39 0 68.5 33.5t29.5 80.5q0 49 -28.5 83.5t-69.5 34.5q-39 0 -70 -35.5t-31 -82.5q0 -51 27 -82.5t74 -31.5zM41 0l565 1557h226 l564 -1557h-189l-178 482h-609l-179 -482h-200zM477 628h497l-256 742z" />
<glyph unicode="&#xc6;" horiz-adv-x="2148" d="M1159 600l-63 836l-496 -836h559zM1272 1436l40 -537h642v-161h-622l43 -577h635v-161h-797l-31 436h-667l-245 -436h-176l933 1598h963v-162h-718z" />
<glyph unicode="&#xc7;" horiz-adv-x="1402" d="M685 -440l115 435h87l-45 -435h-157zM832 -20q-216 3 -380 114t-250.5 298t-86.5 420q0 227 87.5 401t255.5 272t394 98q260 0 437 -112l-60 -139q-163 96 -374 96q-259 0 -403 -173t-144 -450q0 -107 22 -205.5t68 -184t112 -147.5t159 -98t203 -36q186 0 366 86 l29 -144q-62 -38 -182 -67t-253 -29z" />
<glyph unicode="&#xc8;" horiz-adv-x="1247" d="M601 1766l-330 395h256l188 -395h-114zM399 1401v-506h649v-154h-649v-585h717l-9 -156h-908v1557h917l-8 -156h-709z" />
<glyph unicode="&#xc9;" horiz-adv-x="1247" d="M599 1766l190 395h258l-332 -395h-116zM399 1401v-506h649v-154h-649v-585h717l-9 -156h-908v1557h917l-8 -156h-709z" />
<glyph unicode="&#xca;" horiz-adv-x="1247" d="M359 1766l190 395h217l191 -395h-136l-164 277l-165 -277h-133zM399 1401v-506h649v-154h-649v-585h717l-9 -156h-908v1557h917l-8 -156h-709z" />
<glyph unicode="&#xcb;" horiz-adv-x="1247" d="M777 1765v216h158v-216h-158zM380 1765v216h158v-216h-158zM399 1401v-506h649v-154h-649v-585h717l-9 -156h-908v1557h917l-8 -156h-709z" />
<glyph unicode="&#xcc;" horiz-adv-x="623" d="M264 1766l-330 395h256l188 -395h-114zM220 0v1557h200v-1557h-200z" />
<glyph unicode="&#xcd;" horiz-adv-x="623" d="M262 1766l190 395h258l-332 -395h-116zM220 0v1557h200v-1557h-200z" />
<glyph unicode="&#xce;" horiz-adv-x="623" d="M20 1766l190 395h217l191 -395h-136l-164 277l-165 -277h-133zM220 0v1557h200v-1557h-200z" />
<glyph unicode="&#xcf;" horiz-adv-x="623" d="M439 1765v216h158v-216h-158zM42 1765v216h158v-216h-158zM220 0v1557h200v-1557h-200z" />
<glyph unicode="&#xd0;" horiz-adv-x="1668" d="M250 848v676h378q164 0 298 -23.5t249.5 -79t194.5 -142.5t124 -220.5t45 -305.5q0 -187 -58.5 -331t-164.5 -236t-253.5 -139t-330.5 -47h-482v710h-120v138h120zM430 710v-552h322q284 0 439 149.5t155 440.5q0 141 -33 248.5t-91 177t-146.5 113.5t-191.5 61.5 t-233 17.5h-221v-518h246v-138h-246z" />
<glyph unicode="&#xd1;" horiz-adv-x="1663" d="M514 1765q0 112 45 167.5t129 55.5q56 0 132 -23.5t123 -48.5l47 -23q19 1 29.5 18.5t12.5 32t5 44.5h112q0 -223 -153 -223q-40 0 -119.5 24.5t-138.5 49.5l-60 25q-24 -2 -39 -28.5t-17 -70.5h-108zM1295 233l-6 389v935h175v-1557h-205l-891 1323l6 -393v-930h-175 v1557h201z" />
<glyph unicode="&#xd2;" horiz-adv-x="1694" d="M790 1766l-330 395h256l188 -395h-114zM848 134q132 0 235 50.5t167 139.5t96.5 205t32.5 252q0 188 -57.5 332t-179 229.5t-293.5 85.5q-130 0 -232.5 -48.5t-168 -136t-99 -205t-33.5 -257.5q0 -109 20 -205t62.5 -177t105 -140t150 -92t194.5 -33zM1579 781 q0 -232 -84 -411.5t-251.5 -284.5t-395.5 -105q-175 0 -314.5 59.5t-230.5 166t-139.5 253.5t-48.5 323q0 239 85.5 419t252 281t396.5 101q225 0 391.5 -101.5t252.5 -282.5t86 -418z" />
<glyph unicode="&#xd3;" horiz-adv-x="1694" d="M789 1766l190 395h258l-332 -395h-116zM848 134q132 0 235 50.5t167 139.5t96.5 205t32.5 252q0 188 -57.5 332t-179 229.5t-293.5 85.5q-130 0 -232.5 -48.5t-168 -136t-99 -205t-33.5 -257.5q0 -109 20 -205t62.5 -177t105 -140t150 -92t194.5 -33zM1579 781 q0 -232 -84 -411.5t-251.5 -284.5t-395.5 -105q-175 0 -314.5 59.5t-230.5 166t-139.5 253.5t-48.5 323q0 239 85.5 419t252 281t396.5 101q225 0 391.5 -101.5t252.5 -282.5t86 -418z" />
<glyph unicode="&#xd4;" horiz-adv-x="1694" d="M549 1766l190 395h217l191 -395h-136l-164 277l-165 -277h-133zM848 134q132 0 235 50.5t167 139.5t96.5 205t32.5 252q0 188 -57.5 332t-179 229.5t-293.5 85.5q-130 0 -232.5 -48.5t-168 -136t-99 -205t-33.5 -257.5q0 -109 20 -205t62.5 -177t105 -140t150 -92 t194.5 -33zM1579 781q0 -232 -84 -411.5t-251.5 -284.5t-395.5 -105q-175 0 -314.5 59.5t-230.5 166t-139.5 253.5t-48.5 323q0 239 85.5 419t252 281t396.5 101q225 0 391.5 -101.5t252.5 -282.5t86 -418z" />
<glyph unicode="&#xd5;" horiz-adv-x="1694" d="M530 1765q0 112 45 167.5t129 55.5q56 0 132 -23.5t123 -48.5l47 -23q19 1 29.5 18.5t12.5 32t5 44.5h112q0 -223 -153 -223q-40 0 -119.5 24.5t-138.5 49.5l-60 25q-24 -2 -39 -28.5t-17 -70.5h-108zM848 134q132 0 235 50.5t167 139.5t96.5 205t32.5 252 q0 188 -57.5 332t-179 229.5t-293.5 85.5q-130 0 -232.5 -48.5t-168 -136t-99 -205t-33.5 -257.5q0 -109 20 -205t62.5 -177t105 -140t150 -92t194.5 -33zM1579 781q0 -232 -84 -411.5t-251.5 -284.5t-395.5 -105q-175 0 -314.5 59.5t-230.5 166t-139.5 253.5t-48.5 323 q0 239 85.5 419t252 281t396.5 101q225 0 391.5 -101.5t252.5 -282.5t86 -418z" />
<glyph unicode="&#xd6;" horiz-adv-x="1694" d="M967 1765v216h158v-216h-158zM570 1765v216h158v-216h-158zM848 134q132 0 235 50.5t167 139.5t96.5 205t32.5 252q0 188 -57.5 332t-179 229.5t-293.5 85.5q-130 0 -232.5 -48.5t-168 -136t-99 -205t-33.5 -257.5q0 -109 20 -205t62.5 -177t105 -140t150 -92t194.5 -33z M1579 781q0 -232 -84 -411.5t-251.5 -284.5t-395.5 -105q-175 0 -314.5 59.5t-230.5 166t-139.5 253.5t-48.5 323q0 239 85.5 419t252 281t396.5 101q225 0 391.5 -101.5t252.5 -282.5t86 -418z" />
<glyph unicode="&#xd7;" horiz-adv-x="1030" d="M418 616l-290 334l107 97l280 -320l279 320l108 -97l-290 -334l290 -333l-110 -98l-277 319l-278 -319l-109 98z" />
<glyph unicode="&#xd8;" horiz-adv-x="1747" d="M872 155q136 0 242 49t172.5 137t100.5 204.5t34 254.5q0 180 -60.5 323t-177.5 224l-476 -1171q74 -21 165 -21zM582 232l475 1177q-83 27 -185 27q-134 0 -240.5 -49.5t-173 -136t-101 -201.5t-34.5 -249q0 -193 66 -341.5t193 -226.5zM560 -184l-128 44l79 194 q-186 94 -284 287.5t-98 451.5q0 380 196.5 601.5t546.5 221.5q137 0 255 -36l79 199l134 -47l-84 -207q174 -97 267 -285t93 -447q0 -179 -48 -328.5t-139.5 -259t-233.5 -170.5t-323 -61q-124 0 -236 32z" />
<glyph unicode="&#xd9;" horiz-adv-x="1486" d="M687 1766l-330 395h256l188 -395h-114zM743 -20q-296 0 -445.5 156t-149.5 418v1003h198v-1006q0 -208 96.5 -312.5t300.5 -104.5q397 0 397 417v1006h198v-1005q0 -126 -36 -230t-108 -181t-186.5 -119t-264.5 -42z" />
<glyph unicode="&#xda;" horiz-adv-x="1486" d="M686 1766l190 395h258l-332 -395h-116zM743 -20q-296 0 -445.5 156t-149.5 418v1003h198v-1006q0 -208 96.5 -312.5t300.5 -104.5q397 0 397 417v1006h198v-1005q0 -126 -36 -230t-108 -181t-186.5 -119t-264.5 -42z" />
<glyph unicode="&#xdb;" horiz-adv-x="1486" d="M444 1766l190 395h217l191 -395h-136l-164 277l-165 -277h-133zM743 -20q-296 0 -445.5 156t-149.5 418v1003h198v-1006q0 -208 96.5 -312.5t300.5 -104.5q397 0 397 417v1006h198v-1005q0 -126 -36 -230t-108 -181t-186.5 -119t-264.5 -42z" />
<glyph unicode="&#xdc;" horiz-adv-x="1486" d="M862 1765v216h158v-216h-158zM465 1765v216h158v-216h-158zM743 -20q-296 0 -445.5 156t-149.5 418v1003h198v-1006q0 -208 96.5 -312.5t300.5 -104.5q397 0 397 417v1006h198v-1005q0 -126 -36 -230t-108 -181t-186.5 -119t-264.5 -42z" />
<glyph unicode="&#xdd;" horiz-adv-x="1322" d="M603 1766l190 395h258l-332 -395h-116zM676 810l434 747h199l-532 -911v-646h-199v642l-565 915h200z" />
<glyph unicode="&#xde;" horiz-adv-x="1358" d="M334 1089v-586h391q338 0 338 294q0 154 -87.5 223t-293.5 69h-348zM334 1524v-284h329q287 0 429.5 -100t142.5 -334q0 -214 -122 -336t-377 -122l-402 8v-356h-182v1524h182z" />
<glyph unicode="&#xdf;" horiz-adv-x="1235" d="M338 0h-171v1066q0 233 114.5 361t344.5 128q188 0 282 -90.5t94 -259.5q0 -54 -20 -107.5t-49.5 -95.5t-59 -80t-49.5 -74.5t-20 -64.5q0 -29 24.5 -57t63 -51.5t83.5 -55.5t86 -65.5t72.5 -85.5t40.5 -113q4 -38 4 -55q0 -140 -95 -230t-245 -90q-102 0 -199 25 t-151 58l61 146q56 -30 135 -54.5t138 -24.5q80 0 124 46t44 114q0 27 -9 59q-13 47 -55 91t-91.5 78.5t-97 70.5t-79 81.5t-31.5 95.5q0 57 30.5 121t66.5 111t66.5 104.5t30.5 103.5q0 93 -50.5 143t-144.5 50q-288 0 -288 -323v-1076z" />
<glyph unicode="&#xe0;" horiz-adv-x="1224" d="M541 1324l-330 395h256l188 -395h-114zM516 114q107 0 212 49t131 118v268q-104 -10 -130 -14q-224 -27 -308 -76.5t-84 -165.5q0 -87 52 -133t127 -46zM491 -24q-154 0 -251.5 84t-97.5 235q0 172 133.5 255.5t387.5 102.5l196 16v98q0 116 -59 170.5t-180 54.5 q-82 0 -185 -22t-181 -61q-14 36 -52 138q72 41 189 67.5t225 26.5q215 0 327 -93t112 -308v-740h-158l-30 125q-49 -72 -153 -110.5t-223 -38.5z" />
<glyph unicode="&#xe1;" horiz-adv-x="1224" d="M540 1324l190 395h258l-332 -395h-116zM516 114q107 0 212 49t131 118v268q-104 -10 -130 -14q-224 -27 -308 -76.5t-84 -165.5q0 -87 52 -133t127 -46zM491 -24q-154 0 -251.5 84t-97.5 235q0 172 133.5 255.5t387.5 102.5l196 16v98q0 116 -59 170.5t-180 54.5 q-82 0 -185 -22t-181 -61q-14 36 -52 138q72 41 189 67.5t225 26.5q215 0 327 -93t112 -308v-740h-158l-30 125q-49 -72 -153 -110.5t-223 -38.5z" />
<glyph unicode="&#xe2;" horiz-adv-x="1224" d="M300 1324l190 395h217l191 -395h-136l-164 277l-165 -277h-133zM516 114q107 0 212 49t131 118v268q-104 -10 -130 -14q-224 -27 -308 -76.5t-84 -165.5q0 -87 52 -133t127 -46zM491 -24q-154 0 -251.5 84t-97.5 235q0 172 133.5 255.5t387.5 102.5l196 16v98 q0 116 -59 170.5t-180 54.5q-82 0 -185 -22t-181 -61q-14 36 -52 138q72 41 189 67.5t225 26.5q215 0 327 -93t112 -308v-740h-158l-30 125q-49 -72 -153 -110.5t-223 -38.5z" />
<glyph unicode="&#xe3;" horiz-adv-x="1224" d="M282 1324q0 112 45 167.5t129 55.5q56 0 132 -23.5t123 -48.5l47 -23q19 1 29.5 18.5t12.5 32t5 44.5h112q0 -223 -153 -223q-40 0 -119.5 24.5t-138.5 49.5l-60 25q-24 -2 -39 -28.5t-17 -70.5h-108zM516 114q107 0 212 49t131 118v268q-104 -10 -130 -14 q-224 -27 -308 -76.5t-84 -165.5q0 -87 52 -133t127 -46zM491 -24q-154 0 -251.5 84t-97.5 235q0 172 133.5 255.5t387.5 102.5l196 16v98q0 116 -59 170.5t-180 54.5q-82 0 -185 -22t-181 -61q-14 36 -52 138q72 41 189 67.5t225 26.5q215 0 327 -93t112 -308v-740h-158 l-30 125q-49 -72 -153 -110.5t-223 -38.5z" />
<glyph unicode="&#xe4;" horiz-adv-x="1224" d="M719 1324v216h158v-216h-158zM322 1324v216h158v-216h-158zM516 114q107 0 212 49t131 118v268q-104 -10 -130 -14q-224 -27 -308 -76.5t-84 -165.5q0 -87 52 -133t127 -46zM491 -24q-154 0 -251.5 84t-97.5 235q0 172 133.5 255.5t387.5 102.5l196 16v98 q0 116 -59 170.5t-180 54.5q-82 0 -185 -22t-181 -61q-14 36 -52 138q72 41 189 67.5t225 26.5q215 0 327 -93t112 -308v-740h-158l-30 125q-49 -72 -153 -110.5t-223 -38.5z" />
<glyph unicode="&#xe5;" horiz-adv-x="1224" d="M601 1324q-83 0 -141.5 51.5t-58.5 136.5q0 88 58.5 144.5t139.5 56.5t139.5 -58.5t58.5 -142.5q0 -85 -58 -136.5t-138 -51.5zM599 1398q39 0 68.5 33.5t29.5 80.5q0 49 -28.5 83.5t-69.5 34.5q-39 0 -70 -35.5t-31 -82.5q0 -51 27 -82.5t74 -31.5zM516 114 q107 0 212 49t131 118v268q-104 -10 -130 -14q-224 -27 -308 -76.5t-84 -165.5q0 -87 52 -133t127 -46zM491 -24q-154 0 -251.5 84t-97.5 235q0 172 133.5 255.5t387.5 102.5l196 16v98q0 116 -59 170.5t-180 54.5q-82 0 -185 -22t-181 -61q-14 36 -52 138q72 41 189 67.5 t225 26.5q215 0 327 -93t112 -308v-740h-158l-30 125q-49 -72 -153 -110.5t-223 -38.5z" />
<glyph unicode="&#xe6;" horiz-adv-x="1777" d="M950 627l526 29v10q-2 174 -54.5 255t-164.5 81q-146 0 -222 -103.5t-85 -271.5zM469 115q33 0 67.5 5t85 19t70.5 20.5t85.5 29t69.5 23.5q-70 126 -78 296q-44 -2 -65 -4q-161 -12 -250.5 -38.5t-122.5 -65.5t-33 -103q0 -182 171 -182zM457 -27q-146 0 -238 80 t-92 253q0 56 16.5 101t43.5 76.5t72 55t89.5 38t109.5 25t119.5 14.5t130.5 9l65 3v168q0 104 -44.5 151.5t-149.5 47.5q-100 0 -197.5 -23.5t-165.5 -59.5l-37 140q66 38 176.5 66t219.5 28q126 0 213.5 -50t109.5 -146q54 96 150.5 146t211.5 50q101 0 176.5 -37.5 t118.5 -102t64.5 -142.5t21.5 -167q0 -53 -13 -82t-55 -48t-123 -23l-506 -25q14 -191 88.5 -294.5t229.5 -103.5q90 0 178 33.5t152 78.5l52 -123q-157 -136 -393 -136q-206 0 -334 140q-97 -59 -222 -100t-238 -41z" />
<glyph unicode="&#xe7;" horiz-adv-x="1058" d="M470 -444l115 435h87l-45 -435h-157zM651 -24q-235 0 -385.5 163t-150.5 417q0 260 152.5 422.5t389.5 162.5q88 0 172.5 -21.5t131.5 -55.5l-47 -132q-113 60 -231 60q-175 0 -274 -118t-99 -320q0 -196 98 -312.5t275 -116.5q66 0 121 17.5t124 53.5l26 -139 q-111 -81 -303 -81z" />
<glyph unicode="&#xe8;" horiz-adv-x="1240" d="M541 1324l-330 395h256l188 -395h-114zM669 -24q-247 0 -400.5 157t-153.5 423q0 255 154 420t378 165q213 0 330.5 -141.5t117.5 -380.5l-6 -94h-781q3 -187 113 -293.5t276 -106.5q164 0 347 96l27 -148q-159 -97 -402 -97zM312 652h600q-5 170 -66 256.5t-193 86.5 q-134 0 -230.5 -93.5t-110.5 -249.5z" />
<glyph unicode="&#xe9;" horiz-adv-x="1240" d="M540 1324l190 395h258l-332 -395h-116zM669 -24q-247 0 -400.5 157t-153.5 423q0 255 154 420t378 165q213 0 330.5 -141.5t117.5 -380.5l-6 -94h-781q3 -187 113 -293.5t276 -106.5q164 0 347 96l27 -148q-159 -97 -402 -97zM312 652h600q-5 170 -66 256.5t-193 86.5 q-134 0 -230.5 -93.5t-110.5 -249.5z" />
<glyph unicode="&#xea;" horiz-adv-x="1240" d="M298 1324l190 395h217l191 -395h-136l-164 277l-165 -277h-133zM669 -24q-247 0 -400.5 157t-153.5 423q0 255 154 420t378 165q213 0 330.5 -141.5t117.5 -380.5l-6 -94h-781q3 -187 113 -293.5t276 -106.5q164 0 347 96l27 -148q-159 -97 -402 -97zM312 652h600 q-5 170 -66 256.5t-193 86.5q-134 0 -230.5 -93.5t-110.5 -249.5z" />
<glyph unicode="&#xeb;" horiz-adv-x="1240" d="M716 1324v216h158v-216h-158zM319 1324v216h158v-216h-158zM669 -24q-247 0 -400.5 157t-153.5 423q0 255 154 420t378 165q213 0 330.5 -141.5t117.5 -380.5l-6 -94h-781q3 -187 113 -293.5t276 -106.5q164 0 347 96l27 -148q-159 -97 -402 -97zM312 652h600 q-5 170 -66 256.5t-193 86.5q-134 0 -230.5 -93.5t-110.5 -249.5z" />
<glyph unicode="&#xec;" horiz-adv-x="462" d="M175 1324l-330 395h256l188 -395h-114zM146 0v1119h172v-1119h-172z" />
<glyph unicode="&#xed;" horiz-adv-x="462" d="M174 1324l190 395h258l-332 -395h-116zM146 0v1119h172v-1119h-172z" />
<glyph unicode="&#xee;" horiz-adv-x="462" d="M-67 1324l190 395h217l191 -395h-136l-164 277l-165 -277h-133zM146 0v1119h172v-1119h-172z" />
<glyph unicode="&#xef;" horiz-adv-x="462" d="M351 1324v216h158v-216h-158zM-46 1324v216h158v-216h-158zM146 0v1119h172v-1119h-172z" />
<glyph unicode="&#xf0;" horiz-adv-x="1303" d="M660 116q160 0 251 103.5t91 262.5q0 95 -39 177t-120 136t-190 54q-157 0 -249 -102t-92 -253q0 -157 91.5 -267.5t256.5 -110.5zM653 -26q-123 0 -224 42t-166 114t-100 166t-35 199q0 223 134 359.5t356 136.5q148 0 281 -97q-85 161 -309 387l-278 -114l-43 134 l224 89l-240 228h227l148 -162l295 115l47 -131l-246 -95q253 -275 349 -445q104 -194 104 -398q0 -233 -136.5 -380.5t-387.5 -147.5z" />
<glyph unicode="&#xf1;" horiz-adv-x="1248" d="M317 1324q0 112 45 167.5t129 55.5q56 0 132 -23.5t123 -48.5l47 -23q19 1 29.5 18.5t12.5 32t5 44.5h112q0 -223 -153 -223q-40 0 -119.5 24.5t-138.5 49.5l-60 25q-24 -2 -39 -28.5t-17 -70.5h-108zM165 0v1118h167l21 -160q122 183 365 183q386 0 386 -456v-685h-196 v698q0 146 -52.5 222t-175.5 76q-173 0 -246 -100t-73 -284v-612h-196z" />
<glyph unicode="&#xf2;" horiz-adv-x="1274" d="M581 1324l-330 395h256l188 -395h-114zM637.5 125q165.5 0 245.5 118.5t80 313.5q0 128 -32.5 223.5t-107 153.5t-186.5 58t-187 -58t-107.5 -153.5t-32.5 -223.5q0 -195 81 -313.5t246.5 -118.5zM637.5 -24q-236.5 0 -379.5 164t-143 419q0 261 139.5 421.5t382.5 160.5 t382.5 -160.5t139.5 -421.5q0 -255 -142.5 -419t-379 -164z" />
<glyph unicode="&#xf3;" horiz-adv-x="1274" d="M579 1324l190 395h258l-332 -395h-116zM637.5 125q165.5 0 245.5 118.5t80 313.5q0 128 -32.5 223.5t-107 153.5t-186.5 58t-187 -58t-107.5 -153.5t-32.5 -223.5q0 -195 81 -313.5t246.5 -118.5zM637.5 -24q-236.5 0 -379.5 164t-143 419q0 261 139.5 421.5t382.5 160.5 t382.5 -160.5t139.5 -421.5q0 -255 -142.5 -419t-379 -164z" />
<glyph unicode="&#xf4;" horiz-adv-x="1274" d="M338 1324l190 395h217l191 -395h-136l-164 277l-165 -277h-133zM637.5 125q165.5 0 245.5 118.5t80 313.5q0 128 -32.5 223.5t-107 153.5t-186.5 58t-187 -58t-107.5 -153.5t-32.5 -223.5q0 -195 81 -313.5t246.5 -118.5zM637.5 -24q-236.5 0 -379.5 164t-143 419 q0 261 139.5 421.5t382.5 160.5t382.5 -160.5t139.5 -421.5q0 -255 -142.5 -419t-379 -164z" />
<glyph unicode="&#xf5;" horiz-adv-x="1274" d="M320 1324q0 112 45 167.5t129 55.5q56 0 132 -23.5t123 -48.5l47 -23q19 1 29.5 18.5t12.5 32t5 44.5h112q0 -223 -153 -223q-40 0 -119.5 24.5t-138.5 49.5l-60 25q-24 -2 -39 -28.5t-17 -70.5h-108zM637.5 125q165.5 0 245.5 118.5t80 313.5q0 128 -32.5 223.5 t-107 153.5t-186.5 58t-187 -58t-107.5 -153.5t-32.5 -223.5q0 -195 81 -313.5t246.5 -118.5zM637.5 -24q-236.5 0 -379.5 164t-143 419q0 261 139.5 421.5t382.5 160.5t382.5 -160.5t139.5 -421.5q0 -255 -142.5 -419t-379 -164z" />
<glyph unicode="&#xf6;" horiz-adv-x="1274" d="M757 1324v216h158v-216h-158zM360 1324v216h158v-216h-158zM637.5 125q165.5 0 245.5 118.5t80 313.5q0 128 -32.5 223.5t-107 153.5t-186.5 58t-187 -58t-107.5 -153.5t-32.5 -223.5q0 -195 81 -313.5t246.5 -118.5zM637.5 -24q-236.5 0 -379.5 164t-143 419 q0 261 139.5 421.5t382.5 160.5t382.5 -160.5t139.5 -421.5q0 -255 -142.5 -419t-379 -164z" />
<glyph unicode="&#xf7;" horiz-adv-x="1253" d="M515 956v232h229v-232h-229zM113 533v152h1020v-152h-1020zM515 22v232h194v-232h-194z" />
<glyph unicode="&#xf8;" horiz-adv-x="1296" d="M652 115q87 0 154.5 36.5t106 100t58 140.5t19.5 166q0 267 -137 381l-338 -798q61 -26 137 -26zM444 186l337 795q-57 24 -131 24q-116 0 -197 -66.5t-117.5 -166t-36.5 -218.5q0 -114 36.5 -211.5t108.5 -156.5zM335 -280l-72 38l120 283q-125 72 -193 209.5t-68 307.5 q0 121 36 227.5t102 187t167.5 127t224.5 46.5q98 0 186 -30l117 277l79 -31l-120 -281q123 -72 188 -209.5t65 -311.5q0 -94 -21.5 -180.5t-65 -160t-104 -128.5t-145 -86t-181.5 -31q-105 0 -192 33z" />
<glyph unicode="&#xf9;" horiz-adv-x="1258" d="M568 1324l-330 395h256l188 -395h-114zM1094 1118v-1118h-166l-21 160q-43 -93 -141 -138.5t-226 -45.5q-385 0 -385 457v685h194v-698q0 -148 50.5 -223t173.5 -75q325 0 325 384v612h196z" />
<glyph unicode="&#xfa;" horiz-adv-x="1258" d="M567 1324l190 395h258l-332 -395h-116zM1094 1118v-1118h-166l-21 160q-43 -93 -141 -138.5t-226 -45.5q-385 0 -385 457v685h194v-698q0 -148 50.5 -223t173.5 -75q325 0 325 384v612h196z" />
<glyph unicode="&#xfb;" horiz-adv-x="1258" d="M325 1324l190 395h217l191 -395h-136l-164 277l-165 -277h-133zM1094 1118v-1118h-166l-21 160q-43 -93 -141 -138.5t-226 -45.5q-385 0 -385 457v685h194v-698q0 -148 50.5 -223t173.5 -75q325 0 325 384v612h196z" />
<glyph unicode="&#xfc;" horiz-adv-x="1258" d="M743 1324v216h158v-216h-158zM346 1324v216h158v-216h-158zM1094 1118v-1118h-166l-21 160q-43 -93 -141 -138.5t-226 -45.5q-385 0 -385 457v685h194v-698q0 -148 50.5 -223t173.5 -75q325 0 325 384v612h196z" />
<glyph unicode="&#xfd;" horiz-adv-x="1170" d="M529 1324l190 395h258l-332 -395h-116zM116 -461l-6 146q8 -2 74.5 -8t87.5 -6q86 0 139 38.5t89 151.5q6 20 16 64t17 77l7 35l-491 1081h211l371 -895l284 895h211q-445 -1260 -460 -1298q-63 -168 -146.5 -234t-223.5 -66q-26 0 -94.5 7t-85.5 12z" />
<glyph unicode="&#xfe;" horiz-adv-x="1272" d="M663 115q85 0 148 41.5t96 110t48 142t15 153t-15 152.5t-47 141t-93.5 109t-144.5 41q-111 0 -191.5 -63t-118 -162t-37.5 -219q0 -123 33 -220.5t112 -161.5t195 -64zM152 1539h172v-588q131 195 358 195q138 -1 244.5 -77t163.5 -205.5t57 -292.5q0 -114 -29 -219.5 t-85 -190.5t-147 -136t-204 -51q-246 0 -358 191v-633h-172v2007z" />
<glyph unicode="&#xff;" horiz-adv-x="1170" d="M707 1324v216h158v-216h-158zM310 1324v216h158v-216h-158zM116 -461l-6 146q8 -2 74.5 -8t87.5 -6q86 0 139 38.5t89 151.5q6 20 16 64t17 77l7 35l-491 1081h211l371 -895l284 895h211q-445 -1260 -460 -1298q-63 -168 -146.5 -234t-223.5 -66q-26 0 -94.5 7t-85.5 12z " />
<glyph unicode="&#x100;" horiz-adv-x="1436" d="M378 1765v142h681v-142h-681zM41 0l565 1557h226l564 -1557h-189l-178 482h-609l-179 -482h-200zM477 628h497l-256 742z" />
<glyph unicode="&#x101;" horiz-adv-x="1224" d="M259 1324v142h681v-142h-681zM516 114q107 0 212 49t131 118v268q-104 -10 -130 -14q-224 -27 -308 -76.5t-84 -165.5q0 -87 52 -133t127 -46zM491 -24q-154 0 -251.5 84t-97.5 235q0 172 133.5 255.5t387.5 102.5l196 16v98q0 116 -59 170.5t-180 54.5q-82 0 -185 -22 t-181 -61q-14 36 -52 138q72 41 189 67.5t225 26.5q215 0 327 -93t112 -308v-740h-158l-30 125q-49 -72 -153 -110.5t-223 -38.5z" />
<glyph unicode="&#x102;" horiz-adv-x="1436" d="M975 2013q0 -123 -76.5 -185.5t-181.5 -62.5q-104 0 -179 62.5t-75 185.5h119q0 -69 38 -106t97.5 -37t99 37t39.5 106h119zM41 0l565 1557h226l564 -1557h-189l-178 482h-609l-179 -482h-200zM477 628h497l-256 742z" />
<glyph unicode="&#x103;" horiz-adv-x="1224" d="M855 1572q0 -123 -76.5 -185.5t-181.5 -62.5q-104 0 -179 62.5t-75 185.5h119q0 -69 38 -106t97.5 -37t99 37t39.5 106h119zM516 114q107 0 212 49t131 118v268q-104 -10 -130 -14q-224 -27 -308 -76.5t-84 -165.5q0 -87 52 -133t127 -46zM491 -24q-154 0 -251.5 84 t-97.5 235q0 172 133.5 255.5t387.5 102.5l196 16v98q0 116 -59 170.5t-180 54.5q-82 0 -185 -22t-181 -61q-14 36 -52 138q72 41 189 67.5t225 26.5q215 0 327 -93t112 -308v-740h-158l-30 125q-49 -72 -153 -110.5t-223 -38.5z" />
<glyph unicode="&#x104;" horiz-adv-x="1436" d="M1229 -418q-86 0 -141.5 47.5t-55.5 131.5q0 139 195 254h116q-183 -136 -183 -224q0 -38 28 -64.5t61 -26.5q58 0 140 33v-118q-76 -33 -160 -33zM41 0l565 1557h226l564 -1557h-189l-178 482h-609l-179 -482h-200zM477 628h497l-256 742z" />
<glyph unicode="&#x105;" horiz-adv-x="1224" d="M911 -426q-86 0 -141.5 47.5t-55.5 131.5q0 139 195 254h116q-183 -136 -183 -224q0 -38 28 -64.5t61 -26.5q58 0 140 33v-118q-76 -33 -160 -33zM516 114q107 0 212 49t131 118v268q-104 -10 -130 -14q-224 -27 -308 -76.5t-84 -165.5q0 -87 52 -133t127 -46zM491 -24 q-154 0 -251.5 84t-97.5 235q0 172 133.5 255.5t387.5 102.5l196 16v98q0 116 -59 170.5t-180 54.5q-82 0 -185 -22t-181 -61q-14 36 -52 138q72 41 189 67.5t225 26.5q215 0 327 -93t112 -308v-740h-158l-30 125q-49 -72 -153 -110.5t-223 -38.5z" />
<glyph unicode="&#x106;" horiz-adv-x="1402" d="M644 1766l190 395h258l-332 -395h-116zM832 -20q-216 3 -380 114t-250.5 298t-86.5 420q0 227 87.5 401t255.5 272t394 98q260 0 437 -112l-60 -139q-163 96 -374 96q-259 0 -403 -173t-144 -450q0 -107 22 -205.5t68 -184t112 -147.5t159 -98t203 -36q186 0 366 86 l29 -144q-62 -38 -182 -67t-253 -29z" />
<glyph unicode="&#x107;" horiz-adv-x="1058" d="M469 1324l190 395h258l-332 -395h-116zM651 -24q-235 0 -385.5 163t-150.5 417q0 260 152.5 422.5t389.5 162.5q88 0 172.5 -21.5t131.5 -55.5l-47 -132q-113 60 -231 60q-175 0 -274 -118t-99 -320q0 -196 98 -312.5t275 -116.5q66 0 121 17.5t124 53.5l26 -139 q-111 -81 -303 -81z" />
<glyph unicode="&#x108;" horiz-adv-x="1402" d="M403 1766l190 395h217l191 -395h-136l-164 277l-165 -277h-133zM832 -20q-216 3 -380 114t-250.5 298t-86.5 420q0 227 87.5 401t255.5 272t394 98q260 0 437 -112l-60 -139q-163 96 -374 96q-259 0 -403 -173t-144 -450q0 -107 22 -205.5t68 -184t112 -147.5t159 -98 t203 -36q186 0 366 86l29 -144q-62 -38 -182 -67t-253 -29z" />
<glyph unicode="&#x109;" horiz-adv-x="1058" d="M229 1324l190 395h217l191 -395h-136l-164 277l-165 -277h-133zM651 -24q-235 0 -385.5 163t-150.5 417q0 260 152.5 422.5t389.5 162.5q88 0 172.5 -21.5t131.5 -55.5l-47 -132q-113 60 -231 60q-175 0 -274 -118t-99 -320q0 -196 98 -312.5t275 -116.5q66 0 121 17.5 t124 53.5l26 -139q-111 -81 -303 -81z" />
<glyph unicode="&#x10a;" horiz-adv-x="1402" d="M617 1765v201h171v-201h-171zM832 -20q-216 3 -380 114t-250.5 298t-86.5 420q0 227 87.5 401t255.5 272t394 98q260 0 437 -112l-60 -139q-163 96 -374 96q-259 0 -403 -173t-144 -450q0 -107 22 -205.5t68 -184t112 -147.5t159 -98t203 -36q186 0 366 86l29 -144 q-62 -38 -182 -67t-253 -29z" />
<glyph unicode="&#x10b;" horiz-adv-x="1058" d="M443 1324v201h171v-201h-171zM651 -24q-235 0 -385.5 163t-150.5 417q0 260 152.5 422.5t389.5 162.5q88 0 172.5 -21.5t131.5 -55.5l-47 -132q-113 60 -231 60q-175 0 -274 -118t-99 -320q0 -196 98 -312.5t275 -116.5q66 0 121 17.5t124 53.5l26 -139 q-111 -81 -303 -81z" />
<glyph unicode="&#x10c;" horiz-adv-x="1402" d="M593 1766l-190 395h133l165 -317l164 317h136l-191 -395h-217zM832 -20q-216 3 -380 114t-250.5 298t-86.5 420q0 227 87.5 401t255.5 272t394 98q260 0 437 -112l-60 -139q-163 96 -374 96q-259 0 -403 -173t-144 -450q0 -107 22 -205.5t68 -184t112 -147.5t159 -98 t203 -36q186 0 366 86l29 -144q-62 -38 -182 -67t-253 -29z" />
<glyph unicode="&#x10d;" horiz-adv-x="1058" d="M419 1324l-190 395h133l165 -317l164 317h136l-191 -395h-217zM651 -24q-235 0 -385.5 163t-150.5 417q0 260 152.5 422.5t389.5 162.5q88 0 172.5 -21.5t131.5 -55.5l-47 -132q-113 60 -231 60q-175 0 -274 -118t-99 -320q0 -196 98 -312.5t275 -116.5q66 0 121 17.5 t124 53.5l26 -139q-111 -81 -303 -81z" />
<glyph unicode="&#x10e;" horiz-adv-x="1579" d="M723 1766l-190 395h133l165 -317l164 317h136l-191 -395h-217zM199 0v1557h426q190 0 343.5 -48.5t264.5 -142.5t171 -243t60 -341q0 -372 -214.5 -577t-593.5 -205h-457zM399 1402v-1249h252q299 0 456 162.5t157 461.5q0 625 -644 625h-221z" />
<glyph unicode="&#x10f;" horiz-adv-x="1323" d="M1433 1097l95 481h160l-137 -481h-118zM636 121q327 0 327 419q0 227 -75.5 342.5t-250.5 115.5q-158 0 -242.5 -117.5t-84.5 -321.5q0 -203 83.5 -320.5t242.5 -117.5zM606 -24q-230 0 -360.5 162.5t-130.5 425.5q0 256 136.5 416.5t353.5 160.5q110 0 208.5 -48 t154.5 -128q-5 74 -5 214v383l196 16v-1578h-177l-19 183q-45 -98 -142 -152.5t-215 -54.5z" />
<glyph unicode="&#x110;" horiz-adv-x="1668" d="M250 848v676h378q164 0 298 -23.5t249.5 -79t194.5 -142.5t124 -220.5t45 -305.5q0 -187 -58.5 -331t-164.5 -236t-253.5 -139t-330.5 -47h-482v710h-120v138h120zM430 710v-552h322q284 0 439 149.5t155 440.5q0 141 -33 248.5t-91 177t-146.5 113.5t-191.5 61.5 t-233 17.5h-221v-518h246v-138h-246z" />
<glyph unicode="&#x111;" horiz-adv-x="1336" d="M656 1306v114h635v-114h-635zM636 121q327 0 327 419q0 227 -75.5 342.5t-250.5 115.5q-158 0 -242.5 -117.5t-84.5 -321.5q0 -203 83.5 -320.5t242.5 -117.5zM606 -24q-230 0 -360.5 162.5t-130.5 425.5q0 256 136.5 416.5t353.5 160.5q110 0 208.5 -48t154.5 -128 q-5 74 -5 214v383l196 16v-1578h-177l-19 183q-45 -98 -142 -152.5t-215 -54.5zM636 121q327 0 327 419q0 227 -75.5 342.5t-250.5 115.5q-158 0 -242.5 -117.5t-84.5 -321.5q0 -203 83.5 -320.5t242.5 -117.5zM606 -24q-230 0 -360.5 162.5t-130.5 425.5q0 256 136.5 416.5 t353.5 160.5q110 0 208.5 -48t154.5 -128q-5 74 -5 214v383l196 16v-1578h-177l-19 183q-45 -98 -142 -152.5t-215 -54.5zM636 121q-159 0 -242.5 117.5t-83.5 320.5q0 204 84.5 321.5t242.5 117.5q175 0 250.5 -115.5t75.5 -342.5q0 -419 -327 -419zM606 -24 q118 0 215 54.5t142 152.5l19 -183h177v1578l-196 -16v-383q0 -140 5 -214q-56 80 -154.5 128t-208.5 48q-217 0 -353.5 -160.5t-136.5 -416.5q0 -263 130.5 -425.5t360.5 -162.5zM636 121q327 0 327 419q0 227 -75.5 342.5t-250.5 115.5q-158 0 -242.5 -117.5t-84.5 -321.5 q0 -203 83.5 -320.5t242.5 -117.5zM606 -24q-230 0 -360.5 162.5t-130.5 425.5q0 256 136.5 416.5t353.5 160.5q110 0 208.5 -48t154.5 -128q-5 74 -5 214v383l196 16v-1578h-177l-19 183q-45 -98 -142 -152.5t-215 -54.5zM636 121q-159 0 -242.5 117.5t-83.5 320.5 q0 204 84.5 321.5t242.5 117.5q175 0 250.5 -115.5t75.5 -342.5q0 -419 -327 -419zM606 -24q118 0 215 54.5t142 152.5l19 -183h177v1578l-196 -16v-383q0 -140 5 -214q-56 80 -154.5 128t-208.5 48q-217 0 -353.5 -160.5t-136.5 -416.5q0 -263 130.5 -425.5t360.5 -162.5z " />
<glyph unicode="&#x112;" horiz-adv-x="1247" d="M317 1765v142h681v-142h-681zM399 1401v-506h649v-154h-649v-585h717l-9 -156h-908v1557h917l-8 -156h-709z" />
<glyph unicode="&#x113;" horiz-adv-x="1240" d="M257 1324v142h681v-142h-681zM669 -24q-247 0 -400.5 157t-153.5 423q0 255 154 420t378 165q213 0 330.5 -141.5t117.5 -380.5l-6 -94h-781q3 -187 113 -293.5t276 -106.5q164 0 347 96l27 -148q-159 -97 -402 -97zM312 652h600q-5 170 -66 256.5t-193 86.5 q-134 0 -230.5 -93.5t-110.5 -249.5z" />
<glyph unicode="&#x114;" horiz-adv-x="1247" d="M913 2013q0 -123 -76.5 -185.5t-181.5 -62.5q-104 0 -179 62.5t-75 185.5h119q0 -69 38 -106t97.5 -37t99 37t39.5 106h119zM399 1401v-506h649v-154h-649v-585h717l-9 -156h-908v1557h917l-8 -156h-709z" />
<glyph unicode="&#x115;" horiz-adv-x="1240" d="M854 1572q0 -123 -76.5 -185.5t-181.5 -62.5q-104 0 -179 62.5t-75 185.5h119q0 -69 38 -106t97.5 -37t99 37t39.5 106h119zM669 -24q-247 0 -400.5 157t-153.5 423q0 255 154 420t378 165q213 0 330.5 -141.5t117.5 -380.5l-6 -94h-781q3 -187 113 -293.5t276 -106.5 q164 0 347 96l27 -148q-159 -97 -402 -97zM312 652h600q-5 170 -66 256.5t-193 86.5q-134 0 -230.5 -93.5t-110.5 -249.5z" />
<glyph unicode="&#x116;" horiz-adv-x="1247" d="M573 1765v201h171v-201h-171zM399 1401v-506h649v-154h-649v-585h717l-9 -156h-908v1557h917l-8 -156h-709z" />
<glyph unicode="&#x117;" horiz-adv-x="1240" d="M512 1324v201h171v-201h-171zM669 -24q-247 0 -400.5 157t-153.5 423q0 255 154 420t378 165q213 0 330.5 -141.5t117.5 -380.5l-6 -94h-781q3 -187 113 -293.5t276 -106.5q164 0 347 96l27 -148q-159 -97 -402 -97zM312 652h600q-5 170 -66 256.5t-193 86.5 q-134 0 -230.5 -93.5t-110.5 -249.5z" />
<glyph unicode="&#x118;" horiz-adv-x="1247" d="M660 -418q-86 0 -141.5 47.5t-55.5 131.5q0 139 195 254h116q-183 -136 -183 -224q0 -38 28 -64.5t61 -26.5q58 0 140 33v-118q-76 -33 -160 -33zM399 1401v-506h649v-154h-649v-585h717l-9 -156h-908v1557h917l-8 -156h-709z" />
<glyph unicode="&#x119;" horiz-adv-x="1240" d="M541 -442q-86 0 -141.5 47.5t-55.5 131.5q0 139 195 254h116q-183 -136 -183 -224q0 -38 28 -64.5t61 -26.5q58 0 140 33v-118q-76 -33 -160 -33zM669 -24q-247 0 -400.5 157t-153.5 423q0 255 154 420t378 165q213 0 330.5 -141.5t117.5 -380.5l-6 -94h-781 q3 -187 113 -293.5t276 -106.5q164 0 347 96l27 -148q-159 -97 -402 -97zM312 652h600q-5 170 -66 256.5t-193 86.5q-134 0 -230.5 -93.5t-110.5 -249.5z" />
<glyph unicode="&#x11a;" horiz-adv-x="1247" d="M549 1766l-190 395h133l165 -317l164 317h136l-191 -395h-217zM399 1401v-506h649v-154h-649v-585h717l-9 -156h-908v1557h917l-8 -156h-709z" />
<glyph unicode="&#x11b;" horiz-adv-x="1240" d="M488 1324l-190 395h133l165 -317l164 317h136l-191 -395h-217zM669 -24q-247 0 -400.5 157t-153.5 423q0 255 154 420t378 165q213 0 330.5 -141.5t117.5 -380.5l-6 -94h-781q3 -187 113 -293.5t276 -106.5q164 0 347 96l27 -148q-159 -97 -402 -97zM312 652h600 q-5 170 -66 256.5t-193 86.5q-134 0 -230.5 -93.5t-110.5 -249.5z" />
<glyph unicode="&#x11c;" horiz-adv-x="1596" d="M472 1766l190 395h217l191 -395h-136l-164 277l-165 -277h-133zM860 -20q-188 0 -332.5 60.5t-233.5 169t-134 251.5t-45 314q0 174 47 319t140.5 255t245 172t348.5 62q142 0 272.5 -30t222.5 -89l-56 -137q-193 101 -439 101q-123 0 -221.5 -33.5t-164.5 -93t-111 -143 t-64.5 -178.5t-19.5 -205q0 -142 32.5 -257t98.5 -201.5t174 -134.5t251 -48q93 0 200.5 9t154.5 22v483h-368l9 154h559v-736q-224 -86 -566 -86z" />
<glyph unicode="&#x11d;" horiz-adv-x="1324" d="M338 1324l190 395h217l191 -395h-136l-164 277l-165 -277h-133zM587 -476q-131 0 -288 39l12 144q118 -33 261 -33q209 0 300 91.5t91 316.5v132q-40 -102 -128.5 -158t-218.5 -56q-120 0 -217.5 47.5t-158 126.5t-93 177.5t-32.5 204.5q0 120 31.5 225t92 186 t158.5 127.5t222 46.5q221 0 349 -172l13 149h178v-952q0 -119 -15 -212t-54 -176t-103 -137t-165 -85.5t-235 -31.5zM631 146q87 0 152.5 30.5t104 85t57 120.5t18.5 144v82q0 111 -32.5 196t-108.5 139.5t-187 54.5q-87 0 -152.5 -40t-101.5 -105.5t-53.5 -138 t-17.5 -150.5q0 -59 11 -116.5t35.5 -113t61 -97t91 -66.5t122.5 -25z" />
<glyph unicode="&#x11e;" horiz-adv-x="1596" d="M1027 2013q0 -123 -76.5 -185.5t-181.5 -62.5q-104 0 -179 62.5t-75 185.5h119q0 -69 38 -106t97.5 -37t99 37t39.5 106h119zM860 -20q-188 0 -332.5 60.5t-233.5 169t-134 251.5t-45 314q0 174 47 319t140.5 255t245 172t348.5 62q142 0 272.5 -30t222.5 -89l-56 -137 q-193 101 -439 101q-123 0 -221.5 -33.5t-164.5 -93t-111 -143t-64.5 -178.5t-19.5 -205q0 -142 32.5 -257t98.5 -201.5t174 -134.5t251 -48q93 0 200.5 9t154.5 22v483h-368l9 154h559v-736q-224 -86 -566 -86z" />
<glyph unicode="&#x11f;" horiz-adv-x="1324" d="M893 1572q0 -123 -76.5 -185.5t-181.5 -62.5q-104 0 -179 62.5t-75 185.5h119q0 -69 38 -106t97.5 -37t99 37t39.5 106h119zM587 -476q-131 0 -288 39l12 144q118 -33 261 -33q209 0 300 91.5t91 316.5v132q-40 -102 -128.5 -158t-218.5 -56q-120 0 -217.5 47.5 t-158 126.5t-93 177.5t-32.5 204.5q0 120 31.5 225t92 186t158.5 127.5t222 46.5q221 0 349 -172l13 149h178v-952q0 -119 -15 -212t-54 -176t-103 -137t-165 -85.5t-235 -31.5zM631 146q87 0 152.5 30.5t104 85t57 120.5t18.5 144v82q0 111 -32.5 196t-108.5 139.5 t-187 54.5q-87 0 -152.5 -40t-101.5 -105.5t-53.5 -138t-17.5 -150.5q0 -59 11 -116.5t35.5 -113t61 -97t91 -66.5t122.5 -25z" />
<glyph unicode="&#x120;" horiz-adv-x="1596" d="M685 1765v201h171v-201h-171zM860 -20q-188 0 -332.5 60.5t-233.5 169t-134 251.5t-45 314q0 174 47 319t140.5 255t245 172t348.5 62q142 0 272.5 -30t222.5 -89l-56 -137q-193 101 -439 101q-123 0 -221.5 -33.5t-164.5 -93t-111 -143t-64.5 -178.5t-19.5 -205 q0 -142 32.5 -257t98.5 -201.5t174 -134.5t251 -48q93 0 200.5 9t154.5 22v483h-368l9 154h559v-736q-224 -86 -566 -86z" />
<glyph unicode="&#x121;" horiz-adv-x="1324" d="M553 1324v201h171v-201h-171zM587 -476q-131 0 -288 39l12 144q118 -33 261 -33q209 0 300 91.5t91 316.5v132q-40 -102 -128.5 -158t-218.5 -56q-120 0 -217.5 47.5t-158 126.5t-93 177.5t-32.5 204.5q0 120 31.5 225t92 186t158.5 127.5t222 46.5q221 0 349 -172 l13 149h178v-952q0 -119 -15 -212t-54 -176t-103 -137t-165 -85.5t-235 -31.5zM631 146q87 0 152.5 30.5t104 85t57 120.5t18.5 144v82q0 111 -32.5 196t-108.5 139.5t-187 54.5q-87 0 -152.5 -40t-101.5 -105.5t-53.5 -138t-17.5 -150.5q0 -59 11 -116.5t35.5 -113t61 -97 t91 -66.5t122.5 -25z" />
<glyph unicode="&#x122;" horiz-adv-x="1596" d="M637 -711l96 508h169l-145 -508h-120zM860 -20q-188 0 -332.5 60.5t-233.5 169t-134 251.5t-45 314q0 174 47 319t140.5 255t245 172t348.5 62q142 0 272.5 -30t222.5 -89l-56 -137q-193 101 -439 101q-123 0 -221.5 -33.5t-164.5 -93t-111 -143t-64.5 -178.5t-19.5 -205 q0 -142 32.5 -257t98.5 -201.5t174 -134.5t251 -48q93 0 200.5 9t154.5 22v483h-368l9 154h559v-736q-224 -86 -566 -86z" />
<glyph unicode="&#x123;" horiz-adv-x="1324" d="M587 -476q-131 0 -288 39l12 144q118 -33 261 -33q209 0 300 91.5t91 316.5v132q-40 -102 -128.5 -158t-218.5 -56q-120 0 -217.5 47.5t-158 126.5t-93 177.5t-32.5 204.5q0 120 31.5 225t92 186t158.5 127.5t222 46.5q221 0 349 -172l13 149h178v-952q0 -119 -15 -212 t-54 -176t-103 -137t-165 -85.5t-235 -31.5zM631 146q87 0 152.5 30.5t104 85t57 120.5t18.5 144v82q0 111 -32.5 196t-108.5 139.5t-187 54.5q-87 0 -152.5 -40t-101.5 -105.5t-53.5 -138t-17.5 -150.5q0 -59 11 -116.5t35.5 -113t61 -97t91 -66.5t122.5 -25zM560 1323 l95 481h160l-137 -481h-118zM587 -476q-131 0 -288 39l12 144q118 -33 261 -33q209 0 300 91.5t91 316.5v132q-40 -102 -128.5 -158t-218.5 -56q-120 0 -217.5 47.5t-158 126.5t-93 177.5t-32.5 204.5q0 120 31.5 225t92 186t158.5 127.5t222 46.5q221 0 349 -172l13 149 h178v-952q0 -119 -15 -212t-54 -176t-103 -137t-165 -85.5t-235 -31.5zM631 146q87 0 152.5 30.5t104 85t57 120.5t18.5 144v82q0 111 -32.5 196t-108.5 139.5t-187 54.5q-87 0 -152.5 -40t-101.5 -105.5t-53.5 -138t-17.5 -150.5q0 -59 11 -116.5t35.5 -113t61 -97 t91 -66.5t122.5 -25zM560 1323l95 481h160l-137 -481h-118z" />
<glyph unicode="&#x124;" horiz-adv-x="1607" d="M504 1766l190 395h217l191 -395h-136l-164 277l-165 -277h-133zM399 858h809v699h200v-1557h-200v710h-809v-710h-200v1557h200v-699z" />
<glyph unicode="&#x125;" horiz-adv-x="1225" d="M325 1761l190 395h217l191 -395h-136l-164 277l-165 -277h-133zM167 1562l196 16v-610q48 83 137.5 128t206.5 45q191 0 282.5 -114t91.5 -342v-685h-196v698q0 150 -45.5 224t-166.5 74q-171 0 -240.5 -98.5t-69.5 -285.5v-612h-196v1562z" />
<glyph unicode="&#x126;" horiz-adv-x="1632" d="M400 865h832v303h-832v-303zM220 1275v249h180v-249h832v249h180v-249h92v-107h-92v-1168h-180v709h-832v-709h-180v1168h-92v107h92z" />
<glyph unicode="&#x127;" horiz-adv-x="1265" d="M570 1424v-118h-548v118h548zM167 1562l196 16v-610q48 83 137.5 128t206.5 45q191 0 282.5 -114t91.5 -342v-685h-196v698q0 150 -45.5 224t-166.5 74q-171 0 -240.5 -98.5t-69.5 -285.5v-612h-196v1562zM167 1562l196 16v-610q48 83 137.5 128t206.5 45 q191 0 282.5 -114t91.5 -342v-685h-196v698q0 150 -45.5 224t-166.5 74q-171 0 -240.5 -98.5t-69.5 -285.5v-612h-196v1562zM167 1562v-1562h196v612q0 187 69.5 285.5t240.5 98.5q121 0 166.5 -74t45.5 -224v-698h196v685q0 228 -91.5 342t-282.5 114q-117 0 -206.5 -45 t-137.5 -128v610zM167 1562l196 16v-610q48 83 137.5 128t206.5 45q191 0 282.5 -114t91.5 -342v-685h-196v698q0 150 -45.5 224t-166.5 74q-171 0 -240.5 -98.5t-69.5 -285.5v-612h-196v1562zM167 1562v-1562h196v612q0 187 69.5 285.5t240.5 98.5q121 0 166.5 -74 t45.5 -224v-698h196v685q0 228 -91.5 342t-282.5 114q-117 0 -206.5 -45t-137.5 -128v610zM167 1562l196 16v-610q48 83 137.5 128t206.5 45q191 0 282.5 -114t91.5 -342v-685h-196v698q0 150 -45.5 224t-166.5 74q-171 0 -240.5 -98.5t-69.5 -285.5v-612h-196v1562z M167 1562v-1562h196v612q0 187 69.5 285.5t240.5 98.5q121 0 166.5 -74t45.5 -224v-698h196v685q0 228 -91.5 342t-282.5 114q-117 0 -206.5 -45t-137.5 -128v610zM167 1562l196 16v-610q48 83 137.5 128t206.5 45q191 0 282.5 -114t91.5 -342v-685h-196v698 q0 150 -45.5 224t-166.5 74q-171 0 -240.5 -98.5t-69.5 -285.5v-612h-196v1562zM167 1562v-1562h196v612q0 187 69.5 285.5t240.5 98.5q121 0 166.5 -74t45.5 -224v-698h196v685q0 228 -91.5 342t-282.5 114q-117 0 -206.5 -45t-137.5 -128v610zM167 1562l196 16v-610 q48 83 137.5 128t206.5 45q191 0 282.5 -114t91.5 -342v-685h-196v698q0 150 -45.5 224t-166.5 74q-171 0 -240.5 -98.5t-69.5 -285.5v-612h-196v1562zM167 1562v-1562h196v612q0 187 69.5 285.5t240.5 98.5q121 0 166.5 -74t45.5 -224v-698h196v685q0 228 -91.5 342 t-282.5 114q-117 0 -206.5 -45t-137.5 -128v610zM167 1562l196 16v-610q48 83 137.5 128t206.5 45q191 0 282.5 -114t91.5 -342v-685h-196v698q0 150 -45.5 224t-166.5 74q-171 0 -240.5 -98.5t-69.5 -285.5v-612h-196v1562zM167 1562v-1562h196v612q0 187 69.5 285.5 t240.5 98.5q121 0 166.5 -74t45.5 -224v-698h196v685q0 228 -91.5 342t-282.5 114q-117 0 -206.5 -45t-137.5 -128v610z" />
<glyph unicode="&#x128;" horiz-adv-x="623" d="M3 1765q0 112 45 167.5t129 55.5q56 0 132 -23.5t123 -48.5l47 -23q19 1 29.5 18.5t12.5 32t5 44.5h112q0 -223 -153 -223q-40 0 -119.5 24.5t-138.5 49.5l-60 25q-24 -2 -39 -28.5t-17 -70.5h-108zM220 0v1557h200v-1557h-200z" />
<glyph unicode="&#x129;" horiz-adv-x="462" d="M-86 1324q0 112 45 167.5t129 55.5q56 0 132 -23.5t123 -48.5l47 -23q19 1 29.5 18.5t12.5 32t5 44.5h112q0 -223 -153 -223q-40 0 -119.5 24.5t-138.5 49.5l-60 25q-24 -2 -39 -28.5t-17 -70.5h-108zM146 0v1119h172v-1119h-172z" />
<glyph unicode="&#x12a;" horiz-adv-x="623" d="M-21 1765v142h681v-142h-681zM220 0v1557h200v-1557h-200z" />
<glyph unicode="&#x12b;" horiz-adv-x="462" d="M-108 1324v142h681v-142h-681zM146 0v1119h172v-1119h-172z" />
<glyph unicode="&#x12c;" horiz-adv-x="623" d="M576 2013q0 -123 -76.5 -185.5t-181.5 -62.5q-104 0 -179 62.5t-75 185.5h119q0 -69 38 -106t97.5 -37t99 37t39.5 106h119zM220 0v1557h200v-1557h-200z" />
<glyph unicode="&#x12d;" horiz-adv-x="462" d="M487 1572q0 -123 -76.5 -185.5t-181.5 -62.5q-104 0 -179 62.5t-75 185.5h119q0 -69 38 -106t97.5 -37t99 37t39.5 106h119zM146 0v1119h172v-1119h-172z" />
<glyph unicode="&#x12e;" horiz-adv-x="623" d="M263 -418q-86 0 -141.5 47.5t-55.5 131.5q0 139 195 254h116q-183 -136 -183 -224q0 -38 28 -64.5t61 -26.5q58 0 140 33v-118q-76 -33 -160 -33zM220 0v1557h200v-1557h-200z" />
<glyph unicode="&#x12f;" horiz-adv-x="584" d="M241 -418q-86 0 -141.5 47.5t-55.5 131.5q0 139 195 254h116q-183 -136 -183 -224q0 -38 28 -64.5t61 -26.5q58 0 140 33v-118q-76 -33 -160 -33zM199 1323v201h195v-201h-195zM199 0v1118h195v-1118h-195z" />
<glyph unicode="&#x130;" horiz-adv-x="623" d="M234 1765v201h171v-201h-171zM220 0v1557h200v-1557h-200z" />
<glyph unicode="&#x131;" horiz-adv-x="462" d="M146 0v1119h172v-1119h-172z" />
<glyph unicode="&#x132;" horiz-adv-x="1314" d="M702 -215l-16 165q56 0 99 7t72 17t48.5 30.5t29.5 37.5t15 49t6.5 54.5t1.5 62.5v1369h199v-1332q0 -85 -5.5 -143t-23 -114t-48.5 -91t-81 -62t-123.5 -38.5t-173.5 -11.5zM220 0v1557h200v-1557h-200zM702 -215l-16 165q56 0 99 7t72 17t48.5 30.5t29.5 37.5t15 49 t6.5 54.5t1.5 62.5v1369h199v-1332q0 -85 -5.5 -143t-23 -114t-48.5 -91t-81 -62t-123.5 -38.5t-173.5 -11.5zM220 0v1557h200v-1557h-200z" />
<glyph unicode="&#x133;" horiz-adv-x="1106" d="M607 -446l-23 158h54q56 0 89.5 8.5t50.5 28.5t22 43.5t5 65.5l-1 1260h196v-1194q0 -108 -14 -174.5t-52 -112.5t-103 -64.5t-170 -18.5h-54zM804 1323v201h196v-201h-196zM199 1323v201h195v-201h-195zM199 0v1118h195v-1118h-195zM607 -446l-23 158h54q56 0 89.5 8.5 t50.5 28.5t22 43.5t5 65.5l-1 1260h196v-1194q0 -108 -14 -174.5t-52 -112.5t-103 -64.5t-170 -18.5h-54zM804 1323v201h196v-201h-196zM199 1323v201h195v-201h-195zM199 0v1118h195v-1118h-195z" />
<glyph unicode="&#x134;" horiz-adv-x="759" d="M25 1766l190 395h217l191 -395h-136l-164 277l-165 -277h-133zM104 -215l-16 165q56 0 99 7t72 17t48.5 30.5t29.5 37.5t15 49t6.5 54.5t1.5 62.5v1369h199v-1332q0 -85 -5.5 -143t-23 -114t-48.5 -91t-81 -62t-123.5 -38.5t-173.5 -11.5z" />
<glyph unicode="&#x135;" horiz-adv-x="467" d="M-172 1324l190 395h217l191 -395h-136l-164 277l-165 -277h-133zM-59 -446l-23 158h54q57 0 90 7.5t50 27.5t21.5 44.5t4.5 71.5v79v1176h196v-1194q0 -108 -14 -174.5t-52 -112.5t-103 -64.5t-171 -18.5h-53z" />
<glyph unicode="&#x136;" horiz-adv-x="1382" d="M651 -691l96 508h169l-145 -508h-120zM1063 1556h251l-639 -701l691 -855h-234l-608 756l-125 -120v-636h-200v1556h200v-714z" />
<glyph unicode="&#x137;" horiz-adv-x="1171" d="M523 -691l96 508h169l-145 -508h-120zM172 1562l196 16v-1005l524 545h240l-499 -522l507 -596h-219l-428 500l-125 -108v-392h-196v1562z" />
<glyph unicode="&#x138;" horiz-adv-x="1172" d="M146 0v1119h169v-537q24 27 38 42q99 114 458 494h216l-465 -496l498 -622h-212l-409 525l-124 -107v-418h-169z" />
<glyph unicode="&#x139;" horiz-adv-x="1096" d="M571 1766l190 395h258l-332 -395h-116zM1058 157l-7 -157h-852v1557h201v-1400h658z" />
<glyph unicode="&#x13a;" horiz-adv-x="708" d="M327 1761l190 395h258l-332 -395h-116zM452 -20q-92 0 -145.5 29t-82.5 109t-29 224v1220l196 16v-1192q0 -110 8 -163t28.5 -73t64.5 -20h71l13 -140q-70 -10 -124 -10z" />
<glyph unicode="&#x13b;" horiz-adv-x="1096" d="M496 -691l96 508h169l-145 -508h-120zM1058 157l-7 -157h-852v1557h201v-1400h658z" />
<glyph unicode="&#x13c;" horiz-adv-x="708" d="M252 -711l96 508h169l-145 -508h-120zM452 -20q-92 0 -145.5 29t-82.5 109t-29 224v1220l196 16v-1192q0 -110 8 -163t28.5 -73t64.5 -20h71l13 -140q-70 -10 -124 -10z" />
<glyph unicode="&#x13d;" horiz-adv-x="1096" d="M1332 1102l95 481h160l-137 -481h-118zM1058 157l-7 -157h-852v1557h201v-1400h658z" />
<glyph unicode="&#x13e;" horiz-adv-x="708" d="M851 1097l95 481h160l-137 -481h-118zM452 -20q-92 0 -145.5 29t-82.5 109t-29 224v1220l196 16v-1192q0 -110 8 -163t28.5 -73t64.5 -20h71l13 -140q-70 -10 -124 -10z" />
<glyph unicode="&#x13f;" horiz-adv-x="1096" d="M543 691v202h171v-202h-171zM1058 157l-7 -157h-852v1557h201v-1400h658z" />
<glyph unicode="&#x140;" horiz-adv-x="1031" d="M735 572v202h171v-202h-171zM452 -20q-92 0 -145.5 29t-82.5 109t-29 224v1220l196 16v-1192q0 -110 8 -163t28.5 -73t64.5 -20h71l13 -140q-70 -10 -124 -10z" />
<glyph unicode="&#x141;" horiz-adv-x="1227" d="M276 771v753h180v-655l356 196v-159l-356 -191v-557h670l-13 -158h-837v617l-152 -79v150z" />
<glyph unicode="&#x142;" horiz-adv-x="828" d="M538 -21q-60 0 -103 9t-75 24.5t-53 47t-34 66t-20 92.5t-9 115t-2 144v107l-114 -89v148l114 88v788l171 20v-674l179 139v-149l-179 -138v-278q0 -55 0.5 -84t2.5 -67.5t6 -57t11 -41.5t17.5 -32.5t27 -19.5t36.5 -13.5t48 -3.5t141 10l16 -138q-123 -13 -181 -13z" />
<glyph unicode="&#x143;" horiz-adv-x="1663" d="M773 1766l190 395h258l-332 -395h-116zM1295 233l-6 389v935h175v-1557h-205l-891 1323l6 -393v-930h-175v1557h201z" />
<glyph unicode="&#x144;" horiz-adv-x="1248" d="M576 1324l190 395h258l-332 -395h-116zM165 0v1118h167l21 -160q122 183 365 183q386 0 386 -456v-685h-196v698q0 146 -52.5 222t-175.5 76q-173 0 -246 -100t-73 -284v-612h-196z" />
<glyph unicode="&#x145;" horiz-adv-x="1663" d="M699 -691l96 508h169l-145 -508h-120zM1295 233l-6 389v935h175v-1557h-205l-891 1323l6 -393v-930h-175v1557h201z" />
<glyph unicode="&#x146;" horiz-adv-x="1248" d="M502 -691l96 508h169l-145 -508h-120zM165 0v1118h167l21 -160q122 183 365 183q386 0 386 -456v-685h-196v698q0 146 -52.5 222t-175.5 76q-173 0 -246 -100t-73 -284v-612h-196z" />
<glyph unicode="&#x147;" horiz-adv-x="1663" d="M723 1766l-190 395h133l165 -317l164 317h136l-191 -395h-217zM1295 233l-6 389v935h175v-1557h-205l-891 1323l6 -393v-930h-175v1557h201z" />
<glyph unicode="&#x148;" horiz-adv-x="1248" d="M526 1324l-190 395h133l165 -317l164 317h136l-191 -395h-217zM165 0v1118h167l21 -160q122 183 365 183q386 0 386 -456v-685h-196v698q0 146 -52.5 222t-175.5 76q-173 0 -246 -100t-73 -284v-612h-196z" />
<glyph unicode="&#x14a;" horiz-adv-x="1447" d="M861 -334q-68 0 -204 14l-23 151q159 -9 181 -9q62 0 106 5.5t78 15t55 31t35 45t21 65.5t9 83.5t2 107.5v848q0 202 -65 281.5t-231 79.5q-156 0 -284.5 -77.5t-206.5 -196.5v-1110h-179l-3 1524h164l18 -216q127 138 260 189.5t285 51.5q207 0 313.5 -133.5 t106.5 -387.5v-860q0 -101 -10 -173.5t-38 -137.5t-76 -105t-126.5 -63t-187.5 -23z" />
<glyph unicode="&#x14b;" horiz-adv-x="1227" d="M731 -308h-71l-13 165h44q47 0 75.5 2.5t52 14t35.5 26t19.5 45.5t9.5 66.5t2 94.5v592q0 150 -45.5 224t-166.5 74q-241 0 -300 -228q-10 -71 -10 -156v-612h-196v1118h167l21 -160q122 183 356 183q191 0 280.5 -113.5t89.5 -342.5v-524q0 -101 -7.5 -169t-28.5 -129 t-60 -96.5t-101.5 -55t-152.5 -19.5z" />
<glyph unicode="&#x14c;" horiz-adv-x="1694" d="M508 1765v142h681v-142h-681zM848 134q132 0 235 50.5t167 139.5t96.5 205t32.5 252q0 188 -57.5 332t-179 229.5t-293.5 85.5q-130 0 -232.5 -48.5t-168 -136t-99 -205t-33.5 -257.5q0 -109 20 -205t62.5 -177t105 -140t150 -92t194.5 -33zM1579 781q0 -232 -84 -411.5 t-251.5 -284.5t-395.5 -105q-175 0 -314.5 59.5t-230.5 166t-139.5 253.5t-48.5 323q0 239 85.5 419t252 281t396.5 101q225 0 391.5 -101.5t252.5 -282.5t86 -418z" />
<glyph unicode="&#x14d;" horiz-adv-x="1274" d="M297 1324v142h681v-142h-681zM637.5 125q165.5 0 245.5 118.5t80 313.5q0 128 -32.5 223.5t-107 153.5t-186.5 58t-187 -58t-107.5 -153.5t-32.5 -223.5q0 -195 81 -313.5t246.5 -118.5zM637.5 -24q-236.5 0 -379.5 164t-143 419q0 261 139.5 421.5t382.5 160.5 t382.5 -160.5t139.5 -421.5q0 -255 -142.5 -419t-379 -164z" />
<glyph unicode="&#x14e;" horiz-adv-x="1694" d="M1103 2013q0 -123 -76.5 -185.5t-181.5 -62.5q-104 0 -179 62.5t-75 185.5h119q0 -69 38 -106t97.5 -37t99 37t39.5 106h119zM848 134q132 0 235 50.5t167 139.5t96.5 205t32.5 252q0 188 -57.5 332t-179 229.5t-293.5 85.5q-130 0 -232.5 -48.5t-168 -136t-99 -205 t-33.5 -257.5q0 -109 20 -205t62.5 -177t105 -140t150 -92t194.5 -33zM1579 781q0 -232 -84 -411.5t-251.5 -284.5t-395.5 -105q-175 0 -314.5 59.5t-230.5 166t-139.5 253.5t-48.5 323q0 239 85.5 419t252 281t396.5 101q225 0 391.5 -101.5t252.5 -282.5t86 -418z" />
<glyph unicode="&#x14f;" horiz-adv-x="1274" d="M893 1572q0 -123 -76.5 -185.5t-181.5 -62.5q-104 0 -179 62.5t-75 185.5h119q0 -69 38 -106t97.5 -37t99 37t39.5 106h119zM637.5 125q165.5 0 245.5 118.5t80 313.5q0 128 -32.5 223.5t-107 153.5t-186.5 58t-187 -58t-107.5 -153.5t-32.5 -223.5q0 -195 81 -313.5 t246.5 -118.5zM637.5 -24q-236.5 0 -379.5 164t-143 419q0 261 139.5 421.5t382.5 160.5t382.5 -160.5t139.5 -421.5q0 -255 -142.5 -419t-379 -164z" />
<glyph unicode="&#x150;" horiz-adv-x="1694" d="M915 1766l205 341h154l-255 -341h-104zM677 1766l203 341h155l-256 -341h-102zM848 134q132 0 235 50.5t167 139.5t96.5 205t32.5 252q0 188 -57.5 332t-179 229.5t-293.5 85.5q-130 0 -232.5 -48.5t-168 -136t-99 -205t-33.5 -257.5q0 -109 20 -205t62.5 -177t105 -140 t150 -92t194.5 -33zM1579 781q0 -232 -84 -411.5t-251.5 -284.5t-395.5 -105q-175 0 -314.5 59.5t-230.5 166t-139.5 253.5t-48.5 323q0 239 85.5 419t252 281t396.5 101q225 0 391.5 -101.5t252.5 -282.5t86 -418z" />
<glyph unicode="&#x151;" horiz-adv-x="1274" d="M704 1324l205 341h154l-255 -341h-104zM466 1324l203 341h155l-256 -341h-102zM637.5 125q165.5 0 245.5 118.5t80 313.5q0 128 -32.5 223.5t-107 153.5t-186.5 58t-187 -58t-107.5 -153.5t-32.5 -223.5q0 -195 81 -313.5t246.5 -118.5zM637.5 -24q-236.5 0 -379.5 164 t-143 419q0 261 139.5 421.5t382.5 160.5t382.5 -160.5t139.5 -421.5q0 -255 -142.5 -419t-379 -164z" />
<glyph unicode="&#x152;" horiz-adv-x="2089" d="M864 131q86 0 181.5 32t148.5 63v1058q-141 115 -339 115q-243 0 -386 -169.5t-149 -442.5q0 -141 30 -255t92 -205.5t169 -143t253 -52.5zM862 -24q-178 0 -318.5 59t-231 166t-138 255.5t-47.5 329.5q4 221 96 395.5t253 273t363 98.5q110 0 203 -30.5t152 -82.5v83 h739l-17 -157h-542v-505h505v-155h-505v-547h584l-16 -159h-748v84q-34 -37 -139.5 -72.5t-192.5 -35.5z" />
<glyph unicode="&#x153;" horiz-adv-x="2039" d="M1159 646h584v14q-4 169 -76 258t-198 89q-127 0 -211 -98t-99 -263zM640 115q87 0 154 36.5t106 100t58.5 140.5t19.5 166q0 93 -18.5 170.5t-57 141t-106.5 99.5t-159 36q-87 0 -153.5 -37.5t-106 -102.5t-59 -143.5t-19.5 -167.5q0 -87 19.5 -163.5t59 -139.5 t106.5 -99.5t156 -36.5zM637 -26q-163 0 -282 79.5t-176 210t-57 294t57.5 294.5t177 212.5t283.5 81.5q148 0 254.5 -63.5t168.5 -176.5q63 109 173.5 172t243.5 68q206 0 317 -144.5t111 -395.5q0 -8 -1 -37.5t-1 -39.5h-754q0 -186 97 -297t247 -111q108 0 188 31t155 81 l53 -124q-158 -135 -401 -135q-147 0 -257.5 63t-175.5 178q-63 -112 -170 -176.5t-251 -64.5z" />
<glyph unicode="&#x154;" horiz-adv-x="1519" d="M748 1766l190 395h258l-332 -395h-116zM199 0v1557h564q116 0 202.5 -10t160.5 -36.5t119.5 -70.5t71 -112.5t25.5 -162.5q0 -153 -59.5 -245t-215.5 -136q0 -2 17 -35.5t42.5 -86t40.5 -83.5l246 -579h-208l-207 520q-78 174 -110 224q-75 -6 -180 -6l-308 2v-740h-201z M802 895q102 0 169 16t104.5 51t53 82.5t15.5 118.5q0 124 -77 181.5t-274 57.5h-393v-507h402z" />
<glyph unicode="&#x155;" horiz-adv-x="823" d="M409 1324l190 395h258l-332 -395h-116zM165 1118h167l15 -201q57 95 147.5 153t190.5 58q52 0 84 -6l-6 -157q-41 8 -81 8q-143 0 -232 -99t-89 -246v-628h-196v1118z" />
<glyph unicode="&#x156;" horiz-adv-x="1519" d="M673 -691l96 508h169l-145 -508h-120zM199 0v1557h564q116 0 202.5 -10t160.5 -36.5t119.5 -70.5t71 -112.5t25.5 -162.5q0 -153 -59.5 -245t-215.5 -136q0 -2 17 -35.5t42.5 -86t40.5 -83.5l246 -579h-208l-207 520q-78 174 -110 224q-75 -6 -180 -6l-308 2v-740h-201z M802 895q102 0 169 16t104.5 51t53 82.5t15.5 118.5q0 124 -77 181.5t-274 57.5h-393v-507h402z" />
<glyph unicode="&#x157;" horiz-adv-x="823" d="M335 -691l96 508h169l-145 -508h-120zM165 1118h167l15 -201q57 95 147.5 153t190.5 58q52 0 84 -6l-6 -157q-41 8 -81 8q-143 0 -232 -99t-89 -246v-628h-196v1118z" />
<glyph unicode="&#x158;" horiz-adv-x="1519" d="M698 1766l-190 395h133l165 -317l164 317h136l-191 -395h-217zM199 0v1557h564q116 0 202.5 -10t160.5 -36.5t119.5 -70.5t71 -112.5t25.5 -162.5q0 -153 -59.5 -245t-215.5 -136q0 -2 17 -35.5t42.5 -86t40.5 -83.5l246 -579h-208l-207 520q-78 174 -110 224 q-75 -6 -180 -6l-308 2v-740h-201zM802 895q102 0 169 16t104.5 51t53 82.5t15.5 118.5q0 124 -77 181.5t-274 57.5h-393v-507h402z" />
<glyph unicode="&#x159;" horiz-adv-x="823" d="M358 1324l-190 395h133l165 -317l164 317h136l-191 -395h-217zM165 1118h167l15 -201q57 95 147.5 153t190.5 58q52 0 84 -6l-6 -157q-41 8 -81 8q-143 0 -232 -99t-89 -246v-628h-196v1118z" />
<glyph unicode="&#x15a;" horiz-adv-x="1376" d="M614 1766l190 395h258l-332 -395h-116zM679 -20q-169 0 -302 43t-220 100l61 144q224 -133 461 -133q155 0 245.5 72t90.5 207q0 102 -64.5 168.5t-207.5 117.5l-257 89q-154 50 -240.5 147t-86.5 242q0 108 42 188t117 126.5t168 69t205 22.5q124 0 238.5 -37t197.5 -92 l-62 -140q-187 114 -367 114q-75 0 -138.5 -13.5t-114 -41t-79.5 -75t-29 -109.5q0 -173 213 -239l243 -85q90 -28 156.5 -62.5t123 -85.5t86 -125.5t29.5 -170.5q0 -218 -139.5 -329.5t-369.5 -111.5z" />
<glyph unicode="&#x15b;" horiz-adv-x="1001" d="M451 1324l190 395h258l-332 -395h-116zM494 -24q-238 0 -356 78l36 134q147 -78 311 -78q118 0 181.5 45t63.5 129q0 74 -47.5 113t-202.5 95l-76 29q-145 54 -209 130t-65 183q0 134 101 220.5t283 86.5q178 0 333 -73l-43 -122q-145 61 -282 61q-103 0 -163 -46.5 t-60 -119.5q0 -64 40 -96t166 -81l72 -28q171 -67 241.5 -139.5t70.5 -195.5q-2 -155 -106 -240t-289 -85z" />
<glyph unicode="&#x15c;" horiz-adv-x="1376" d="M374 1766l190 395h217l191 -395h-136l-164 277l-165 -277h-133zM679 -20q-169 0 -302 43t-220 100l61 144q224 -133 461 -133q155 0 245.5 72t90.5 207q0 102 -64.5 168.5t-207.5 117.5l-257 89q-154 50 -240.5 147t-86.5 242q0 108 42 188t117 126.5t168 69t205 22.5 q124 0 238.5 -37t197.5 -92l-62 -140q-187 114 -367 114q-75 0 -138.5 -13.5t-114 -41t-79.5 -75t-29 -109.5q0 -173 213 -239l243 -85q90 -28 156.5 -62.5t123 -85.5t86 -125.5t29.5 -170.5q0 -218 -139.5 -329.5t-369.5 -111.5z" />
<glyph unicode="&#x15d;" horiz-adv-x="1001" d="M211 1324l190 395h217l191 -395h-136l-164 277l-165 -277h-133zM494 -24q-238 0 -356 78l36 134q147 -78 311 -78q118 0 181.5 45t63.5 129q0 74 -47.5 113t-202.5 95l-76 29q-145 54 -209 130t-65 183q0 134 101 220.5t283 86.5q178 0 333 -73l-43 -122q-145 61 -282 61 q-103 0 -163 -46.5t-60 -119.5q0 -64 40 -96t166 -81l72 -28q171 -67 241.5 -139.5t70.5 -195.5q-2 -155 -106 -240t-289 -85z" />
<glyph unicode="&#x15e;" horiz-adv-x="1376" d="M515 -440l115 435h87l-45 -435h-157zM679 -20q-169 0 -302 43t-220 100l61 144q224 -133 461 -133q155 0 245.5 72t90.5 207q0 102 -64.5 168.5t-207.5 117.5l-257 89q-154 50 -240.5 147t-86.5 242q0 108 42 188t117 126.5t168 69t205 22.5q124 0 238.5 -37t197.5 -92 l-62 -140q-187 114 -367 114q-75 0 -138.5 -13.5t-114 -41t-79.5 -75t-29 -109.5q0 -173 213 -239l243 -85q90 -28 156.5 -62.5t123 -85.5t86 -125.5t29.5 -170.5q0 -218 -139.5 -329.5t-369.5 -111.5z" />
<glyph unicode="&#x15f;" horiz-adv-x="1001" d="M351 -444l115 435h87l-45 -435h-157zM494 -24q-238 0 -356 78l36 134q147 -78 311 -78q118 0 181.5 45t63.5 129q0 74 -47.5 113t-202.5 95l-76 29q-145 54 -209 130t-65 183q0 134 101 220.5t283 86.5q178 0 333 -73l-43 -122q-145 61 -282 61q-103 0 -163 -46.5 t-60 -119.5q0 -64 40 -96t166 -81l72 -28q171 -67 241.5 -139.5t70.5 -195.5q-2 -155 -106 -240t-289 -85z" />
<glyph unicode="&#x160;" horiz-adv-x="1376" d="M564 1766l-190 395h133l165 -317l164 317h136l-191 -395h-217zM679 -20q-169 0 -302 43t-220 100l61 144q224 -133 461 -133q155 0 245.5 72t90.5 207q0 102 -64.5 168.5t-207.5 117.5l-257 89q-154 50 -240.5 147t-86.5 242q0 108 42 188t117 126.5t168 69t205 22.5 q124 0 238.5 -37t197.5 -92l-62 -140q-187 114 -367 114q-75 0 -138.5 -13.5t-114 -41t-79.5 -75t-29 -109.5q0 -173 213 -239l243 -85q90 -28 156.5 -62.5t123 -85.5t86 -125.5t29.5 -170.5q0 -218 -139.5 -329.5t-369.5 -111.5z" />
<glyph unicode="&#x161;" horiz-adv-x="1001" d="M401 1324l-190 395h133l165 -317l164 317h136l-191 -395h-217zM494 -24q-238 0 -356 78l36 134q147 -78 311 -78q118 0 181.5 45t63.5 129q0 74 -47.5 113t-202.5 95l-76 29q-145 54 -209 130t-65 183q0 134 101 220.5t283 86.5q178 0 333 -73l-43 -122q-145 61 -282 61 q-103 0 -163 -46.5t-60 -119.5q0 -64 40 -96t166 -81l72 -28q171 -67 241.5 -139.5t70.5 -195.5q-2 -155 -106 -240t-289 -85z" />
<glyph unicode="&#x164;" horiz-adv-x="1218" d="M500 1766l-190 395h133l165 -317l164 317h136l-191 -395h-217zM1175 1557v-156h-466v-1401h-201v1401h-464v156h1131z" />
<glyph unicode="&#x165;" horiz-adv-x="966" d="M1108 897l95 481h160l-137 -481h-118zM619 -20q-165 0 -248.5 96t-83.5 275v640h-166l7 113l158 14l58 256l139 4v-260h326v-127h-326v-640q0 -127 37.5 -175t131.5 -48q78 0 152 28l30 -141q-82 -35 -215 -35z" />
<glyph unicode="&#x166;" horiz-adv-x="1266" d="M542 666v700h-456v158h1093v-158h-457v-700h166v-125h-166v-541h-180v541h-172v125h172z" />
<glyph unicode="&#x167;" horiz-adv-x="912" d="M591 -20q-58 0 -101.5 9t-75 24.5t-53 46.5t-34 63.5t-19 88t-8.5 108t-2 134.5v197h-158v127h158v221h-170l13 120h157l45 253l126 9v-262h296v-120h-296v-221h213v-127h-213v-277q0 -158 30 -206t132 -48q7 0 24 1.5t49.5 4.5t64.5 5l16 -138q-153 -13 -194 -13z" />
<glyph unicode="&#x168;" horiz-adv-x="1486" d="M426 1765q0 112 45 167.5t129 55.5q56 0 132 -23.5t123 -48.5l47 -23q19 1 29.5 18.5t12.5 32t5 44.5h112q0 -223 -153 -223q-40 0 -119.5 24.5t-138.5 49.5l-60 25q-24 -2 -39 -28.5t-17 -70.5h-108zM743 -20q-296 0 -445.5 156t-149.5 418v1003h198v-1006 q0 -208 96.5 -312.5t300.5 -104.5q397 0 397 417v1006h198v-1005q0 -126 -36 -230t-108 -181t-186.5 -119t-264.5 -42z" />
<glyph unicode="&#x169;" horiz-adv-x="1258" d="M307 1324q0 112 45 167.5t129 55.5q56 0 132 -23.5t123 -48.5l47 -23q19 1 29.5 18.5t12.5 32t5 44.5h112q0 -223 -153 -223q-40 0 -119.5 24.5t-138.5 49.5l-60 25q-24 -2 -39 -28.5t-17 -70.5h-108zM1094 1118v-1118h-166l-21 160q-43 -93 -141 -138.5t-226 -45.5 q-385 0 -385 457v685h194v-698q0 -148 50.5 -223t173.5 -75q325 0 325 384v612h196z" />
<glyph unicode="&#x16a;" horiz-adv-x="1486" d="M402 1765v142h681v-142h-681zM743 -20q-296 0 -445.5 156t-149.5 418v1003h198v-1006q0 -208 96.5 -312.5t300.5 -104.5q397 0 397 417v1006h198v-1005q0 -126 -36 -230t-108 -181t-186.5 -119t-264.5 -42z" />
<glyph unicode="&#x16b;" horiz-adv-x="1258" d="M284 1324v142h681v-142h-681zM1094 1118v-1118h-166l-21 160q-43 -93 -141 -138.5t-226 -45.5q-385 0 -385 457v685h194v-698q0 -148 50.5 -223t173.5 -75q325 0 325 384v612h196z" />
<glyph unicode="&#x16c;" horiz-adv-x="1486" d="M999 2013q0 -123 -76.5 -185.5t-181.5 -62.5q-104 0 -179 62.5t-75 185.5h119q0 -69 38 -106t97.5 -37t99 37t39.5 106h119zM743 -20q-296 0 -445.5 156t-149.5 418v1003h198v-1006q0 -208 96.5 -312.5t300.5 -104.5q397 0 397 417v1006h198v-1005q0 -126 -36 -230 t-108 -181t-186.5 -119t-264.5 -42z" />
<glyph unicode="&#x16d;" horiz-adv-x="1258" d="M881 1572q0 -123 -76.5 -185.5t-181.5 -62.5q-104 0 -179 62.5t-75 185.5h119q0 -69 38 -106t97.5 -37t99 37t39.5 106h119zM1094 1118v-1118h-166l-21 160q-43 -93 -141 -138.5t-226 -45.5q-385 0 -385 457v685h194v-698q0 -148 50.5 -223t173.5 -75q325 0 325 384v612 h196z" />
<glyph unicode="&#x16e;" horiz-adv-x="1486" d="M745 1765q-83 0 -141.5 51.5t-58.5 136.5q0 88 58.5 144.5t139.5 56.5t139.5 -58.5t58.5 -142.5q0 -85 -58 -136.5t-138 -51.5zM743 1839q39 0 68.5 33.5t29.5 80.5q0 49 -28.5 83.5t-69.5 34.5q-39 0 -70 -35.5t-31 -82.5q0 -51 27 -82.5t74 -31.5zM743 -20 q-296 0 -445.5 156t-149.5 418v1003h198v-1006q0 -208 96.5 -312.5t300.5 -104.5q397 0 397 417v1006h198v-1005q0 -126 -36 -230t-108 -181t-186.5 -119t-264.5 -42z" />
<glyph unicode="&#x16f;" horiz-adv-x="1258" d="M626 1324q-83 0 -141.5 51.5t-58.5 136.5q0 88 58.5 144.5t139.5 56.5t139.5 -58.5t58.5 -142.5q0 -85 -58 -136.5t-138 -51.5zM624 1398q39 0 68.5 33.5t29.5 80.5q0 49 -28.5 83.5t-69.5 34.5q-39 0 -70 -35.5t-31 -82.5q0 -51 27 -82.5t74 -31.5zM1094 1118v-1118 h-166l-21 160q-43 -93 -141 -138.5t-226 -45.5q-385 0 -385 457v685h194v-698q0 -148 50.5 -223t173.5 -75q325 0 325 384v612h196z" />
<glyph unicode="&#x170;" horiz-adv-x="1486" d="M810 1766l205 341h154l-255 -341h-104zM572 1766l203 341h155l-256 -341h-102zM743 -20q-296 0 -445.5 156t-149.5 418v1003h198v-1006q0 -208 96.5 -312.5t300.5 -104.5q397 0 397 417v1006h198v-1005q0 -126 -36 -230t-108 -181t-186.5 -119t-264.5 -42z" />
<glyph unicode="&#x171;" horiz-adv-x="1258" d="M692 1324l205 341h154l-255 -341h-104zM454 1324l203 341h155l-256 -341h-102zM1094 1118v-1118h-166l-21 160q-43 -93 -141 -138.5t-226 -45.5q-385 0 -385 457v685h194v-698q0 -148 50.5 -223t173.5 -75q325 0 325 384v612h196z" />
<glyph unicode="&#x172;" horiz-adv-x="1486" d="M687 -438q-86 0 -141.5 47.5t-55.5 131.5q0 139 195 254h116q-183 -136 -183 -224q0 -38 28 -64.5t61 -26.5q58 0 140 33v-118q-76 -33 -160 -33zM743 -20q-296 0 -445.5 156t-149.5 418v1003h198v-1006q0 -208 96.5 -312.5t300.5 -104.5q397 0 397 417v1006h198v-1005 q0 -126 -36 -230t-108 -181t-186.5 -119t-264.5 -42z" />
<glyph unicode="&#x173;" horiz-adv-x="1258" d="M940 -426q-86 0 -141.5 47.5t-55.5 131.5q0 139 195 254h116q-183 -136 -183 -224q0 -38 28 -64.5t61 -26.5q58 0 140 33v-118q-76 -33 -160 -33zM1094 1118v-1118h-166l-21 160q-43 -93 -141 -138.5t-226 -45.5q-385 0 -385 457v685h194v-698q0 -148 50.5 -223 t173.5 -75q325 0 325 384v612h196z" />
<glyph unicode="&#x174;" horiz-adv-x="2242" d="M822 1766l190 395h217l191 -395h-136l-164 277l-165 -277h-133zM1020 1529h204l370 -1281l376 1309h198l-464 -1557h-208l-366 1299l-391 -1299h-204l-461 1557h199l369 -1308z" />
<glyph unicode="&#x175;" horiz-adv-x="1677" d="M540 1324l190 395h217l191 -395h-136l-164 277l-165 -277h-133zM57 1118h183l233 -905l266 905h205l276 -902l221 902h180l-308 -1118h-178l-293 958l-283 -958h-187z" />
<glyph unicode="&#x176;" horiz-adv-x="1322" d="M363 1766l190 395h217l191 -395h-136l-164 277l-165 -277h-133zM676 810l434 747h199l-532 -911v-646h-199v642l-565 915h200z" />
<glyph unicode="&#x177;" horiz-adv-x="1170" d="M289 1324l190 395h217l191 -395h-136l-164 277l-165 -277h-133zM116 -461l-6 146q8 -2 74.5 -8t87.5 -6q86 0 139 38.5t89 151.5q6 20 16 64t17 77l7 35l-491 1081h211l371 -895l284 895h211q-445 -1260 -460 -1298q-63 -168 -146.5 -234t-223.5 -66q-26 0 -94.5 7 t-85.5 12z" />
<glyph unicode="&#x178;" horiz-adv-x="1322" d="M781 1765v216h158v-216h-158zM384 1765v216h158v-216h-158zM676 810l434 747h199l-532 -911v-646h-199v642l-565 915h200z" />
<glyph unicode="&#x179;" horiz-adv-x="1332" d="M608 1766l190 395h258l-332 -395h-116zM167 1557h1021v-132l-826 -1270h834l-7 -155h-1052v139l822 1263h-792v155z" />
<glyph unicode="&#x17a;" horiz-adv-x="988" d="M444 1324l190 395h258l-332 -395h-116zM130 1118h747v-140l-570 -844h589v-134h-790v131l581 852h-557v135z" />
<glyph unicode="&#x17b;" horiz-adv-x="1332" d="M582 1765v201h171v-201h-171zM167 1557h1021v-132l-826 -1270h834l-7 -155h-1052v139l822 1263h-792v155z" />
<glyph unicode="&#x17c;" horiz-adv-x="988" d="M416 1324v201h171v-201h-171zM130 1118h747v-140l-570 -844h589v-134h-790v131l581 852h-557v135z" />
<glyph unicode="&#x17d;" horiz-adv-x="1332" d="M558 1766l-190 395h133l165 -317l164 317h136l-191 -395h-217zM167 1557h1021v-132l-826 -1270h834l-7 -155h-1052v139l822 1263h-792v155z" />
<glyph unicode="&#x17e;" horiz-adv-x="988" d="M392 1324l-190 395h133l165 -317l164 317h136l-191 -395h-217zM130 1118h747v-140l-570 -844h589v-134h-790v131l581 852h-557v135z" />
<glyph unicode="&#x18f;" horiz-adv-x="1565" d="M766 131q130 0 232.5 69t161.5 183t75 260h-925q5 -74 17.5 -138t44.5 -135.5t80 -122t129 -83.5t185 -33zM763 -24q-132 0 -240.5 41t-178.5 108t-119 156.5t-71.5 181t-26.5 190.5l6 139h1110q-2 97 -21.5 184t-62 165.5t-105 135t-155.5 89.5t-207 33 q-190 0 -381 -124l-68 135q102 75 207.5 110t256.5 35q174 0 315 -62t230.5 -169t136.5 -248t47 -304q0 -228 -84 -408.5t-238 -284t-351 -103.5z" />
<glyph unicode="&#x192;" horiz-adv-x="1062" d="M152 -365q-27 0 -93 20l12 149q44 -18 70 -18q59 0 93.5 58.5t55.5 161.5q38 165 94.5 495.5t65.5 379.5h-161l11 154h177l23 166q53 376 329 376q50 0 130 -22l-8 -159q-54 24 -98 24q-76 0 -109.5 -41t-46.5 -128l-40 -216h190l-11 -154h-201l-135 -749 q-15 -75 -28 -128.5t-32.5 -115.5t-45.5 -104t-59.5 -77.5t-80 -53.5t-102.5 -18z" />
<glyph unicode="&#x1a0;" horiz-adv-x="1687" d="M1727 1231q-42 0 -94 6v96q8 0 24.5 -1t25.5 -1q77 0 77 102q0 70 -30 150h119q32 -78 32 -154q0 -85 -40 -141.5t-114 -56.5zM848 134q132 0 235 50.5t167 139.5t96.5 205t32.5 252q0 188 -57.5 332t-179 229.5t-293.5 85.5q-130 0 -232.5 -48.5t-168 -136t-99 -205 t-33.5 -257.5q0 -109 20 -205t62.5 -177t105 -140t150 -92t194.5 -33zM1579 781q0 -232 -84 -411.5t-251.5 -284.5t-395.5 -105q-175 0 -314.5 59.5t-230.5 166t-139.5 253.5t-48.5 323q0 239 85.5 419t252 281t396.5 101q225 0 391.5 -101.5t252.5 -282.5t86 -418z M1726 1231q-42 0 -94 6v96q8 0 24.5 -1t25.5 -1q77 0 77 102q0 70 -30 150h119q32 -78 32 -154q0 -85 -40 -141.5t-114 -56.5zM848 134q132 0 235 50.5t167 139.5t96.5 205t32.5 252q0 188 -57.5 332t-179 229.5t-293.5 85.5q-130 0 -232.5 -48.5t-168 -136t-99 -205 t-33.5 -257.5q0 -109 20 -205t62.5 -177t105 -140t150 -92t194.5 -33zM1579 781q0 -232 -84 -411.5t-251.5 -284.5t-395.5 -105q-175 0 -314.5 59.5t-230.5 166t-139.5 253.5t-48.5 323q0 239 85.5 419t252 281t396.5 101q225 0 391.5 -101.5t252.5 -282.5t86 -418z M1725 1231q-42 0 -94 6v96q8 0 24.5 -1t25.5 -1q77 0 77 102q0 70 -30 150h119q32 -78 32 -154q0 -85 -40 -141.5t-114 -56.5zM848 134q132 0 235 50.5t167 139.5t96.5 205t32.5 252q0 188 -57.5 332t-179 229.5t-293.5 85.5q-130 0 -232.5 -48.5t-168 -136t-99 -205 t-33.5 -257.5q0 -109 20 -205t62.5 -177t105 -140t150 -92t194.5 -33zM1579 781q0 -232 -84 -411.5t-251.5 -284.5t-395.5 -105q-175 0 -314.5 59.5t-230.5 166t-139.5 253.5t-48.5 323q0 239 85.5 419t252 281t396.5 101q225 0 391.5 -101.5t252.5 -282.5t86 -418z M1726 1231q-42 0 -94 6v96q8 0 24.5 -1t25.5 -1q77 0 77 102q0 70 -30 150h119q32 -78 32 -154q0 -85 -40 -141.5t-114 -56.5zM848 134q132 0 235 50.5t167 139.5t96.5 205t32.5 252q0 188 -57.5 332t-179 229.5t-293.5 85.5q-130 0 -232.5 -48.5t-168 -136t-99 -205 t-33.5 -257.5q0 -109 20 -205t62.5 -177t105 -140t150 -92t194.5 -33zM1579 781q0 -232 -84 -411.5t-251.5 -284.5t-395.5 -105q-175 0 -314.5 59.5t-230.5 166t-139.5 253.5t-48.5 323q0 239 85.5 419t252 281t396.5 101q225 0 391.5 -101.5t252.5 -282.5t86 -418z M1727 1231q-42 0 -94 6v96q8 0 24.5 -1t25.5 -1q77 0 77 102q0 70 -30 150h119q32 -78 32 -154q0 -85 -40 -141.5t-114 -56.5zM848 134q132 0 235 50.5t167 139.5t96.5 205t32.5 252q0 188 -57.5 332t-179 229.5t-293.5 85.5q-130 0 -232.5 -48.5t-168 -136t-99 -205 t-33.5 -257.5q0 -109 20 -205t62.5 -177t105 -140t150 -92t194.5 -33zM1579 781q0 -232 -84 -411.5t-251.5 -284.5t-395.5 -105q-175 0 -314.5 59.5t-230.5 166t-139.5 253.5t-48.5 323q0 239 85.5 419t252 281t396.5 101q225 0 391.5 -101.5t252.5 -282.5t86 -418z M1728 1231q-42 0 -94 6v96q8 0 24.5 -1t25.5 -1q77 0 77 102q0 70 -30 150h119q32 -78 32 -154q0 -85 -40 -141.5t-114 -56.5zM848 134q132 0 235 50.5t167 139.5t96.5 205t32.5 252q0 188 -57.5 332t-179 229.5t-293.5 85.5q-130 0 -232.5 -48.5t-168 -136t-99 -205 t-33.5 -257.5q0 -109 20 -205t62.5 -177t105 -140t150 -92t194.5 -33zM1579 781q0 -232 -84 -411.5t-251.5 -284.5t-395.5 -105q-175 0 -314.5 59.5t-230.5 166t-139.5 253.5t-48.5 323q0 239 85.5 419t252 281t396.5 101q225 0 391.5 -101.5t252.5 -282.5t86 -418z M1729 1231q-42 0 -94 6v96q8 0 24.5 -1t25.5 -1q77 0 77 102q0 70 -30 150h119q32 -78 32 -154q0 -85 -40 -141.5t-114 -56.5zM848 134q132 0 235 50.5t167 139.5t96.5 205t32.5 252q0 188 -57.5 332t-179 229.5t-293.5 85.5q-130 0 -232.5 -48.5t-168 -136t-99 -205 t-33.5 -257.5q0 -109 20 -205t62.5 -177t105 -140t150 -92t194.5 -33zM1579 781q0 -232 -84 -411.5t-251.5 -284.5t-395.5 -105q-175 0 -314.5 59.5t-230.5 166t-139.5 253.5t-48.5 323q0 239 85.5 419t252 281t396.5 101q225 0 391.5 -101.5t252.5 -282.5t86 -418z M1731 1231q-42 0 -94 6v96q8 0 24.5 -1t25.5 -1q77 0 77 102q0 70 -30 150h119q32 -78 32 -154q0 -85 -40 -141.5t-114 -56.5zM848 134q132 0 235 50.5t167 139.5t96.5 205t32.5 252q0 188 -57.5 332t-179 229.5t-293.5 85.5q-130 0 -232.5 -48.5t-168 -136t-99 -205 t-33.5 -257.5q0 -109 20 -205t62.5 -177t105 -140t150 -92t194.5 -33zM1579 781q0 -232 -84 -411.5t-251.5 -284.5t-395.5 -105q-175 0 -314.5 59.5t-230.5 166t-139.5 253.5t-48.5 323q0 239 85.5 419t252 281t396.5 101q225 0 391.5 -101.5t252.5 -282.5t86 -418z M1732 1231q-42 0 -94 6v96q8 0 24.5 -1t25.5 -1q77 0 77 102q0 70 -30 150h119q32 -78 32 -154q0 -85 -40 -141.5t-114 -56.5zM848 134q132 0 235 50.5t167 139.5t96.5 205t32.5 252q0 188 -57.5 332t-179 229.5t-293.5 85.5q-130 0 -232.5 -48.5t-168 -136t-99 -205 t-33.5 -257.5q0 -109 20 -205t62.5 -177t105 -140t150 -92t194.5 -33zM1579 781q0 -232 -84 -411.5t-251.5 -284.5t-395.5 -105q-175 0 -314.5 59.5t-230.5 166t-139.5 253.5t-48.5 323q0 239 85.5 419t252 281t396.5 101q225 0 391.5 -101.5t252.5 -282.5t86 -418z M1733 1231q-42 0 -94 6v96q8 0 24.5 -1t25.5 -1q77 0 77 102q0 70 -30 150h119q32 -78 32 -154q0 -85 -40 -141.5t-114 -56.5zM848 134q132 0 235 50.5t167 139.5t96.5 205t32.5 252q0 188 -57.5 332t-179 229.5t-293.5 85.5q-130 0 -232.5 -48.5t-168 -136t-99 -205 t-33.5 -257.5q0 -109 20 -205t62.5 -177t105 -140t150 -92t194.5 -33zM1579 781q0 -232 -84 -411.5t-251.5 -284.5t-395.5 -105q-175 0 -314.5 59.5t-230.5 166t-139.5 253.5t-48.5 323q0 239 85.5 419t252 281t396.5 101q225 0 391.5 -101.5t252.5 -282.5t86 -418z M1722 1231q-42 0 -94 6v96q8 0 24.5 -1t25.5 -1q77 0 77 102q0 70 -30 150h119q32 -78 32 -154q0 -85 -40 -141.5t-114 -56.5zM848 134q132 0 235 50.5t167 139.5t96.5 205t32.5 252q0 188 -57.5 332t-179 229.5t-293.5 85.5q-130 0 -232.5 -48.5t-168 -136t-99 -205 t-33.5 -257.5q0 -109 20 -205t62.5 -177t105 -140t150 -92t194.5 -33zM1579 781q0 -232 -84 -411.5t-251.5 -284.5t-395.5 -105q-175 0 -314.5 59.5t-230.5 166t-139.5 253.5t-48.5 323q0 239 85.5 419t252 281t396.5 101q225 0 391.5 -101.5t252.5 -282.5t86 -418z M1710 1231q-42 0 -94 6v96q8 0 24.5 -1t25.5 -1q77 0 77 102q0 70 -30 150h119q32 -78 32 -154q0 -85 -40 -141.5t-114 -56.5zM848 134q132 0 235 50.5t167 139.5t96.5 205t32.5 252q0 188 -57.5 332t-179 229.5t-293.5 85.5q-130 0 -232.5 -48.5t-168 -136t-99 -205 t-33.5 -257.5q0 -109 20 -205t62.5 -177t105 -140t150 -92t194.5 -33zM1579 781q0 -232 -84 -411.5t-251.5 -284.5t-395.5 -105q-175 0 -314.5 59.5t-230.5 166t-139.5 253.5t-48.5 323q0 239 85.5 419t252 281t396.5 101q225 0 391.5 -101.5t252.5 -282.5t86 -418z M1727 1231q-42 0 -94 6v96q8 0 24.5 -1t25.5 -1q77 0 77 102q0 70 -30 150h119q32 -78 32 -154q0 -85 -40 -141.5t-114 -56.5zM848 134q132 0 235 50.5t167 139.5t96.5 205t32.5 252q0 188 -57.5 332t-179 229.5t-293.5 85.5q-130 0 -232.5 -48.5t-168 -136t-99 -205 t-33.5 -257.5q0 -109 20 -205t62.5 -177t105 -140t150 -92t194.5 -33zM1579 781q0 -232 -84 -411.5t-251.5 -284.5t-395.5 -105q-175 0 -314.5 59.5t-230.5 166t-139.5 253.5t-48.5 323q0 239 85.5 419t252 281t396.5 101q225 0 391.5 -101.5t252.5 -282.5t86 -418z" />
<glyph unicode="&#x1a1;" horiz-adv-x="1274" d="M1322 790q-42 0 -94 6v96q8 0 24.5 -1t25.5 -1q77 0 77 102q0 70 -30 150h119q32 -78 32 -154q0 -85 -40 -141.5t-114 -56.5zM637.5 125q165.5 0 245.5 118.5t80 313.5q0 128 -32.5 223.5t-107 153.5t-186.5 58t-187 -58t-107.5 -153.5t-32.5 -223.5q0 -195 81 -313.5 t246.5 -118.5zM637.5 -24q-236.5 0 -379.5 164t-143 419q0 261 139.5 421.5t382.5 160.5t382.5 -160.5t139.5 -421.5q0 -255 -142.5 -419t-379 -164zM1322 790q-42 0 -94 6v96q8 0 24.5 -1t25.5 -1q77 0 77 102q0 70 -30 150h119q32 -78 32 -154q0 -85 -40 -141.5 t-114 -56.5zM637.5 125q165.5 0 245.5 118.5t80 313.5q0 128 -32.5 223.5t-107 153.5t-186.5 58t-187 -58t-107.5 -153.5t-32.5 -223.5q0 -195 81 -313.5t246.5 -118.5zM637.5 -24q-236.5 0 -379.5 164t-143 419q0 261 139.5 421.5t382.5 160.5t382.5 -160.5t139.5 -421.5 q0 -255 -142.5 -419t-379 -164z" />
<glyph unicode="&#x1af;" horiz-adv-x="1486" d="M1523 1231q-42 0 -94 6v96q8 0 24.5 -1t25.5 -1q77 0 77 102q0 70 -30 150h119q32 -78 32 -154q0 -85 -40 -141.5t-114 -56.5zM743 -20q-296 0 -445.5 156t-149.5 418v1003h198v-1006q0 -208 96.5 -312.5t300.5 -104.5q397 0 397 417v1006h198v-1005q0 -126 -36 -230 t-108 -181t-186.5 -119t-264.5 -42z" />
<glyph unicode="&#x1b0;" horiz-adv-x="1258" d="M1185 790q-42 0 -94 6v96q8 0 24.5 -1t25.5 -1q77 0 77 102q0 70 -30 150h119q32 -78 32 -154q0 -85 -40 -141.5t-114 -56.5zM1094 1118v-1118h-166l-21 160q-43 -93 -141 -138.5t-226 -45.5q-385 0 -385 457v685h194v-698q0 -148 50.5 -223t173.5 -75q325 0 325 384v612 h196z" />
<glyph unicode="&#x1c4;" horiz-adv-x="2869" d="M2130 1766l-190 395h133l165 -317l164 317h136l-191 -395h-217zM1739 1557h1021v-132l-826 -1270h834l-7 -155h-1052v139l822 1263h-792v155zM199 0v1557h426q190 0 343.5 -48.5t264.5 -142.5t171 -243t60 -341q0 -372 -214.5 -577t-593.5 -205h-457zM399 1402v-1249h252 q299 0 456 162.5t157 461.5q0 625 -644 625h-221z" />
<glyph unicode="&#x1c5;" horiz-adv-x="2477" d="M1964 1324l-190 395h133l165 -317l164 317h136l-191 -395h-217zM1702 1118h747v-140l-570 -844h589v-134h-790v131l581 852h-557v135zM199 0v1557h426q190 0 343.5 -48.5t264.5 -142.5t171 -243t60 -341q0 -372 -214.5 -577t-593.5 -205h-457zM399 1402v-1249h252 q299 0 456 162.5t157 461.5q0 625 -644 625h-221z" />
<glyph unicode="&#x1c6;" horiz-adv-x="2209" d="M1697 1324l-190 395h133l165 -317l164 317h136l-191 -395h-217zM1435 1118h747v-140l-570 -844h589v-134h-790v131l581 852h-557v135zM636 121q327 0 327 419q0 227 -75.5 342.5t-250.5 115.5q-158 0 -242.5 -117.5t-84.5 -321.5q0 -203 83.5 -320.5t242.5 -117.5z M606 -24q-230 0 -360.5 162.5t-130.5 425.5q0 256 136.5 416.5t353.5 160.5q110 0 208.5 -48t154.5 -128q-5 74 -5 214v383l196 16v-1578h-177l-19 183q-45 -98 -142 -152.5t-215 -54.5z" />
<glyph unicode="&#x1c7;" horiz-adv-x="1822" d="M1200 -215l-16 165q56 0 99 7t72 17t48.5 30.5t29.5 37.5t15 49t6.5 54.5t1.5 62.5v1369h199v-1332q0 -85 -5.5 -143t-23 -114t-48.5 -91t-81 -62t-123.5 -38.5t-173.5 -11.5zM1058 157l-7 -157h-852v1557h201v-1400h658z" />
<glyph unicode="&#x1c8;" horiz-adv-x="1649" d="M1150 -446l-23 158h54q56 0 89.5 8.5t50.5 28.5t22 43.5t5 65.5l-1 1260h196v-1194q0 -108 -14 -174.5t-52 -112.5t-103 -64.5t-170 -18.5h-54zM1347 1323v201h196v-201h-196zM1058 157l-7 -157h-852v1557h201v-1400h658z" />
<glyph unicode="&#x1c9;" horiz-adv-x="1168" d="M669 -446l-23 158h54q56 0 89.5 8.5t50.5 28.5t22 43.5t5 65.5l-1 1260h196v-1194q0 -108 -14 -174.5t-52 -112.5t-103 -64.5t-170 -18.5h-54zM866 1323v201h196v-201h-196zM452 -20q-92 0 -145.5 29t-82.5 109t-29 224v1220l196 16v-1192q0 -110 8 -163t28.5 -73 t64.5 -20h71l13 -140q-70 -10 -124 -10z" />
<glyph unicode="&#x1ca;" horiz-adv-x="2375" d="M1754 -215l-16 165q56 0 99 7t72 17t48.5 30.5t29.5 37.5t15 49t6.5 54.5t1.5 62.5v1369h199v-1332q0 -85 -5.5 -143t-23 -114t-48.5 -91t-81 -62t-123.5 -38.5t-173.5 -11.5zM1295 233l-6 389v935h175v-1557h-205l-891 1323l6 -393v-930h-175v1557h201z" />
<glyph unicode="&#x1cb;" horiz-adv-x="2203" d="M1704 -446l-23 158h54q56 0 89.5 8.5t50.5 28.5t22 43.5t5 65.5l-1 1260h196v-1194q0 -108 -14 -174.5t-52 -112.5t-103 -64.5t-170 -18.5h-54zM1901 1323v201h196v-201h-196zM1295 233l-6 389v935h175v-1557h-205l-891 1323l6 -393v-930h-175v1557h201z" />
<glyph unicode="&#x1cc;" horiz-adv-x="1775" d="M1276 -446l-23 158h54q56 0 89.5 8.5t50.5 28.5t22 43.5t5 65.5l-1 1260h196v-1194q0 -108 -14 -174.5t-52 -112.5t-103 -64.5t-170 -18.5h-54zM1473 1323v201h196v-201h-196zM165 0v1118h167l21 -160q122 183 365 183q386 0 386 -456v-685h-196v698q0 146 -52.5 222 t-175.5 76q-173 0 -246 -100t-73 -284v-612h-196z" />
<glyph unicode="&#x1cd;" horiz-adv-x="1436" d="M609 1766l-190 395h133l165 -317l164 317h136l-191 -395h-217zM41 0l565 1557h226l564 -1557h-189l-178 482h-609l-179 -482h-200zM477 628h497l-256 742z" />
<glyph unicode="&#x1ce;" horiz-adv-x="1224" d="M490 1324l-190 395h133l165 -317l164 317h136l-191 -395h-217zM516 114q107 0 212 49t131 118v268q-104 -10 -130 -14q-224 -27 -308 -76.5t-84 -165.5q0 -87 52 -133t127 -46zM491 -24q-154 0 -251.5 84t-97.5 235q0 172 133.5 255.5t387.5 102.5l196 16v98 q0 116 -59 170.5t-180 54.5q-82 0 -185 -22t-181 -61q-14 36 -52 138q72 41 189 67.5t225 26.5q215 0 327 -93t112 -308v-740h-158l-30 125q-49 -72 -153 -110.5t-223 -38.5z" />
<glyph unicode="&#x1cf;" horiz-adv-x="623" d="M210 1766l-190 395h133l165 -317l164 317h136l-191 -395h-217zM220 0v1557h200v-1557h-200z" />
<glyph unicode="&#x1d0;" horiz-adv-x="462" d="M123 1324l-190 395h133l165 -317l164 317h136l-191 -395h-217zM146 0v1119h172v-1119h-172z" />
<glyph unicode="&#x1d1;" horiz-adv-x="1694" d="M739 1766l-190 395h133l165 -317l164 317h136l-191 -395h-217zM848 134q132 0 235 50.5t167 139.5t96.5 205t32.5 252q0 188 -57.5 332t-179 229.5t-293.5 85.5q-130 0 -232.5 -48.5t-168 -136t-99 -205t-33.5 -257.5q0 -109 20 -205t62.5 -177t105 -140t150 -92 t194.5 -33zM1579 781q0 -232 -84 -411.5t-251.5 -284.5t-395.5 -105q-175 0 -314.5 59.5t-230.5 166t-139.5 253.5t-48.5 323q0 239 85.5 419t252 281t396.5 101q225 0 391.5 -101.5t252.5 -282.5t86 -418z" />
<glyph unicode="&#x1d2;" horiz-adv-x="1274" d="M528 1324l-190 395h133l165 -317l164 317h136l-191 -395h-217zM637.5 125q165.5 0 245.5 118.5t80 313.5q0 128 -32.5 223.5t-107 153.5t-186.5 58t-187 -58t-107.5 -153.5t-32.5 -223.5q0 -195 81 -313.5t246.5 -118.5zM637.5 -24q-236.5 0 -379.5 164t-143 419 q0 261 139.5 421.5t382.5 160.5t382.5 -160.5t139.5 -421.5q0 -255 -142.5 -419t-379 -164z" />
<glyph unicode="&#x1d3;" horiz-adv-x="1486" d="M634 1766l-190 395h133l165 -317l164 317h136l-191 -395h-217zM743 -20q-296 0 -445.5 156t-149.5 418v1003h198v-1006q0 -208 96.5 -312.5t300.5 -104.5q397 0 397 417v1006h198v-1005q0 -126 -36 -230t-108 -181t-186.5 -119t-264.5 -42z" />
<glyph unicode="&#x1d4;" horiz-adv-x="1258" d="M515 1324l-190 395h133l165 -317l164 317h136l-191 -395h-217zM1094 1118v-1118h-166l-21 160q-43 -93 -141 -138.5t-226 -45.5q-385 0 -385 457v685h194v-698q0 -148 50.5 -223t173.5 -75q325 0 325 384v612h196z" />
<glyph unicode="&#x1d5;" horiz-adv-x="1486" d="M402 2164v142h681v-142h-681zM862 1765v216h158v-216h-158zM465 1765v216h158v-216h-158zM743 -20q-296 0 -445.5 156t-149.5 418v1003h198v-1006q0 -208 96.5 -312.5t300.5 -104.5q397 0 397 417v1006h198v-1005q0 -126 -36 -230t-108 -181t-186.5 -119t-264.5 -42z" />
<glyph unicode="&#x1d6;" horiz-adv-x="1258" d="M284 1722v142h681v-142h-681zM743 1324v216h158v-216h-158zM346 1324v216h158v-216h-158zM1094 1118v-1118h-166l-21 160q-43 -93 -141 -138.5t-226 -45.5q-385 0 -385 457v685h194v-698q0 -148 50.5 -223t173.5 -75q325 0 325 384v612h196z" />
<glyph unicode="&#x1d7;" horiz-adv-x="1486" d="M686 2164l190 395h258l-332 -395h-116zM862 1765v216h158v-216h-158zM465 1765v216h158v-216h-158zM743 -20q-296 0 -445.5 156t-149.5 418v1003h198v-1006q0 -208 96.5 -312.5t300.5 -104.5q397 0 397 417v1006h198v-1005q0 -126 -36 -230t-108 -181t-186.5 -119 t-264.5 -42z" />
<glyph unicode="&#x1d8;" horiz-adv-x="1258" d="M567 1723l190 395h258l-332 -395h-116zM743 1324v216h158v-216h-158zM346 1324v216h158v-216h-158zM1094 1118v-1118h-166l-21 160q-43 -93 -141 -138.5t-226 -45.5q-385 0 -385 457v685h194v-698q0 -148 50.5 -223t173.5 -75q325 0 325 384v612h196z" />
<glyph unicode="&#x1d9;" horiz-adv-x="1486" d="M634 2164l-190 395h133l165 -317l164 317h136l-191 -395h-217zM862 1765v216h158v-216h-158zM465 1765v216h158v-216h-158zM743 -20q-296 0 -445.5 156t-149.5 418v1003h198v-1006q0 -208 96.5 -312.5t300.5 -104.5q397 0 397 417v1006h198v-1005q0 -126 -36 -230 t-108 -181t-186.5 -119t-264.5 -42z" />
<glyph unicode="&#x1da;" horiz-adv-x="1258" d="M515 1723l-190 395h133l165 -317l164 317h136l-191 -395h-217zM743 1324v216h158v-216h-158zM346 1324v216h158v-216h-158zM1094 1118v-1118h-166l-21 160q-43 -93 -141 -138.5t-226 -45.5q-385 0 -385 457v685h194v-698q0 -148 50.5 -223t173.5 -75q325 0 325 384v612 h196z" />
<glyph unicode="&#x1db;" horiz-adv-x="1486" d="M687 2164l-330 395h256l188 -395h-114zM862 1765v216h158v-216h-158zM465 1765v216h158v-216h-158zM743 -20q-296 0 -445.5 156t-149.5 418v1003h198v-1006q0 -208 96.5 -312.5t300.5 -104.5q397 0 397 417v1006h198v-1005q0 -126 -36 -230t-108 -181t-186.5 -119 t-264.5 -42z" />
<glyph unicode="&#x1dc;" horiz-adv-x="1258" d="M568 1723l-330 395h256l188 -395h-114zM743 1324v216h158v-216h-158zM346 1324v216h158v-216h-158zM1094 1118v-1118h-166l-21 160q-43 -93 -141 -138.5t-226 -45.5q-385 0 -385 457v685h194v-698q0 -148 50.5 -223t173.5 -75q325 0 325 384v612h196z" />
<glyph unicode="&#x1de;" horiz-adv-x="1436" d="M378 2164v142h681v-142h-681zM837 1765v216h158v-216h-158zM440 1765v216h158v-216h-158zM41 0l565 1557h226l564 -1557h-189l-178 482h-609l-179 -482h-200zM477 628h497l-256 742z" />
<glyph unicode="&#x1df;" horiz-adv-x="1224" d="M259 1722v142h681v-142h-681zM719 1324v216h158v-216h-158zM322 1324v216h158v-216h-158zM516 114q107 0 212 49t131 118v268q-104 -10 -130 -14q-224 -27 -308 -76.5t-84 -165.5q0 -87 52 -133t127 -46zM491 -24q-154 0 -251.5 84t-97.5 235q0 172 133.5 255.5 t387.5 102.5l196 16v98q0 116 -59 170.5t-180 54.5q-82 0 -185 -22t-181 -61q-14 36 -52 138q72 41 189 67.5t225 26.5q215 0 327 -93t112 -308v-740h-158l-30 125q-49 -72 -153 -110.5t-223 -38.5z" />
<glyph unicode="&#x1e2;" horiz-adv-x="2148" d="M711 1781v142h681v-142h-681zM1159 600l-63 836l-496 -836h559zM1272 1436l40 -537h642v-161h-622l43 -577h635v-161h-797l-31 436h-667l-245 -436h-176l933 1598h963v-162h-718z" />
<glyph unicode="&#x1e3;" horiz-adv-x="1777" d="M546 1328v142h681v-142h-681zM950 627l526 29v10q-2 174 -54.5 255t-164.5 81q-146 0 -222 -103.5t-85 -271.5zM469 115q33 0 67.5 5t85 19t70.5 20.5t85.5 29t69.5 23.5q-70 126 -78 296q-44 -2 -65 -4q-161 -12 -250.5 -38.5t-122.5 -65.5t-33 -103q0 -182 171 -182z M457 -27q-146 0 -238 80t-92 253q0 56 16.5 101t43.5 76.5t72 55t89.5 38t109.5 25t119.5 14.5t130.5 9l65 3v168q0 104 -44.5 151.5t-149.5 47.5q-100 0 -197.5 -23.5t-165.5 -59.5l-37 140q66 38 176.5 66t219.5 28q126 0 213.5 -50t109.5 -146q54 96 150.5 146t211.5 50 q101 0 176.5 -37.5t118.5 -102t64.5 -142.5t21.5 -167q0 -53 -13 -82t-55 -48t-123 -23l-506 -25q14 -191 88.5 -294.5t229.5 -103.5q90 0 178 33.5t152 78.5l52 -123q-157 -136 -393 -136q-206 0 -334 140q-97 -59 -222 -100t-238 -41z" />
<glyph unicode="&#x1e6;" horiz-adv-x="1596" d="M662 1766l-190 395h133l165 -317l164 317h136l-191 -395h-217zM860 -20q-188 0 -332.5 60.5t-233.5 169t-134 251.5t-45 314q0 174 47 319t140.5 255t245 172t348.5 62q142 0 272.5 -30t222.5 -89l-56 -137q-193 101 -439 101q-123 0 -221.5 -33.5t-164.5 -93t-111 -143 t-64.5 -178.5t-19.5 -205q0 -142 32.5 -257t98.5 -201.5t174 -134.5t251 -48q93 0 200.5 9t154.5 22v483h-368l9 154h559v-736q-224 -86 -566 -86z" />
<glyph unicode="&#x1e7;" horiz-adv-x="1324" d="M528 1324l-190 395h133l165 -317l164 317h136l-191 -395h-217zM587 -476q-131 0 -288 39l12 144q118 -33 261 -33q209 0 300 91.5t91 316.5v132q-40 -102 -128.5 -158t-218.5 -56q-120 0 -217.5 47.5t-158 126.5t-93 177.5t-32.5 204.5q0 120 31.5 225t92 186 t158.5 127.5t222 46.5q221 0 349 -172l13 149h178v-952q0 -119 -15 -212t-54 -176t-103 -137t-165 -85.5t-235 -31.5zM631 146q87 0 152.5 30.5t104 85t57 120.5t18.5 144v82q0 111 -32.5 196t-108.5 139.5t-187 54.5q-87 0 -152.5 -40t-101.5 -105.5t-53.5 -138 t-17.5 -150.5q0 -59 11 -116.5t35.5 -113t61 -97t91 -66.5t122.5 -25z" />
<glyph unicode="&#x1e8;" horiz-adv-x="1382" d="M674 1766l-190 395h133l165 -317l164 317h136l-191 -395h-217zM1063 1556h251l-639 -701l691 -855h-234l-608 756l-125 -120v-636h-200v1556h200v-714z" />
<glyph unicode="&#x1e9;" horiz-adv-x="1171" d="M548 1761l-190 395h133l165 -317l164 317h136l-191 -395h-217zM172 1562l196 16v-1005l524 545h240l-499 -522l507 -596h-219l-428 500l-125 -108v-392h-196v1562z" />
<glyph unicode="&#x1ea;" horiz-adv-x="1694" d="M792 -438q-86 0 -141.5 47.5t-55.5 131.5q0 139 195 254h116q-183 -136 -183 -224q0 -38 28 -64.5t61 -26.5q58 0 140 33v-118q-76 -33 -160 -33zM848 134q132 0 235 50.5t167 139.5t96.5 205t32.5 252q0 188 -57.5 332t-179 229.5t-293.5 85.5q-130 0 -232.5 -48.5 t-168 -136t-99 -205t-33.5 -257.5q0 -109 20 -205t62.5 -177t105 -140t150 -92t194.5 -33zM1579 781q0 -232 -84 -411.5t-251.5 -284.5t-395.5 -105q-175 0 -314.5 59.5t-230.5 166t-139.5 253.5t-48.5 323q0 239 85.5 419t252 281t396.5 101q225 0 391.5 -101.5 t252.5 -282.5t86 -418z" />
<glyph unicode="&#x1eb;" horiz-adv-x="1274" d="M581 -442q-86 0 -141.5 47.5t-55.5 131.5q0 139 195 254h116q-183 -136 -183 -224q0 -38 28 -64.5t61 -26.5q58 0 140 33v-118q-76 -33 -160 -33zM637.5 125q165.5 0 245.5 118.5t80 313.5q0 128 -32.5 223.5t-107 153.5t-186.5 58t-187 -58t-107.5 -153.5t-32.5 -223.5 q0 -195 81 -313.5t246.5 -118.5zM637.5 -24q-236.5 0 -379.5 164t-143 419q0 261 139.5 421.5t382.5 160.5t382.5 -160.5t139.5 -421.5q0 -255 -142.5 -419t-379 -164z" />
<glyph unicode="&#x1ec;" horiz-adv-x="1694" d="M508 1765v142h681v-142h-681zM792 -438q-86 0 -141.5 47.5t-55.5 131.5q0 139 195 254h116q-183 -136 -183 -224q0 -38 28 -64.5t61 -26.5q58 0 140 33v-118q-76 -33 -160 -33zM848 134q132 0 235 50.5t167 139.5t96.5 205t32.5 252q0 188 -57.5 332t-179 229.5 t-293.5 85.5q-130 0 -232.5 -48.5t-168 -136t-99 -205t-33.5 -257.5q0 -109 20 -205t62.5 -177t105 -140t150 -92t194.5 -33zM1579 781q0 -232 -84 -411.5t-251.5 -284.5t-395.5 -105q-175 0 -314.5 59.5t-230.5 166t-139.5 253.5t-48.5 323q0 239 85.5 419t252 281 t396.5 101q225 0 391.5 -101.5t252.5 -282.5t86 -418z" />
<glyph unicode="&#x1ed;" horiz-adv-x="1274" d="M297 1324v142h681v-142h-681zM581 -442q-86 0 -141.5 47.5t-55.5 131.5q0 139 195 254h116q-183 -136 -183 -224q0 -38 28 -64.5t61 -26.5q58 0 140 33v-118q-76 -33 -160 -33zM637.5 125q165.5 0 245.5 118.5t80 313.5q0 128 -32.5 223.5t-107 153.5t-186.5 58t-187 -58 t-107.5 -153.5t-32.5 -223.5q0 -195 81 -313.5t246.5 -118.5zM637.5 -24q-236.5 0 -379.5 164t-143 419q0 261 139.5 421.5t382.5 160.5t382.5 -160.5t139.5 -421.5q0 -255 -142.5 -419t-379 -164z" />
<glyph unicode="&#x1f0;" horiz-adv-x="467" d="M18 1324l-190 395h133l165 -317l164 317h136l-191 -395h-217zM-59 -446l-23 158h54q57 0 90 7.5t50 27.5t21.5 44.5t4.5 71.5v79v1176h196v-1194q0 -108 -14 -174.5t-52 -112.5t-103 -64.5t-171 -18.5h-53z" />
<glyph unicode="&#x1f1;" horiz-adv-x="2869" d="M1739 1557h1021v-132l-826 -1270h834l-7 -155h-1052v139l822 1263h-792v155zM199 0v1557h426q190 0 343.5 -48.5t264.5 -142.5t171 -243t60 -341q0 -372 -214.5 -577t-593.5 -205h-457zM399 1402v-1249h252q299 0 456 162.5t157 461.5q0 625 -644 625h-221z" />
<glyph unicode="&#x1f2;" horiz-adv-x="2477" d="M1702 1118h747v-140l-570 -844h589v-134h-790v131l581 852h-557v135zM199 0v1557h426q190 0 343.5 -48.5t264.5 -142.5t171 -243t60 -341q0 -372 -214.5 -577t-593.5 -205h-457zM399 1402v-1249h252q299 0 456 162.5t157 461.5q0 625 -644 625h-221z" />
<glyph unicode="&#x1f3;" horiz-adv-x="2209" d="M1435 1118h747v-140l-570 -844h589v-134h-790v131l581 852h-557v135zM636 121q327 0 327 419q0 227 -75.5 342.5t-250.5 115.5q-158 0 -242.5 -117.5t-84.5 -321.5q0 -203 83.5 -320.5t242.5 -117.5zM606 -24q-230 0 -360.5 162.5t-130.5 425.5q0 256 136.5 416.5 t353.5 160.5q110 0 208.5 -48t154.5 -128q-5 74 -5 214v383l196 16v-1578h-177l-19 183q-45 -98 -142 -152.5t-215 -54.5z" />
<glyph unicode="&#x1f4;" horiz-adv-x="1596" d="M712 1766l190 395h258l-332 -395h-116zM860 -20q-188 0 -332.5 60.5t-233.5 169t-134 251.5t-45 314q0 174 47 319t140.5 255t245 172t348.5 62q142 0 272.5 -30t222.5 -89l-56 -137q-193 101 -439 101q-123 0 -221.5 -33.5t-164.5 -93t-111 -143t-64.5 -178.5 t-19.5 -205q0 -142 32.5 -257t98.5 -201.5t174 -134.5t251 -48q93 0 200.5 9t154.5 22v483h-368l9 154h559v-736q-224 -86 -566 -86z" />
<glyph unicode="&#x1f5;" horiz-adv-x="1324" d="M579 1324l190 395h258l-332 -395h-116zM587 -476q-131 0 -288 39l12 144q118 -33 261 -33q209 0 300 91.5t91 316.5v132q-40 -102 -128.5 -158t-218.5 -56q-120 0 -217.5 47.5t-158 126.5t-93 177.5t-32.5 204.5q0 120 31.5 225t92 186t158.5 127.5t222 46.5 q221 0 349 -172l13 149h178v-952q0 -119 -15 -212t-54 -176t-103 -137t-165 -85.5t-235 -31.5zM631 146q87 0 152.5 30.5t104 85t57 120.5t18.5 144v82q0 111 -32.5 196t-108.5 139.5t-187 54.5q-87 0 -152.5 -40t-101.5 -105.5t-53.5 -138t-17.5 -150.5q0 -59 11 -116.5 t35.5 -113t61 -97t91 -66.5t122.5 -25z" />
<glyph unicode="&#x1f8;" horiz-adv-x="1663" d="M774 1766l-330 395h256l188 -395h-114zM1295 233l-6 389v935h175v-1557h-205l-891 1323l6 -393v-930h-175v1557h201z" />
<glyph unicode="&#x1f9;" horiz-adv-x="1248" d="M577 1324l-330 395h256l188 -395h-114zM165 0v1118h167l21 -160q122 183 365 183q386 0 386 -456v-685h-196v698q0 146 -52.5 222t-175.5 76q-173 0 -246 -100t-73 -284v-612h-196z" />
<glyph unicode="&#x1fa;" horiz-adv-x="1436" d="M661 2141l190 395h258l-332 -395h-116zM720 1647q-83 0 -141.5 51.5t-58.5 136.5q0 88 58.5 144.5t139.5 56.5t139.5 -58.5t58.5 -142.5q0 -85 -58 -136.5t-138 -51.5zM718 1721q39 0 68.5 33.5t29.5 80.5q0 49 -28.5 83.5t-69.5 34.5q-39 0 -70 -35.5t-31 -82.5 q0 -51 27 -82.5t74 -31.5zM41 0l565 1557h226l564 -1557h-189l-178 482h-609l-179 -482h-200zM477 628h497l-256 742z" />
<glyph unicode="&#x1fb;" horiz-adv-x="1224" d="M540 1895l190 395h258l-332 -395h-116zM601 1324q-83 0 -141.5 51.5t-58.5 136.5q0 88 58.5 144.5t139.5 56.5t139.5 -58.5t58.5 -142.5q0 -85 -58 -136.5t-138 -51.5zM599 1398q39 0 68.5 33.5t29.5 80.5q0 49 -28.5 83.5t-69.5 34.5q-39 0 -70 -35.5t-31 -82.5 q0 -51 27 -82.5t74 -31.5zM516 114q107 0 212 49t131 118v268q-104 -10 -130 -14q-224 -27 -308 -76.5t-84 -165.5q0 -87 52 -133t127 -46zM491 -24q-154 0 -251.5 84t-97.5 235q0 172 133.5 255.5t387.5 102.5l196 16v98q0 116 -59 170.5t-180 54.5q-82 0 -185 -22 t-181 -61q-14 36 -52 138q72 41 189 67.5t225 26.5q215 0 327 -93t112 -308v-740h-158l-30 125q-49 -72 -153 -110.5t-223 -38.5z" />
<glyph unicode="&#x1fc;" horiz-adv-x="2148" d="M995 1781l190 395h258l-332 -395h-116zM1159 600l-63 836l-496 -836h559zM1272 1436l40 -537h642v-161h-622l43 -577h635v-161h-797l-31 436h-667l-245 -436h-176l933 1598h963v-162h-718z" />
<glyph unicode="&#x1fd;" horiz-adv-x="1777" d="M827 1329l190 395h258l-332 -395h-116zM950 627l526 29v10q-2 174 -54.5 255t-164.5 81q-146 0 -222 -103.5t-85 -271.5zM469 115q33 0 67.5 5t85 19t70.5 20.5t85.5 29t69.5 23.5q-70 126 -78 296q-44 -2 -65 -4q-161 -12 -250.5 -38.5t-122.5 -65.5t-33 -103 q0 -182 171 -182zM457 -27q-146 0 -238 80t-92 253q0 56 16.5 101t43.5 76.5t72 55t89.5 38t109.5 25t119.5 14.5t130.5 9l65 3v168q0 104 -44.5 151.5t-149.5 47.5q-100 0 -197.5 -23.5t-165.5 -59.5l-37 140q66 38 176.5 66t219.5 28q126 0 213.5 -50t109.5 -146 q54 96 150.5 146t211.5 50q101 0 176.5 -37.5t118.5 -102t64.5 -142.5t21.5 -167q0 -53 -13 -82t-55 -48t-123 -23l-506 -25q14 -191 88.5 -294.5t229.5 -103.5q90 0 178 33.5t152 78.5l52 -123q-157 -136 -393 -136q-206 0 -334 140q-97 -59 -222 -100t-238 -41z" />
<glyph unicode="&#x1fe;" horiz-adv-x="1747" d="M814 1962l190 395h258l-332 -395h-116zM872 155q136 0 242 49t172.5 137t100.5 204.5t34 254.5q0 180 -60.5 323t-177.5 224l-476 -1171q74 -21 165 -21zM582 232l475 1177q-83 27 -185 27q-134 0 -240.5 -49.5t-173 -136t-101 -201.5t-34.5 -249q0 -193 66 -341.5 t193 -226.5zM560 -184l-128 44l79 194q-186 94 -284 287.5t-98 451.5q0 380 196.5 601.5t546.5 221.5q137 0 255 -36l79 199l134 -47l-84 -207q174 -97 267 -285t93 -447q0 -179 -48 -328.5t-139.5 -259t-233.5 -170.5t-323 -61q-124 0 -236 32z" />
<glyph unicode="&#x1ff;" horiz-adv-x="1296" d="M587 1576l190 395h258l-332 -395h-116zM652 115q87 0 154.5 36.5t106 100t58 140.5t19.5 166q0 267 -137 381l-338 -798q61 -26 137 -26zM444 186l337 795q-57 24 -131 24q-116 0 -197 -66.5t-117.5 -166t-36.5 -218.5q0 -114 36.5 -211.5t108.5 -156.5zM335 -280l-72 38 l120 283q-125 72 -193 209.5t-68 307.5q0 121 36 227.5t102 187t167.5 127t224.5 46.5q98 0 186 -30l117 277l79 -31l-120 -281q123 -72 188 -209.5t65 -311.5q0 -94 -21.5 -180.5t-65 -160t-104 -128.5t-145 -86t-181.5 -31q-105 0 -192 33z" />
<glyph unicode="&#x200;" horiz-adv-x="1436" d="M803 1766l-252 341h154l202 -341h-104zM529 1766l-254 341h152l207 -341h-105zM41 0l565 1557h226l564 -1557h-189l-178 482h-609l-179 -482h-200zM477 628h497l-256 742z" />
<glyph unicode="&#x201;" horiz-adv-x="1224" d="M684 1324l-252 341h154l202 -341h-104zM410 1324l-254 341h152l207 -341h-105zM516 114q107 0 212 49t131 118v268q-104 -10 -130 -14q-224 -27 -308 -76.5t-84 -165.5q0 -87 52 -133t127 -46zM491 -24q-154 0 -251.5 84t-97.5 235q0 172 133.5 255.5t387.5 102.5l196 16 v98q0 116 -59 170.5t-180 54.5q-82 0 -185 -22t-181 -61q-14 36 -52 138q72 41 189 67.5t225 26.5q215 0 327 -93t112 -308v-740h-158l-30 125q-49 -72 -153 -110.5t-223 -38.5z" />
<glyph unicode="&#x202;" horiz-adv-x="1436" d="M580 1765h-118q0 124 76 193.5t178 69.5q103 0 180 -69.5t77 -193.5h-119q0 69 -39.5 106t-99 37t-97.5 -37t-38 -106zM41 0l565 1557h226l564 -1557h-189l-178 482h-609l-179 -482h-200zM477 628h497l-256 742z" />
<glyph unicode="&#x203;" horiz-adv-x="1224" d="M461 1324h-118q0 124 76 193.5t178 69.5q103 0 180 -69.5t77 -193.5h-119q0 69 -39.5 106t-99 37t-97.5 -37t-38 -106zM516 114q107 0 212 49t131 118v268q-104 -10 -130 -14q-224 -27 -308 -76.5t-84 -165.5q0 -87 52 -133t127 -46zM491 -24q-154 0 -251.5 84t-97.5 235 q0 172 133.5 255.5t387.5 102.5l196 16v98q0 116 -59 170.5t-180 54.5q-82 0 -185 -22t-181 -61q-14 36 -52 138q72 41 189 67.5t225 26.5q215 0 327 -93t112 -308v-740h-158l-30 125q-49 -72 -153 -110.5t-223 -38.5z" />
<glyph unicode="&#x204;" horiz-adv-x="1247" d="M743 1766l-252 341h154l202 -341h-104zM469 1766l-254 341h152l207 -341h-105zM399 1401v-506h649v-154h-649v-585h717l-9 -156h-908v1557h917l-8 -156h-709z" />
<glyph unicode="&#x205;" horiz-adv-x="1240" d="M682 1324l-252 341h154l202 -341h-104zM408 1324l-254 341h152l207 -341h-105zM669 -24q-247 0 -400.5 157t-153.5 423q0 255 154 420t378 165q213 0 330.5 -141.5t117.5 -380.5l-6 -94h-781q3 -187 113 -293.5t276 -106.5q164 0 347 96l27 -148q-159 -97 -402 -97z M312 652h600q-5 170 -66 256.5t-193 86.5q-134 0 -230.5 -93.5t-110.5 -249.5z" />
<glyph unicode="&#x206;" horiz-adv-x="1247" d="M520 1765h-118q0 124 76 193.5t178 69.5q103 0 180 -69.5t77 -193.5h-119q0 69 -39.5 106t-99 37t-97.5 -37t-38 -106zM399 1401v-506h649v-154h-649v-585h717l-9 -156h-908v1557h917l-8 -156h-709z" />
<glyph unicode="&#x207;" horiz-adv-x="1240" d="M459 1324h-118q0 124 76 193.5t178 69.5q103 0 180 -69.5t77 -193.5h-119q0 69 -39.5 106t-99 37t-97.5 -37t-38 -106zM669 -24q-247 0 -400.5 157t-153.5 423q0 255 154 420t378 165q213 0 330.5 -141.5t117.5 -380.5l-6 -94h-781q3 -187 113 -293.5t276 -106.5 q164 0 347 96l27 -148q-159 -97 -402 -97zM312 652h600q-5 170 -66 256.5t-193 86.5q-134 0 -230.5 -93.5t-110.5 -249.5z" />
<glyph unicode="&#x208;" horiz-adv-x="623" d="M405 1766l-252 341h154l202 -341h-104zM131 1766l-254 341h152l207 -341h-105zM220 0v1557h200v-1557h-200z" />
<glyph unicode="&#x209;" horiz-adv-x="462" d="M317 1324l-252 341h154l202 -341h-104zM43 1324l-254 341h152l207 -341h-105zM146 0v1119h172v-1119h-172z" />
<glyph unicode="&#x20a;" horiz-adv-x="623" d="M181 1765h-118q0 124 76 193.5t178 69.5q103 0 180 -69.5t77 -193.5h-119q0 69 -39.5 106t-99 37t-97.5 -37t-38 -106zM220 0v1557h200v-1557h-200z" />
<glyph unicode="&#x20b;" horiz-adv-x="462" d="M94 1324h-118q0 124 76 193.5t178 69.5q103 0 180 -69.5t77 -193.5h-119q0 69 -39.5 106t-99 37t-97.5 -37t-38 -106zM146 0v1119h172v-1119h-172z" />
<glyph unicode="&#x20c;" horiz-adv-x="1694" d="M932 1766l-252 341h154l202 -341h-104zM658 1766l-254 341h152l207 -341h-105zM848 134q132 0 235 50.5t167 139.5t96.5 205t32.5 252q0 188 -57.5 332t-179 229.5t-293.5 85.5q-130 0 -232.5 -48.5t-168 -136t-99 -205t-33.5 -257.5q0 -109 20 -205t62.5 -177t105 -140 t150 -92t194.5 -33zM1579 781q0 -232 -84 -411.5t-251.5 -284.5t-395.5 -105q-175 0 -314.5 59.5t-230.5 166t-139.5 253.5t-48.5 323q0 239 85.5 419t252 281t396.5 101q225 0 391.5 -101.5t252.5 -282.5t86 -418z" />
<glyph unicode="&#x20d;" horiz-adv-x="1274" d="M723 1324l-252 341h154l202 -341h-104zM449 1324l-254 341h152l207 -341h-105zM637.5 125q165.5 0 245.5 118.5t80 313.5q0 128 -32.5 223.5t-107 153.5t-186.5 58t-187 -58t-107.5 -153.5t-32.5 -223.5q0 -195 81 -313.5t246.5 -118.5zM637.5 -24q-236.5 0 -379.5 164 t-143 419q0 261 139.5 421.5t382.5 160.5t382.5 -160.5t139.5 -421.5q0 -255 -142.5 -419t-379 -164z" />
<glyph unicode="&#x20e;" horiz-adv-x="1694" d="M710 1765h-118q0 124 76 193.5t178 69.5q103 0 180 -69.5t77 -193.5h-119q0 69 -39.5 106t-99 37t-97.5 -37t-38 -106zM848 134q132 0 235 50.5t167 139.5t96.5 205t32.5 252q0 188 -57.5 332t-179 229.5t-293.5 85.5q-130 0 -232.5 -48.5t-168 -136t-99 -205 t-33.5 -257.5q0 -109 20 -205t62.5 -177t105 -140t150 -92t194.5 -33zM1579 781q0 -232 -84 -411.5t-251.5 -284.5t-395.5 -105q-175 0 -314.5 59.5t-230.5 166t-139.5 253.5t-48.5 323q0 239 85.5 419t252 281t396.5 101q225 0 391.5 -101.5t252.5 -282.5t86 -418z" />
<glyph unicode="&#x20f;" horiz-adv-x="1274" d="M500 1324h-118q0 124 76 193.5t178 69.5q103 0 180 -69.5t77 -193.5h-119q0 69 -39.5 106t-99 37t-97.5 -37t-38 -106zM637.5 125q165.5 0 245.5 118.5t80 313.5q0 128 -32.5 223.5t-107 153.5t-186.5 58t-187 -58t-107.5 -153.5t-32.5 -223.5q0 -195 81 -313.5 t246.5 -118.5zM637.5 -24q-236.5 0 -379.5 164t-143 419q0 261 139.5 421.5t382.5 160.5t382.5 -160.5t139.5 -421.5q0 -255 -142.5 -419t-379 -164z" />
<glyph unicode="&#x210;" horiz-adv-x="1519" d="M891 1766l-252 341h154l202 -341h-104zM617 1766l-254 341h152l207 -341h-105zM199 0v1557h564q116 0 202.5 -10t160.5 -36.5t119.5 -70.5t71 -112.5t25.5 -162.5q0 -153 -59.5 -245t-215.5 -136q0 -2 17 -35.5t42.5 -86t40.5 -83.5l246 -579h-208l-207 520 q-78 174 -110 224q-75 -6 -180 -6l-308 2v-740h-201zM802 895q102 0 169 16t104.5 51t53 82.5t15.5 118.5q0 124 -77 181.5t-274 57.5h-393v-507h402z" />
<glyph unicode="&#x211;" horiz-adv-x="823" d="M553 1324l-252 341h154l202 -341h-104zM279 1324l-254 341h152l207 -341h-105zM165 1118h167l15 -201q57 95 147.5 153t190.5 58q52 0 84 -6l-6 -157q-41 8 -81 8q-143 0 -232 -99t-89 -246v-628h-196v1118z" />
<glyph unicode="&#x212;" horiz-adv-x="1519" d="M669 1765h-118q0 124 76 193.5t178 69.5q103 0 180 -69.5t77 -193.5h-119q0 69 -39.5 106t-99 37t-97.5 -37t-38 -106zM199 0v1557h564q116 0 202.5 -10t160.5 -36.5t119.5 -70.5t71 -112.5t25.5 -162.5q0 -153 -59.5 -245t-215.5 -136q0 -2 17 -35.5t42.5 -86 t40.5 -83.5l246 -579h-208l-207 520q-78 174 -110 224q-75 -6 -180 -6l-308 2v-740h-201zM802 895q102 0 169 16t104.5 51t53 82.5t15.5 118.5q0 124 -77 181.5t-274 57.5h-393v-507h402z" />
<glyph unicode="&#x213;" horiz-adv-x="823" d="M329 1324h-118q0 124 76 193.5t178 69.5q103 0 180 -69.5t77 -193.5h-119q0 69 -39.5 106t-99 37t-97.5 -37t-38 -106zM165 1118h167l15 -201q57 95 147.5 153t190.5 58q52 0 84 -6l-6 -157q-41 8 -81 8q-143 0 -232 -99t-89 -246v-628h-196v1118z" />
<glyph unicode="&#x214;" horiz-adv-x="1486" d="M828 1766l-252 341h154l202 -341h-104zM554 1766l-254 341h152l207 -341h-105zM743 -20q-296 0 -445.5 156t-149.5 418v1003h198v-1006q0 -208 96.5 -312.5t300.5 -104.5q397 0 397 417v1006h198v-1005q0 -126 -36 -230t-108 -181t-186.5 -119t-264.5 -42z" />
<glyph unicode="&#x215;" horiz-adv-x="1258" d="M709 1324l-252 341h154l202 -341h-104zM435 1324l-254 341h152l207 -341h-105zM1094 1118v-1118h-166l-21 160q-43 -93 -141 -138.5t-226 -45.5q-385 0 -385 457v685h194v-698q0 -148 50.5 -223t173.5 -75q325 0 325 384v612h196z" />
<glyph unicode="&#x216;" horiz-adv-x="1486" d="M605 1765h-118q0 124 76 193.5t178 69.5q103 0 180 -69.5t77 -193.5h-119q0 69 -39.5 106t-99 37t-97.5 -37t-38 -106zM743 -20q-296 0 -445.5 156t-149.5 418v1003h198v-1006q0 -208 96.5 -312.5t300.5 -104.5q397 0 397 417v1006h198v-1005q0 -126 -36 -230t-108 -181 t-186.5 -119t-264.5 -42z" />
<glyph unicode="&#x217;" horiz-adv-x="1258" d="M486 1324h-118q0 124 76 193.5t178 69.5q103 0 180 -69.5t77 -193.5h-119q0 69 -39.5 106t-99 37t-97.5 -37t-38 -106zM1094 1118v-1118h-166l-21 160q-43 -93 -141 -138.5t-226 -45.5q-385 0 -385 457v685h194v-698q0 -148 50.5 -223t173.5 -75q325 0 325 384v612h196z " />
<glyph unicode="&#x218;" horiz-adv-x="1376" d="M540 -711l96 508h169l-145 -508h-120zM679 -20q-169 0 -302 43t-220 100l61 144q224 -133 461 -133q155 0 245.5 72t90.5 207q0 102 -64.5 168.5t-207.5 117.5l-257 89q-154 50 -240.5 147t-86.5 242q0 108 42 188t117 126.5t168 69t205 22.5q124 0 238.5 -37t197.5 -92 l-62 -140q-187 114 -367 114q-75 0 -138.5 -13.5t-114 -41t-79.5 -75t-29 -109.5q0 -173 213 -239l243 -85q90 -28 156.5 -62.5t123 -85.5t86 -125.5t29.5 -170.5q0 -218 -139.5 -329.5t-369.5 -111.5z" />
<glyph unicode="&#x219;" horiz-adv-x="1001" d="M378 -714l96 508h169l-145 -508h-120zM494 -24q-238 0 -356 78l36 134q147 -78 311 -78q118 0 181.5 45t63.5 129q0 74 -47.5 113t-202.5 95l-76 29q-145 54 -209 130t-65 183q0 134 101 220.5t283 86.5q178 0 333 -73l-43 -122q-145 61 -282 61q-103 0 -163 -46.5 t-60 -119.5q0 -64 40 -96t166 -81l72 -28q171 -67 241.5 -139.5t70.5 -195.5q-2 -155 -106 -240t-289 -85z" />
<glyph unicode="&#x21a;" horiz-adv-x="1218" d="M476 -691l96 508h169l-145 -508h-120zM1175 1557v-156h-466v-1401h-201v1401h-464v156h1131z" />
<glyph unicode="&#x21b;" horiz-adv-x="966" d="M345 -711l96 508h169l-145 -508h-120zM619 -20q-165 0 -248.5 96t-83.5 275v640h-166l7 113l158 14l58 256l139 4v-260h326v-127h-326v-640q0 -127 37.5 -175t131.5 -48q78 0 152 28l30 -141q-82 -35 -215 -35z" />
<glyph unicode="&#x21e;" horiz-adv-x="1607" d="M694 1766l-190 395h133l165 -317l164 317h136l-191 -395h-217zM399 858h809v699h200v-1557h-200v710h-809v-710h-200v1557h200v-699z" />
<glyph unicode="&#x21f;" horiz-adv-x="1225" d="M515 1761l-190 395h133l165 -317l164 317h136l-191 -395h-217zM167 1562l196 16v-610q48 83 137.5 128t206.5 45q191 0 282.5 -114t91.5 -342v-685h-196v698q0 150 -45.5 224t-166.5 74q-171 0 -240.5 -98.5t-69.5 -285.5v-612h-196v1562z" />
<glyph unicode="&#x226;" horiz-adv-x="1436" d="M633 1765v201h171v-201h-171zM41 0l565 1557h226l564 -1557h-189l-178 482h-609l-179 -482h-200zM477 628h497l-256 742z" />
<glyph unicode="&#x227;" horiz-adv-x="1224" d="M513 1324v201h171v-201h-171zM516 114q107 0 212 49t131 118v268q-104 -10 -130 -14q-224 -27 -308 -76.5t-84 -165.5q0 -87 52 -133t127 -46zM491 -24q-154 0 -251.5 84t-97.5 235q0 172 133.5 255.5t387.5 102.5l196 16v98q0 116 -59 170.5t-180 54.5q-82 0 -185 -22 t-181 -61q-14 36 -52 138q72 41 189 67.5t225 26.5q215 0 327 -93t112 -308v-740h-158l-30 125q-49 -72 -153 -110.5t-223 -38.5z" />
<glyph unicode="&#x228;" horiz-adv-x="1247" d="M499 -420l115 435h87l-45 -435h-157zM399 1401v-506h649v-154h-649v-585h717l-9 -156h-908v1557h917l-8 -156h-709z" />
<glyph unicode="&#x229;" horiz-adv-x="1240" d="M439 -444l115 435h87l-45 -435h-157zM669 -24q-247 0 -400.5 157t-153.5 423q0 255 154 420t378 165q213 0 330.5 -141.5t117.5 -380.5l-6 -94h-781q3 -187 113 -293.5t276 -106.5q164 0 347 96l27 -148q-159 -97 -402 -97zM312 652h600q-5 170 -66 256.5t-193 86.5 q-134 0 -230.5 -93.5t-110.5 -249.5z" />
<glyph unicode="&#x22a;" horiz-adv-x="1694" d="M508 2164v142h681v-142h-681zM967 1765v216h158v-216h-158zM570 1765v216h158v-216h-158zM848 134q132 0 235 50.5t167 139.5t96.5 205t32.5 252q0 188 -57.5 332t-179 229.5t-293.5 85.5q-130 0 -232.5 -48.5t-168 -136t-99 -205t-33.5 -257.5q0 -109 20 -205t62.5 -177 t105 -140t150 -92t194.5 -33zM1579 781q0 -232 -84 -411.5t-251.5 -284.5t-395.5 -105q-175 0 -314.5 59.5t-230.5 166t-139.5 253.5t-48.5 323q0 239 85.5 419t252 281t396.5 101q225 0 391.5 -101.5t252.5 -282.5t86 -418z" />
<glyph unicode="&#x22b;" horiz-adv-x="1274" d="M297 1722v142h681v-142h-681zM757 1324v216h158v-216h-158zM360 1324v216h158v-216h-158zM637.5 125q165.5 0 245.5 118.5t80 313.5q0 128 -32.5 223.5t-107 153.5t-186.5 58t-187 -58t-107.5 -153.5t-32.5 -223.5q0 -195 81 -313.5t246.5 -118.5zM637.5 -24 q-236.5 0 -379.5 164t-143 419q0 261 139.5 421.5t382.5 160.5t382.5 -160.5t139.5 -421.5q0 -255 -142.5 -419t-379 -164z" />
<glyph unicode="&#x22c;" horiz-adv-x="1694" d="M508 2170v142h681v-142h-681zM530 1765q0 112 45 167.5t129 55.5q56 0 132 -23.5t123 -48.5l47 -23q19 1 29.5 18.5t12.5 32t5 44.5h112q0 -223 -153 -223q-40 0 -119.5 24.5t-138.5 49.5l-60 25q-24 -2 -39 -28.5t-17 -70.5h-108zM848 134q132 0 235 50.5t167 139.5 t96.5 205t32.5 252q0 188 -57.5 332t-179 229.5t-293.5 85.5q-130 0 -232.5 -48.5t-168 -136t-99 -205t-33.5 -257.5q0 -109 20 -205t62.5 -177t105 -140t150 -92t194.5 -33zM1579 781q0 -232 -84 -411.5t-251.5 -284.5t-395.5 -105q-175 0 -314.5 59.5t-230.5 166 t-139.5 253.5t-48.5 323q0 239 85.5 419t252 281t396.5 101q225 0 391.5 -101.5t252.5 -282.5t86 -418z" />
<glyph unicode="&#x22d;" horiz-adv-x="1274" d="M297 1729v142h681v-142h-681zM320 1324q0 112 45 167.5t129 55.5q56 0 132 -23.5t123 -48.5l47 -23q19 1 29.5 18.5t12.5 32t5 44.5h112q0 -223 -153 -223q-40 0 -119.5 24.5t-138.5 49.5l-60 25q-24 -2 -39 -28.5t-17 -70.5h-108zM637.5 125q165.5 0 245.5 118.5 t80 313.5q0 128 -32.5 223.5t-107 153.5t-186.5 58t-187 -58t-107.5 -153.5t-32.5 -223.5q0 -195 81 -313.5t246.5 -118.5zM637.5 -24q-236.5 0 -379.5 164t-143 419q0 261 139.5 421.5t382.5 160.5t382.5 -160.5t139.5 -421.5q0 -255 -142.5 -419t-379 -164z" />
<glyph unicode="&#x22e;" horiz-adv-x="1694" d="M762 1765v201h171v-201h-171zM848 134q132 0 235 50.5t167 139.5t96.5 205t32.5 252q0 188 -57.5 332t-179 229.5t-293.5 85.5q-130 0 -232.5 -48.5t-168 -136t-99 -205t-33.5 -257.5q0 -109 20 -205t62.5 -177t105 -140t150 -92t194.5 -33zM1579 781q0 -232 -84 -411.5 t-251.5 -284.5t-395.5 -105q-175 0 -314.5 59.5t-230.5 166t-139.5 253.5t-48.5 323q0 239 85.5 419t252 281t396.5 101q225 0 391.5 -101.5t252.5 -282.5t86 -418z" />
<glyph unicode="&#x22f;" horiz-adv-x="1274" d="M553 1324v201h171v-201h-171zM637.5 125q165.5 0 245.5 118.5t80 313.5q0 128 -32.5 223.5t-107 153.5t-186.5 58t-187 -58t-107.5 -153.5t-32.5 -223.5q0 -195 81 -313.5t246.5 -118.5zM637.5 -24q-236.5 0 -379.5 164t-143 419q0 261 139.5 421.5t382.5 160.5 t382.5 -160.5t139.5 -421.5q0 -255 -142.5 -419t-379 -164z" />
<glyph unicode="&#x230;" horiz-adv-x="1694" d="M508 2149v142h681v-142h-681zM762 1765v201h171v-201h-171zM848 134q132 0 235 50.5t167 139.5t96.5 205t32.5 252q0 188 -57.5 332t-179 229.5t-293.5 85.5q-130 0 -232.5 -48.5t-168 -136t-99 -205t-33.5 -257.5q0 -109 20 -205t62.5 -177t105 -140t150 -92t194.5 -33z M1579 781q0 -232 -84 -411.5t-251.5 -284.5t-395.5 -105q-175 0 -314.5 59.5t-230.5 166t-139.5 253.5t-48.5 323q0 239 85.5 419t252 281t396.5 101q225 0 391.5 -101.5t252.5 -282.5t86 -418z" />
<glyph unicode="&#x231;" horiz-adv-x="1274" d="M297 1708v142h681v-142h-681zM553 1324v201h171v-201h-171zM637.5 125q165.5 0 245.5 118.5t80 313.5q0 128 -32.5 223.5t-107 153.5t-186.5 58t-187 -58t-107.5 -153.5t-32.5 -223.5q0 -195 81 -313.5t246.5 -118.5zM637.5 -24q-236.5 0 -379.5 164t-143 419 q0 261 139.5 421.5t382.5 160.5t382.5 -160.5t139.5 -421.5q0 -255 -142.5 -419t-379 -164z" />
<glyph unicode="&#x232;" horiz-adv-x="1322" d="M322 1765v142h681v-142h-681zM676 810l434 747h199l-532 -911v-646h-199v642l-565 915h200z" />
<glyph unicode="&#x233;" horiz-adv-x="1170" d="M248 1324v142h681v-142h-681zM116 -461l-6 146q8 -2 74.5 -8t87.5 -6q86 0 139 38.5t89 151.5q6 20 16 64t17 77l7 35l-491 1081h211l371 -895l284 895h211q-445 -1260 -460 -1298q-63 -168 -146.5 -234t-223.5 -66q-26 0 -94.5 7t-85.5 12z" />
<glyph unicode="&#x237;" horiz-adv-x="467" d="M-59 -446l-23 158h54q57 0 90 7.5t50 27.5t21.5 44.5t4.5 71.5v79v1176h196v-1194q0 -108 -14 -174.5t-52 -112.5t-103 -64.5t-171 -18.5h-53z" />
<glyph unicode="&#x259;" horiz-adv-x="1240" d="M485 1142q247 0 400.5 -157t153.5 -423q0 -255 -154 -420t-378 -165q-213 0 -330.5 141.5t-117.5 380.5l6 94h781q-3 187 -113 293.5t-276 106.5q-164 0 -347 -96l-27 148q159 97 402 97zM842 466h-600q5 -170 66 -256.5t193 -86.5q134 0 230.5 93.5t110.5 249.5z" />
<glyph unicode="&#x2bc;" horiz-adv-x="512" d="M136 1123l95 481h160l-137 -481h-118z" />
<glyph unicode="&#x2c6;" horiz-adv-x="815" d="M110 1275l190 395h217l191 -395h-136l-164 277l-165 -277h-133z" />
<glyph unicode="&#x2c7;" horiz-adv-x="815" d="M300 1275l-190 395h133l165 -317l164 317h136l-191 -395h-217z" />
<glyph unicode="&#x2d8;" horiz-adv-x="768" d="M642 1572q0 -123 -76.5 -185.5t-181.5 -62.5q-104 0 -179 62.5t-75 185.5h119q0 -69 38 -106t97.5 -37t99 37t39.5 106h119z" />
<glyph unicode="&#x2d9;" horiz-adv-x="418" d="M124 1323v201h172v-201h-172z" />
<glyph unicode="&#x2da;" horiz-adv-x="645" d="M328 1281q-83 0 -141.5 51.5t-58.5 136.5q0 88 58.5 144.5t139.5 56.5t139.5 -58.5t58.5 -142.5q0 -85 -58 -136.5t-138 -51.5zM326 1355q39 0 68.5 33.5t29.5 80.5q0 49 -28.5 83.5t-69.5 34.5q-39 0 -70 -35.5t-31 -82.5q0 -51 27 -82.5t74 -31.5z" />
<glyph unicode="&#x2db;" horiz-adv-x="600" d="M317 -427q-86 0 -141.5 47.5t-55.5 131.5q0 139 195 254h116q-183 -136 -183 -224q0 -38 28 -64.5t61 -26.5q58 0 140 33v-118q-76 -33 -160 -33z" />
<glyph unicode="&#x2dc;" horiz-adv-x="901" d="M118 1316q0 112 45 167.5t129 55.5q56 0 132 -23.5t123 -48.5l47 -23q19 1 29.5 18.5t12.5 32t5 44.5h112q0 -223 -153 -223q-40 0 -119.5 24.5t-138.5 49.5l-60 25q-24 -2 -39 -28.5t-17 -70.5h-108z" />
<glyph unicode="&#x2dd;" horiz-adv-x="832" d="M368 1284l205 341h154l-255 -341h-104zM130 1284l203 341h155l-256 -341h-102z" />
<glyph unicode="&#x307;" horiz-adv-x="390" d="M109 1323v201h171v-201h-171z" />
<glyph unicode="&#x30f;" horiz-adv-x="826" d="M613 1284l-252 341h154l202 -341h-104zM339 1284l-254 341h152l207 -341h-105z" />
<glyph unicode="&#x311;" horiz-adv-x="725" d="M224 1324h-118q0 124 76 193.5t178 69.5q103 0 180 -69.5t77 -193.5h-119q0 69 -39.5 106t-99 37t-97.5 -37t-38 -106z" />
<glyph unicode="&#x31b;" horiz-adv-x="489" d="M213 159q-42 0 -94 6v96q8 0 24.5 -1t25.5 -1q77 0 77 102q0 70 -30 150h119q32 -78 32 -154q0 -85 -40 -141.5t-114 -56.5z" />
<glyph unicode="&#x326;" horiz-adv-x="413" d="M64 -685l96 508h169l-145 -508h-120z" />
<glyph unicode="&#x384;" horiz-adv-x="476" d="M242 542q-64 0 -100 40t-36 94.5t36 94.5t100 40t99.5 -40t35.5 -94.5t-35.5 -94.5t-99.5 -40z" />
<glyph unicode="&#x385;" horiz-adv-x="476" d="M242 542q-64 0 -100 40t-36 94.5t36 94.5t100 40t99.5 -40t35.5 -94.5t-35.5 -94.5t-99.5 -40z" />
<glyph unicode="&#x386;" d="M250 542q-64 0 -100 40t-36 94.5t36 94.5t100 40t99.5 -40t35.5 -94.5t-35.5 -94.5t-99.5 -40z" />
<glyph unicode="&#x388;" d="M250 542q-64 0 -100 40t-36 94.5t36 94.5t100 40t99.5 -40t35.5 -94.5t-35.5 -94.5t-99.5 -40z" />
<glyph unicode="&#x389;" d="M250 542q-64 0 -100 40t-36 94.5t36 94.5t100 40t99.5 -40t35.5 -94.5t-35.5 -94.5t-99.5 -40z" />
<glyph unicode="&#x38a;" d="M250 542q-64 0 -100 40t-36 94.5t36 94.5t100 40t99.5 -40t35.5 -94.5t-35.5 -94.5t-99.5 -40z" />
<glyph unicode="&#x38c;" d="M250 542q-64 0 -100 40t-36 94.5t36 94.5t100 40t99.5 -40t35.5 -94.5t-35.5 -94.5t-99.5 -40z" />
<glyph unicode="&#x38e;" d="M250 542q-64 0 -100 40t-36 94.5t36 94.5t100 40t99.5 -40t35.5 -94.5t-35.5 -94.5t-99.5 -40z" />
<glyph unicode="&#x38f;" d="M250 542q-64 0 -100 40t-36 94.5t36 94.5t100 40t99.5 -40t35.5 -94.5t-35.5 -94.5t-99.5 -40z" />
<glyph unicode="&#x390;" horiz-adv-x="579" d="M312.5 542q-63.5 0 -99.5 40t-36 94.5t36 94.5t99.5 40t99.5 -40t36 -94.5t-36 -94.5t-99.5 -40zM257.5 1270q-63.5 0 -99.5 40t-36 94.5t36 94.5t99.5 40t99.5 -40t36 -94.5t-36 -94.5t-99.5 -40z" />
<glyph unicode="&#x391;" horiz-adv-x="1505" d="M1221 0l-174 482h-575l-176 -482h-195l542 1508h222l541 -1508h-185zM531 628h460q-216 623 -238 700z" />
<glyph unicode="&#x392;" horiz-adv-x="1345" d="M329 1359v-500h323q158 0 238.5 55t80.5 196t-95.5 195t-299.5 54h-247zM329 718v-574h315q193 0 288 71.5t95 220.5q0 155 -103.5 218.5t-322.5 63.5h-272zM152 0v1508h433q291 0 431 -88.5t140 -282.5q0 -29 -3.5 -57t-18.5 -72t-40.5 -80t-75 -72t-115.5 -57 q151 -28 230 -128.5t79 -241.5q0 -204 -134.5 -316.5t-398.5 -112.5h-527z" />
<glyph unicode="&#x393;" horiz-adv-x="1125" d="M334 1366v-1366h-182v1524h890l-16 -158h-692z" />
<glyph unicode="&#x394;" horiz-adv-x="1508" d="M1169 158l-414 1173l-409 -1173h823zM101 0l560 1524h188l561 -1524h-1309z" />
<glyph unicode="&#x395;" horiz-adv-x="1202" d="M348 1352v-494h653v-154h-653v-548h718l-8 -156h-906v1508h914l-8 -156h-710z" />
<glyph unicode="&#x396;" horiz-adv-x="1298" d="M153 1508h1016v-133l-824 -1218h831l-6 -157h-1046v139l820 1212h-791v157z" />
<glyph unicode="&#x397;" horiz-adv-x="1478" d="M1131 860v648h196v-1508h-196v706h-783v-706h-196v1508h196v-648h783z" />
<glyph unicode="&#x398;" d="M250 542q-64 0 -100 40t-36 94.5t36 94.5t100 40t99.5 -40t35.5 -94.5t-35.5 -94.5t-99.5 -40z" />
<glyph unicode="&#x399;" horiz-adv-x="499" d="M152 0v1508h196v-1508h-196z" />
<glyph unicode="&#x39a;" horiz-adv-x="1366" d="M983 1508h247l-611 -676l643 -832h-245l-552 724l-117 -116v-608h-196v1508h196v-688z" />
<glyph unicode="&#x39b;" horiz-adv-x="1508" d="M1225 0l-470 1331l-464 -1331h-190l560 1524h188l561 -1524h-185z" />
<glyph unicode="&#x39c;" horiz-adv-x="1804" d="M1431 1508h222v-1508h-171v907l8 361l-38 -103l-461 -1072h-172l-470 1076l-38 103l13 -369v-903h-172v1508h229l523 -1201z" />
<glyph unicode="&#x39d;" horiz-adv-x="1543" d="M1228 245q-7 325 -7 377v886h171v-1508h-199q-105 153 -409 587t-466 675q6 -261 6 -382v-880h-172v1508h197q102 -147 408 -584.5t471 -678.5z" />
<glyph unicode="&#x39e;" d="M250 542q-64 0 -100 40t-36 94.5t36 94.5t100 40t99.5 -40t35.5 -94.5t-35.5 -94.5t-99.5 -40z" />
<glyph unicode="&#x39f;" horiz-adv-x="1692" d="M844.5 132q173.5 0 293 80.5t174 216t54.5 318.5q0 188 -56.5 327.5t-175 220t-288.5 80.5q-255 0 -389 -170.5t-134 -457.5q0 -183 54.5 -318.5t174 -216t293 -80.5zM844 -22q-342 0 -529 207t-187 563q0 362 189 572t529 210q334 0 525 -211.5t191 -571.5 q0 -231 -82.5 -403.5t-246 -269t-389.5 -96.5z" />
<glyph unicode="&#x3a0;" horiz-adv-x="1497" d="M1166 0v1370h-832v-1370h-182v1524h1194v-1524h-180z" />
<glyph unicode="&#x3a1;" horiz-adv-x="1254" d="M597 784q180 0 259 76.5t79 232.5q0 130 -89 191t-239 61h-259v-550q180 -11 249 -11zM152 0v1508h460q147 0 262.5 -44.5t186 -139t70.5 -228.5q0 -219 -133.5 -339t-409.5 -120q-85 0 -240 14v-651h-196z" />
<glyph unicode="&#x3a3;" horiz-adv-x="1202" d="M348 1352v-494h653v-154h-653v-548h718l-8 -156h-906v1508h914l-8 -156h-710z" />
<glyph unicode="&#x3a4;" horiz-adv-x="1284" d="M1195 1508v-156h-456v-1352h-196v1352h-457v156h1109z" />
<glyph unicode="&#x3a5;" horiz-adv-x="1397" d="M698 765l424 743h196l-522 -907v-601h-196v597l-522 911h196z" />
<glyph unicode="&#x3a6;" horiz-adv-x="1732" d="M953 1229v-900q231 22 347 146.5t116 311.5t-118 304t-345 138zM773 329v900q-224 -21 -341.5 -138t-117.5 -304q0 -186 115 -311t344 -147zM953 0h-180v174q-209 15 -357.5 99.5t-221.5 216.5t-73 297q0 253 172.5 414.5t479.5 182.5v140h180v-140q309 -21 482 -181.5 t173 -415.5q0 -124 -42.5 -230.5t-123 -188t-206 -132.5t-283.5 -62v-174z" />
<glyph unicode="&#x3a7;" horiz-adv-x="1432" d="M821 760l502 -760h-204l-400 607l-399 -607h-204l501 760l-501 748h204l399 -594l400 594h204z" />
<glyph unicode="&#x3a8;" d="M250 542q-64 0 -100 40t-36 94.5t36 94.5t100 40t99.5 -40t35.5 -94.5t-35.5 -94.5t-99.5 -40z" />
<glyph unicode="&#x3a9;" horiz-adv-x="1692" d="M844.5 132q173.5 0 293 80.5t174 216t54.5 318.5q0 188 -56.5 327.5t-175 220t-288.5 80.5q-255 0 -389 -170.5t-134 -457.5q0 -183 54.5 -318.5t174 -216t293 -80.5zM844 -22q-342 0 -529 207t-187 563q0 362 189 572t529 210q334 0 525 -211.5t191 -571.5 q0 -231 -82.5 -403.5t-246 -269t-389.5 -96.5z" />
<glyph unicode="&#x3aa;" horiz-adv-x="499" d="M369 1765v216h158v-216h-158zM-28 1765v216h158v-216h-158zM152 0v1508h196v-1508h-196z" />
<glyph unicode="&#x3ab;" horiz-adv-x="1397" d="M817 1765v216h158v-216h-158zM420 1765v216h158v-216h-158zM698 765l424 743h196l-522 -907v-601h-196v597l-522 911h196z" />
<glyph unicode="&#x3ac;" d="M250 542q-64 0 -100 40t-36 94.5t36 94.5t100 40t99.5 -40t35.5 -94.5t-35.5 -94.5t-99.5 -40z" />
<glyph unicode="&#x3ad;" d="M250 542q-64 0 -100 40t-36 94.5t36 94.5t100 40t99.5 -40t35.5 -94.5t-35.5 -94.5t-99.5 -40z" />
<glyph unicode="&#x3ae;" d="M250 542q-64 0 -100 40t-36 94.5t36 94.5t100 40t99.5 -40t35.5 -94.5t-35.5 -94.5t-99.5 -40z" />
<glyph unicode="&#x3af;" d="M250 542q-64 0 -100 40t-36 94.5t36 94.5t100 40t99.5 -40t35.5 -94.5t-35.5 -94.5t-99.5 -40z" />
<glyph unicode="&#x3b0;" d="M250 542q-64 0 -100 40t-36 94.5t36 94.5t100 40t99.5 -40t35.5 -94.5t-35.5 -94.5t-99.5 -40z" />
<glyph unicode="&#x3b1;" d="M250 542q-64 0 -100 40t-36 94.5t36 94.5t100 40t99.5 -40t35.5 -94.5t-35.5 -94.5t-99.5 -40z" />
<glyph unicode="&#x3b2;" d="M250 542q-64 0 -100 40t-36 94.5t36 94.5t100 40t99.5 -40t35.5 -94.5t-35.5 -94.5t-99.5 -40z" />
<glyph unicode="&#x3b3;" d="M250 542q-64 0 -100 40t-36 94.5t36 94.5t100 40t99.5 -40t35.5 -94.5t-35.5 -94.5t-99.5 -40z" />
<glyph unicode="&#x3b4;" d="M250 542q-64 0 -100 40t-36 94.5t36 94.5t100 40t99.5 -40t35.5 -94.5t-35.5 -94.5t-99.5 -40z" />
<glyph unicode="&#x3b5;" d="M250 542q-64 0 -100 40t-36 94.5t36 94.5t100 40t99.5 -40t35.5 -94.5t-35.5 -94.5t-99.5 -40z" />
<glyph unicode="&#x3b6;" d="M250 542q-64 0 -100 40t-36 94.5t36 94.5t100 40t99.5 -40t35.5 -94.5t-35.5 -94.5t-99.5 -40z" />
<glyph unicode="&#x3b7;" d="M250 542q-64 0 -100 40t-36 94.5t36 94.5t100 40t99.5 -40t35.5 -94.5t-35.5 -94.5t-99.5 -40z" />
<glyph unicode="&#x3b8;" d="M250 542q-64 0 -100 40t-36 94.5t36 94.5t100 40t99.5 -40t35.5 -94.5t-35.5 -94.5t-99.5 -40z" />
<glyph unicode="&#x3b9;" d="M250 542q-64 0 -100 40t-36 94.5t36 94.5t100 40t99.5 -40t35.5 -94.5t-35.5 -94.5t-99.5 -40z" />
<glyph unicode="&#x3ba;" horiz-adv-x="1172" d="M146 0v1119h169v-537q24 27 38 42q99 114 458 494h216l-465 -496l498 -622h-212l-409 525l-124 -107v-418h-169z" />
<glyph unicode="&#x3bb;" d="M250 542q-64 0 -100 40t-36 94.5t36 94.5t100 40t99.5 -40t35.5 -94.5t-35.5 -94.5t-99.5 -40z" />
<glyph unicode="&#x3bc;" d="M250 542q-64 0 -100 40t-36 94.5t36 94.5t100 40t99.5 -40t35.5 -94.5t-35.5 -94.5t-99.5 -40z" />
<glyph unicode="&#x3bd;" d="M250 542q-64 0 -100 40t-36 94.5t36 94.5t100 40t99.5 -40t35.5 -94.5t-35.5 -94.5t-99.5 -40z" />
<glyph unicode="&#x3be;" d="M250 542q-64 0 -100 40t-36 94.5t36 94.5t100 40t99.5 -40t35.5 -94.5t-35.5 -94.5t-99.5 -40z" />
<glyph unicode="&#x3bf;" horiz-adv-x="1290" d="M644 992q-112 0 -186.5 -58t-107 -153.5t-32.5 -223.5q0 -195 80 -313.5t246 -118.5t246 118.5t80 313.5q0 128 -32.5 223.5t-107 153.5t-186.5 58zM644 -24q-236 0 -379 164t-143 419q0 261 139.5 421.5t382.5 160.5t382.5 -160.5t139.5 -421.5q0 -255 -143 -419 t-379 -164z" />
<glyph unicode="&#x3c0;" horiz-adv-x="1403" d="M1136 -8q-106 0 -147 71t-41 244v688h-414q-32 -817 -126 -995h-152q106 226 125 995q-156 -5 -249 -67l-16 145q43 40 114.5 54t201.5 14h843v-146h-186v-677q0 -26 0.5 -42t5.5 -40t14 -38.5t27 -25.5t42 -11t78 15v-170q-79 -14 -120 -14z" />
<glyph unicode="&#x3c1;" horiz-adv-x="1314" d="M668 120q157 0 241 117.5t84 322.5q0 203 -82.5 320t-241.5 117q-327 0 -327 -419q0 -227 75.5 -342.5t250.5 -115.5zM146 1118h177l19 -183q44 98 141 152t215 54q229 0 360 -162.5t131 -425.5q0 -252 -136.5 -414.5t-353.5 -162.5q-110 0 -208.5 48.5t-154.5 127.5 q6 -92 6 -214v-412l-196 -11v1603z" />
<glyph unicode="&#x3c2;" d="M250 542q-64 0 -100 40t-36 94.5t36 94.5t100 40t99.5 -40t35.5 -94.5t-35.5 -94.5t-99.5 -40z" />
<glyph unicode="&#x3c3;" d="M250 542q-64 0 -100 40t-36 94.5t36 94.5t100 40t99.5 -40t35.5 -94.5t-35.5 -94.5t-99.5 -40z" />
<glyph unicode="&#x3c4;" d="M250 542q-64 0 -100 40t-36 94.5t36 94.5t100 40t99.5 -40t35.5 -94.5t-35.5 -94.5t-99.5 -40z" />
<glyph unicode="&#x3c5;" d="M250 542q-64 0 -100 40t-36 94.5t36 94.5t100 40t99.5 -40t35.5 -94.5t-35.5 -94.5t-99.5 -40z" />
<glyph unicode="&#x3c6;" d="M250 542q-64 0 -100 40t-36 94.5t36 94.5t100 40t99.5 -40t35.5 -94.5t-35.5 -94.5t-99.5 -40z" />
<glyph unicode="&#x3c7;" horiz-adv-x="1284" d="M641 698l300 420h215l-404 -551l414 -567h-210l-314 444l-315 -444h-206l410 569l-394 549h206z" />
<glyph unicode="&#x3c8;" d="M250 542q-64 0 -100 40t-36 94.5t36 94.5t100 40t99.5 -40t35.5 -94.5t-35.5 -94.5t-99.5 -40z" />
<glyph unicode="&#x3c9;" d="M250 542q-64 0 -100 40t-36 94.5t36 94.5t100 40t99.5 -40t35.5 -94.5t-35.5 -94.5t-99.5 -40z" />
<glyph unicode="&#x3ca;" horiz-adv-x="780" d="M661 1494v-216h-157v216h157zM263 1494v-216h-157v216h157zM441 542q-64 0 -99.5 40t-35.5 94.5t35.5 94.5t99.5 40t100 -40t36 -94.5t-36 -94.5t-100 -40z" />
<glyph unicode="&#x3cb;" d="M250 542q-64 0 -100 40t-36 94.5t36 94.5t100 40t99.5 -40t35.5 -94.5t-35.5 -94.5t-99.5 -40z" />
<glyph unicode="&#x3cc;" d="M250 542q-64 0 -100 40t-36 94.5t36 94.5t100 40t99.5 -40t35.5 -94.5t-35.5 -94.5t-99.5 -40z" />
<glyph unicode="&#x3cd;" d="M250 542q-64 0 -100 40t-36 94.5t36 94.5t100 40t99.5 -40t35.5 -94.5t-35.5 -94.5t-99.5 -40z" />
<glyph unicode="&#x3ce;" d="M250 542q-64 0 -100 40t-36 94.5t36 94.5t100 40t99.5 -40t35.5 -94.5t-35.5 -94.5t-99.5 -40z" />
<glyph unicode="&#x400;" horiz-adv-x="1195" d="M601 1766l-330 395h256l188 -395h-114zM399 1401v-506h649v-154h-649v-585h717l-9 -156h-908v1557h917l-8 -156h-709zM399 1401v-506h649v-154h-649v-585h717l-9 -156h-908v1557h917l-8 -156h-709zM399 1401v-506h649v-154h-649v-585h717l-9 -156h-908v1557h917l-8 -156 h-709zM399 1401v-506h649v-154h-649v-585h717l-9 -156h-908v1557h917l-8 -156h-709zM399 1401v-506h649v-154h-649v-585h717l-9 -156h-908v1557h917l-8 -156h-709zM399 1401v-506h649v-154h-649v-585h717l-9 -156h-908v1557h917l-8 -156h-709zM399 1401v-506h649v-154h-649 v-585h717l-9 -156h-908v1557h917l-8 -156h-709zM399 1401v-506h649v-154h-649v-585h717l-9 -156h-908v1557h917l-8 -156h-709zM399 1401v-506h649v-154h-649v-585h717l-9 -156h-908v1557h917l-8 -156h-709zM399 1401v-506h649v-154h-649v-585h717l-9 -156h-908v1557h917 l-8 -156h-709zM399 1401v-506h649v-154h-649v-585h717l-9 -156h-908v1557h917l-8 -156h-709zM399 1401v-506h649v-154h-649v-585h717l-9 -156h-908v1557h917l-8 -156h-709zM399 1401v-506h649v-154h-649v-585h717l-9 -156h-908v1557h917l-8 -156h-709z" />
<glyph unicode="&#x401;" horiz-adv-x="1195" d="M777 1765v216h158v-216h-158zM380 1765v216h158v-216h-158zM399 1401v-506h649v-154h-649v-585h717l-9 -156h-908v1557h917l-8 -156h-709zM399 1401v-506h649v-154h-649v-585h717l-9 -156h-908v1557h917l-8 -156h-709zM399 1401v-506h649v-154h-649v-585h717l-9 -156 h-908v1557h917l-8 -156h-709zM399 1401v-506h649v-154h-649v-585h717l-9 -156h-908v1557h917l-8 -156h-709zM399 1401v-506h649v-154h-649v-585h717l-9 -156h-908v1557h917l-8 -156h-709zM399 1401v-506h649v-154h-649v-585h717l-9 -156h-908v1557h917l-8 -156h-709z M399 1401v-506h649v-154h-649v-585h717l-9 -156h-908v1557h917l-8 -156h-709zM399 1401v-506h649v-154h-649v-585h717l-9 -156h-908v1557h917l-8 -156h-709zM399 1401v-506h649v-154h-649v-585h717l-9 -156h-908v1557h917l-8 -156h-709zM399 1401v-506h649v-154h-649v-585 h717l-9 -156h-908v1557h917l-8 -156h-709zM399 1401v-506h649v-154h-649v-585h717l-9 -156h-908v1557h917l-8 -156h-709zM399 1401v-506h649v-154h-649v-585h717l-9 -156h-908v1557h917l-8 -156h-709zM399 1401v-506h649v-154h-649v-585h717l-9 -156h-908v1557h917l-8 -156 h-709z" />
<glyph unicode="&#x402;" horiz-adv-x="1218" d="M1175 1557v-156h-466v-1401h-201v1401h-464v156h1131zM1175 1557v-156h-466v-1401h-201v1401h-464v156h1131z" />
<glyph unicode="&#x403;" horiz-adv-x="1172" d="M1114 1350h-740v-1350h-195v1508h950z" />
<glyph unicode="&#x404;" horiz-adv-x="1420" d="M844 -24q-172 0 -309 60.5t-225.5 168t-135 252t-46.5 315.5q0 163 46.5 304t135 248t227.5 169t314 62q296 0 446 -134l-59 -146q-69 53 -166.5 88.5t-205.5 35.5q-110 0 -199 -30.5t-149.5 -82.5t-103.5 -124.5t-64.5 -154t-26.5 -174.5h703v-157h-702 q11 -114 49.5 -212t103.5 -173t162 -117.5t216 -42.5q110 0 211 34.5t170 87.5l65 -138q-171 -139 -457 -139z" />
<glyph unicode="&#x405;" horiz-adv-x="1344" d="M680 -22q-182 0 -323 37t-224 87l54 147q236 -117 504 -117q334 0 334 303q0 97 -54 157t-193 96l-299 76q-343 86 -343 366q0 109 39 187.5t114.5 124t174 67t228.5 21.5q298 0 456 -99l-52 -137q-169 81 -398 81q-190 0 -282.5 -54t-92.5 -179q0 -87 54.5 -139 t167.5 -80l287 -68q185 -45 282.5 -141.5t97.5 -273.5q0 -229 -144 -345.5t-388 -116.5z" />
<glyph unicode="&#x406;" horiz-adv-x="483" d="M152 0v1525h181v-1525h-181z" />
<glyph unicode="&#x407;" horiz-adv-x="483" d="M362 1765v216h158v-216h-158zM-35 1765v216h158v-216h-158zM152 0v1525h181v-1525h-181z" />
<glyph unicode="&#x408;" horiz-adv-x="707" d="M112 -218l-21 168h75q55 0 92 13t57.5 33t31 57t13 69.5t2.5 85.5v1300h196v-1263q0 -85 -5.5 -143.5t-21.5 -114.5t-44 -91.5t-73.5 -63t-111 -39t-154.5 -11.5h-36z" />
<glyph unicode="&#x409;" horiz-adv-x="1965" d="M1111 730v-572h263q128 0 205 74.5t77 206.5q0 134 -76 212.5t-206 78.5h-263zM87 -27v160h47q54 0 91 13.5t58 33t31.5 56.5t12.5 69t2 86v1117h782v-620h263q222 0 349.5 -110t127.5 -342q0 -215 -127 -325.5t-350 -110.5h-458v1350h-392v-909q0 -103 -8 -170 t-32.5 -128.5t-69 -96t-118 -54t-180.5 -19.5h-29z" />
<glyph unicode="&#x40a;" horiz-adv-x="2075" d="M374 706v-706h-195v1508h195v-648h686v648h194v-636h247q506 0 506 -432q0 -440 -513 -440h-434v706h-686zM1495 731h-241v-587h250q318 0 318 295q0 150 -81.5 221t-245.5 71z" />
<glyph unicode="&#x40b;" horiz-adv-x="1218" d="M1175 1557v-156h-466v-1401h-201v1401h-464v156h1131zM1175 1557v-156h-466v-1401h-201v1401h-464v156h1131z" />
<glyph unicode="&#x40c;" horiz-adv-x="1392" d="M664 1766l190 395h258l-332 -395h-116zM374 0h-195v1508h195v-680l613 680h246l-677 -755l710 -753h-264l-628 680v-680z" />
<glyph unicode="&#x40d;" horiz-adv-x="1597" d="M743 1766l-330 395h256l188 -395h-114zM345 245q166 243 474.5 685t402.5 578h197v-1508h-171v880l5 382q-163 -242 -468 -678.5t-405 -583.5h-201v1508h172v-886z" />
<glyph unicode="&#x40e;" horiz-adv-x="1397" d="M974 2013q0 -123 -76.5 -185.5t-181.5 -62.5q-104 0 -179 62.5t-75 185.5h119q0 -69 38 -106t97.5 -37t99 37t39.5 106h119zM286 1508l464 -858l402 858h211l-717 -1508h-209l198 475l-563 1033h214z" />
<glyph unicode="&#x40f;" horiz-adv-x="1486" d="M851 0v-308h-178v308h-494v1508h195v-1353h738v1353h195v-1508h-456z" />
<glyph unicode="&#x410;" horiz-adv-x="1370" d="M41 0l565 1557h226l564 -1557h-189l-178 482h-609l-179 -482h-200zM477 628h497l-256 742zM41 0l565 1557h226l564 -1557h-189l-178 482h-609l-179 -482h-200zM477 628h497l-256 742zM41 0l565 1557h226l564 -1557h-189l-178 482h-609l-179 -482h-200zM477 628h497 l-256 742zM41 0l565 1557h226l564 -1557h-189l-178 482h-609l-179 -482h-200zM477 628h497l-256 742zM41 0l565 1557h226l564 -1557h-189l-178 482h-609l-179 -482h-200zM477 628h497l-256 742zM41 0l565 1557h226l564 -1557h-189l-178 482h-609l-179 -482h-200zM477 628 h497l-256 742zM41 0l565 1557h226l564 -1557h-189l-178 482h-609l-179 -482h-200zM477 628h497l-256 742zM41 0l565 1557h226l564 -1557h-189l-178 482h-609l-179 -482h-200zM477 628h497l-256 742zM41 0l565 1557h226l564 -1557h-189l-178 482h-609l-179 -482h-200z M477 628h497l-256 742zM41 0l565 1557h226l564 -1557h-189l-178 482h-609l-179 -482h-200zM477 628h497l-256 742zM41 0l565 1557h226l564 -1557h-189l-178 482h-609l-179 -482h-200zM477 628h497l-256 742zM41 0l565 1557h226l564 -1557h-189l-178 482h-609l-179 -482h-200 zM477 628h497l-256 742zM41 0l565 1557h226l564 -1557h-189l-178 482h-609l-179 -482h-200zM477 628h497l-256 742z" />
<glyph unicode="&#x411;" horiz-adv-x="1314" d="M1219 440q0 -440 -513 -440h-527v1508h912v-149h-717v-487h338q507 0 507 -432zM374 731v-587h342q156 0 232 72t76 223t-77.5 221.5t-239.5 70.5h-333z" />
<glyph unicode="&#x412;" horiz-adv-x="1337" d="M380 893h328q158 0 242 59.5t84 202t-98.5 198t-304.5 55.5h-251v-515zM380 144h320q192 0 291.5 86t99.5 239q0 156 -105.5 219.5t-328.5 63.5h-277v-608zM199 0v1557h441q295 0 438.5 -90.5t143.5 -284.5q0 -30 -3.5 -59t-19 -75t-41.5 -83.5t-76 -74.5t-118 -58 q155 -28 235 -128t80 -241q0 -209 -139 -336t-404 -127h-537zM380 893h328q158 0 242 59.5t84 202t-98.5 198t-304.5 55.5h-251v-515zM380 144h320q192 0 291.5 86t99.5 239q0 156 -105.5 219.5t-328.5 63.5h-277v-608zM199 0v1557h441q295 0 438.5 -90.5t143.5 -284.5 q0 -30 -3.5 -59t-19 -75t-41.5 -83.5t-76 -74.5t-118 -58q155 -28 235 -128t80 -241q0 -209 -139 -336t-404 -127h-537zM380 893h328q158 0 242 59.5t84 202t-98.5 198t-304.5 55.5h-251v-515zM380 144h320q192 0 291.5 86t99.5 239q0 156 -105.5 219.5t-328.5 63.5h-277 v-608zM199 0v1557h441q295 0 438.5 -90.5t143.5 -284.5q0 -30 -3.5 -59t-19 -75t-41.5 -83.5t-76 -74.5t-118 -58q155 -28 235 -128t80 -241q0 -209 -139 -336t-404 -127h-537zM380 893h328q158 0 242 59.5t84 202t-98.5 198t-304.5 55.5h-251v-515zM380 144h320 q192 0 291.5 86t99.5 239q0 156 -105.5 219.5t-328.5 63.5h-277v-608zM199 0v1557h441q295 0 438.5 -90.5t143.5 -284.5q0 -30 -3.5 -59t-19 -75t-41.5 -83.5t-76 -74.5t-118 -58q155 -28 235 -128t80 -241q0 -209 -139 -336t-404 -127h-537zM380 893h328q158 0 242 59.5 t84 202t-98.5 198t-304.5 55.5h-251v-515zM380 144h320q192 0 291.5 86t99.5 239q0 156 -105.5 219.5t-328.5 63.5h-277v-608zM199 0v1557h441q295 0 438.5 -90.5t143.5 -284.5q0 -30 -3.5 -59t-19 -75t-41.5 -83.5t-76 -74.5t-118 -58q155 -28 235 -128t80 -241 q0 -209 -139 -336t-404 -127h-537zM380 893h328q158 0 242 59.5t84 202t-98.5 198t-304.5 55.5h-251v-515zM380 144h320q192 0 291.5 86t99.5 239q0 156 -105.5 219.5t-328.5 63.5h-277v-608zM199 0v1557h441q295 0 438.5 -90.5t143.5 -284.5q0 -30 -3.5 -59t-19 -75 t-41.5 -83.5t-76 -74.5t-118 -58q155 -28 235 -128t80 -241q0 -209 -139 -336t-404 -127h-537zM380 893h328q158 0 242 59.5t84 202t-98.5 198t-304.5 55.5h-251v-515zM380 144h320q192 0 291.5 86t99.5 239q0 156 -105.5 219.5t-328.5 63.5h-277v-608zM199 0v1557h441 q295 0 438.5 -90.5t143.5 -284.5q0 -30 -3.5 -59t-19 -75t-41.5 -83.5t-76 -74.5t-118 -58q155 -28 235 -128t80 -241q0 -209 -139 -336t-404 -127h-537zM380 893h328q158 0 242 59.5t84 202t-98.5 198t-304.5 55.5h-251v-515zM380 144h320q192 0 291.5 86t99.5 239 q0 156 -105.5 219.5t-328.5 63.5h-277v-608zM199 0v1557h441q295 0 438.5 -90.5t143.5 -284.5q0 -30 -3.5 -59t-19 -75t-41.5 -83.5t-76 -74.5t-118 -58q155 -28 235 -128t80 -241q0 -209 -139 -336t-404 -127h-537zM380 893h328q158 0 242 59.5t84 202t-98.5 198 t-304.5 55.5h-251v-515zM380 144h320q192 0 291.5 86t99.5 239q0 156 -105.5 219.5t-328.5 63.5h-277v-608zM199 0v1557h441q295 0 438.5 -90.5t143.5 -284.5q0 -30 -3.5 -59t-19 -75t-41.5 -83.5t-76 -74.5t-118 -58q155 -28 235 -128t80 -241q0 -209 -139 -336t-404 -127 h-537zM380 893h328q158 0 242 59.5t84 202t-98.5 198t-304.5 55.5h-251v-515zM380 144h320q192 0 291.5 86t99.5 239q0 156 -105.5 219.5t-328.5 63.5h-277v-608zM199 0v1557h441q295 0 438.5 -90.5t143.5 -284.5q0 -30 -3.5 -59t-19 -75t-41.5 -83.5t-76 -74.5t-118 -58 q155 -28 235 -128t80 -241q0 -209 -139 -336t-404 -127h-537zM380 893h328q158 0 242 59.5t84 202t-98.5 198t-304.5 55.5h-251v-515zM380 144h320q192 0 291.5 86t99.5 239q0 156 -105.5 219.5t-328.5 63.5h-277v-608zM199 0v1557h441q295 0 438.5 -90.5t143.5 -284.5 q0 -30 -3.5 -59t-19 -75t-41.5 -83.5t-76 -74.5t-118 -58q155 -28 235 -128t80 -241q0 -209 -139 -336t-404 -127h-537zM380 893h328q158 0 242 59.5t84 202t-98.5 198t-304.5 55.5h-251v-515zM380 144h320q192 0 291.5 86t99.5 239q0 156 -105.5 219.5t-328.5 63.5h-277 v-608zM199 0v1557h441q295 0 438.5 -90.5t143.5 -284.5q0 -30 -3.5 -59t-19 -75t-41.5 -83.5t-76 -74.5t-118 -58q155 -28 235 -128t80 -241q0 -209 -139 -336t-404 -127h-537zM380 893h328q158 0 242 59.5t84 202t-98.5 198t-304.5 55.5h-251v-515zM380 144h320 q192 0 291.5 86t99.5 239q0 156 -105.5 219.5t-328.5 63.5h-277v-608zM199 0v1557h441q295 0 438.5 -90.5t143.5 -284.5q0 -30 -3.5 -59t-19 -75t-41.5 -83.5t-76 -74.5t-118 -58q155 -28 235 -128t80 -241q0 -209 -139 -336t-404 -127h-537z" />
<glyph unicode="&#x413;" horiz-adv-x="1172" d="M1114 1350h-740v-1350h-195v1508h950z" />
<glyph unicode="&#x414;" horiz-adv-x="1532" d="M141 -308h-184v463h168q50 34 80 129t54.5 276t64.5 581q25 261 36 367h930v-1353h173v-463h-181v308h-1141v-308zM540 1350v-4q-28 -274 -29 -295q-51 -507 -74 -643q-30 -172 -82 -253h740v1195h-555z" />
<glyph unicode="&#x415;" horiz-adv-x="1195" d="M399 1401v-506h649v-154h-649v-585h717l-9 -156h-908v1557h917l-8 -156h-709zM399 1401v-506h649v-154h-649v-585h717l-9 -156h-908v1557h917l-8 -156h-709zM399 1401v-506h649v-154h-649v-585h717l-9 -156h-908v1557h917l-8 -156h-709zM399 1401v-506h649v-154h-649 v-585h717l-9 -156h-908v1557h917l-8 -156h-709zM399 1401v-506h649v-154h-649v-585h717l-9 -156h-908v1557h917l-8 -156h-709zM399 1401v-506h649v-154h-649v-585h717l-9 -156h-908v1557h917l-8 -156h-709zM399 1401v-506h649v-154h-649v-585h717l-9 -156h-908v1557h917 l-8 -156h-709zM399 1401v-506h649v-154h-649v-585h717l-9 -156h-908v1557h917l-8 -156h-709zM399 1401v-506h649v-154h-649v-585h717l-9 -156h-908v1557h917l-8 -156h-709zM399 1401v-506h649v-154h-649v-585h717l-9 -156h-908v1557h917l-8 -156h-709zM399 1401v-506h649 v-154h-649v-585h717l-9 -156h-908v1557h917l-8 -156h-709zM399 1401v-506h649v-154h-649v-585h717l-9 -156h-908v1557h917l-8 -156h-709zM399 1401v-506h649v-154h-649v-585h717l-9 -156h-908v1557h917l-8 -156h-709z" />
<glyph unicode="&#x416;" horiz-adv-x="2073" d="M932 0v671l-592 -671h-234l669 748l-589 760h219l527 -685v685h195v-687l527 687h220l-589 -760l668 -748h-234l-592 672v-672h-195z" />
<glyph unicode="&#x417;" horiz-adv-x="1244" d="M1110 407q0 -195 -132 -311t-373 -116q-140 0 -261.5 35t-201.5 91l63 144q65 -46 172.5 -81t212.5 -35q146 0 235.5 73.5t89.5 214.5q0 113 -80 196.5t-219 83.5h-140v160h134q131 0 200 79t69 178q0 128 -74 192t-193 64q-93 0 -191 -29t-177 -76l-66 140 q102 61 201.5 90.5t243.5 29.5q99 0 178.5 -24t129.5 -63t83 -90.5t46.5 -101.5t13.5 -102q0 -133 -71.5 -227t-197.5 -131q56 -13 106.5 -40t97 -72t74 -115.5t27.5 -156.5z" />
<glyph unicode="&#x418;" horiz-adv-x="1597" d="M345 245q166 243 474.5 685t402.5 578h197v-1508h-171v880l5 382q-163 -242 -468 -678.5t-405 -583.5h-201v1508h172v-886z" />
<glyph unicode="&#x419;" horiz-adv-x="1597" d="M1055 2013q0 -123 -76.5 -185.5t-181.5 -62.5q-104 0 -179 62.5t-75 185.5h119q0 -69 38 -106t97.5 -37t99 37t39.5 106h119zM345 245q166 243 474.5 685t402.5 578h197v-1508h-171v880l5 382q-163 -242 -468 -678.5t-405 -583.5h-201v1508h172v-886z" />
<glyph unicode="&#x41a;" horiz-adv-x="1392" d="M374 0h-195v1508h195v-680l613 680h246l-677 -755l710 -753h-264l-628 680v-680z" />
<glyph unicode="&#x41b;" horiz-adv-x="1397" d="M1024 0v1350h-586q-1 -34 -7.5 -152.5t-7.5 -145.5q-10 -205 -16 -311t-19 -239.5t-25 -192t-37 -134t-53.5 -103t-75 -60.5t-100 -44.5t-131.5 -19.5l-33 154l36 9q38 9 54 13.5t43 18.5t37 25.5t28 44t24 64t18.5 93.5t17 125.5t13.5 168t14.5 211.5t13.5 266 q12 225 19 367h968v-1508h-195z" />
<glyph unicode="&#x41c;" horiz-adv-x="1845" d="M1431 1557h232v-1557h-173v944l7 359l-477 -1182h-177l-482 1186l12 -367v-940h-174v1557h239l494 -1215zM1431 1557h232v-1557h-173v944l7 359l-477 -1182h-177l-482 1186l12 -367v-940h-174v1557h239l494 -1215zM1431 1557h232v-1557h-173v944l7 359l-477 -1182h-177 l-482 1186l12 -367v-940h-174v1557h239l494 -1215zM1431 1557h232v-1557h-173v944l7 359l-477 -1182h-177l-482 1186l12 -367v-940h-174v1557h239l494 -1215zM1431 1557h232v-1557h-173v944l7 359l-477 -1182h-177l-482 1186l12 -367v-940h-174v1557h239l494 -1215z M1431 1557h232v-1557h-173v944l7 359l-477 -1182h-177l-482 1186l12 -367v-940h-174v1557h239l494 -1215zM1431 1557h232v-1557h-173v944l7 359l-477 -1182h-177l-482 1186l12 -367v-940h-174v1557h239l494 -1215zM1431 1557h232v-1557h-173v944l7 359l-477 -1182h-177 l-482 1186l12 -367v-940h-174v1557h239l494 -1215zM1431 1557h232v-1557h-173v944l7 359l-477 -1182h-177l-482 1186l12 -367v-940h-174v1557h239l494 -1215zM1431 1557h232v-1557h-173v944l7 359l-477 -1182h-177l-482 1186l12 -367v-940h-174v1557h239l494 -1215z M1431 1557h232v-1557h-173v944l7 359l-477 -1182h-177l-482 1186l12 -367v-940h-174v1557h239l494 -1215zM1431 1557h232v-1557h-173v944l7 359l-477 -1182h-177l-482 1186l12 -367v-940h-174v1557h239l494 -1215zM1431 1557h232v-1557h-173v944l7 359l-477 -1182h-177 l-482 1186l12 -367v-940h-174v1557h239l494 -1215z" />
<glyph unicode="&#x41d;" horiz-adv-x="1607" d="M399 858h809v699h200v-1557h-200v710h-809v-710h-200v1557h200v-699z" />
<glyph unicode="&#x41e;" horiz-adv-x="1687" d="M848 134q132 0 235 50.5t167 139.5t96.5 205t32.5 252q0 188 -57.5 332t-179 229.5t-293.5 85.5q-130 0 -232.5 -48.5t-168 -136t-99 -205t-33.5 -257.5q0 -109 20 -205t62.5 -177t105 -140t150 -92t194.5 -33zM1579 781q0 -232 -84 -411.5t-251.5 -284.5t-395.5 -105 q-175 0 -314.5 59.5t-230.5 166t-139.5 253.5t-48.5 323q0 239 85.5 419t252 281t396.5 101q225 0 391.5 -101.5t252.5 -282.5t86 -418zM848 134q132 0 235 50.5t167 139.5t96.5 205t32.5 252q0 188 -57.5 332t-179 229.5t-293.5 85.5q-130 0 -232.5 -48.5t-168 -136 t-99 -205t-33.5 -257.5q0 -109 20 -205t62.5 -177t105 -140t150 -92t194.5 -33zM1579 781q0 -232 -84 -411.5t-251.5 -284.5t-395.5 -105q-175 0 -314.5 59.5t-230.5 166t-139.5 253.5t-48.5 323q0 239 85.5 419t252 281t396.5 101q225 0 391.5 -101.5t252.5 -282.5t86 -418 zM848 134q132 0 235 50.5t167 139.5t96.5 205t32.5 252q0 188 -57.5 332t-179 229.5t-293.5 85.5q-130 0 -232.5 -48.5t-168 -136t-99 -205t-33.5 -257.5q0 -109 20 -205t62.5 -177t105 -140t150 -92t194.5 -33zM1579 781q0 -232 -84 -411.5t-251.5 -284.5t-395.5 -105 q-175 0 -314.5 59.5t-230.5 166t-139.5 253.5t-48.5 323q0 239 85.5 419t252 281t396.5 101q225 0 391.5 -101.5t252.5 -282.5t86 -418zM848 134q132 0 235 50.5t167 139.5t96.5 205t32.5 252q0 188 -57.5 332t-179 229.5t-293.5 85.5q-130 0 -232.5 -48.5t-168 -136 t-99 -205t-33.5 -257.5q0 -109 20 -205t62.5 -177t105 -140t150 -92t194.5 -33zM1579 781q0 -232 -84 -411.5t-251.5 -284.5t-395.5 -105q-175 0 -314.5 59.5t-230.5 166t-139.5 253.5t-48.5 323q0 239 85.5 419t252 281t396.5 101q225 0 391.5 -101.5t252.5 -282.5t86 -418 zM848 134q132 0 235 50.5t167 139.5t96.5 205t32.5 252q0 188 -57.5 332t-179 229.5t-293.5 85.5q-130 0 -232.5 -48.5t-168 -136t-99 -205t-33.5 -257.5q0 -109 20 -205t62.5 -177t105 -140t150 -92t194.5 -33zM1579 781q0 -232 -84 -411.5t-251.5 -284.5t-395.5 -105 q-175 0 -314.5 59.5t-230.5 166t-139.5 253.5t-48.5 323q0 239 85.5 419t252 281t396.5 101q225 0 391.5 -101.5t252.5 -282.5t86 -418zM848 134q132 0 235 50.5t167 139.5t96.5 205t32.5 252q0 188 -57.5 332t-179 229.5t-293.5 85.5q-130 0 -232.5 -48.5t-168 -136 t-99 -205t-33.5 -257.5q0 -109 20 -205t62.5 -177t105 -140t150 -92t194.5 -33zM1579 781q0 -232 -84 -411.5t-251.5 -284.5t-395.5 -105q-175 0 -314.5 59.5t-230.5 166t-139.5 253.5t-48.5 323q0 239 85.5 419t252 281t396.5 101q225 0 391.5 -101.5t252.5 -282.5t86 -418 zM848 134q132 0 235 50.5t167 139.5t96.5 205t32.5 252q0 188 -57.5 332t-179 229.5t-293.5 85.5q-130 0 -232.5 -48.5t-168 -136t-99 -205t-33.5 -257.5q0 -109 20 -205t62.5 -177t105 -140t150 -92t194.5 -33zM1579 781q0 -232 -84 -411.5t-251.5 -284.5t-395.5 -105 q-175 0 -314.5 59.5t-230.5 166t-139.5 253.5t-48.5 323q0 239 85.5 419t252 281t396.5 101q225 0 391.5 -101.5t252.5 -282.5t86 -418zM848 134q132 0 235 50.5t167 139.5t96.5 205t32.5 252q0 188 -57.5 332t-179 229.5t-293.5 85.5q-130 0 -232.5 -48.5t-168 -136 t-99 -205t-33.5 -257.5q0 -109 20 -205t62.5 -177t105 -140t150 -92t194.5 -33zM1579 781q0 -232 -84 -411.5t-251.5 -284.5t-395.5 -105q-175 0 -314.5 59.5t-230.5 166t-139.5 253.5t-48.5 323q0 239 85.5 419t252 281t396.5 101q225 0 391.5 -101.5t252.5 -282.5t86 -418 zM848 134q132 0 235 50.5t167 139.5t96.5 205t32.5 252q0 188 -57.5 332t-179 229.5t-293.5 85.5q-130 0 -232.5 -48.5t-168 -136t-99 -205t-33.5 -257.5q0 -109 20 -205t62.5 -177t105 -140t150 -92t194.5 -33zM1579 781q0 -232 -84 -411.5t-251.5 -284.5t-395.5 -105 q-175 0 -314.5 59.5t-230.5 166t-139.5 253.5t-48.5 323q0 239 85.5 419t252 281t396.5 101q225 0 391.5 -101.5t252.5 -282.5t86 -418zM848 134q132 0 235 50.5t167 139.5t96.5 205t32.5 252q0 188 -57.5 332t-179 229.5t-293.5 85.5q-130 0 -232.5 -48.5t-168 -136 t-99 -205t-33.5 -257.5q0 -109 20 -205t62.5 -177t105 -140t150 -92t194.5 -33zM1579 781q0 -232 -84 -411.5t-251.5 -284.5t-395.5 -105q-175 0 -314.5 59.5t-230.5 166t-139.5 253.5t-48.5 323q0 239 85.5 419t252 281t396.5 101q225 0 391.5 -101.5t252.5 -282.5t86 -418 zM848 134q132 0 235 50.5t167 139.5t96.5 205t32.5 252q0 188 -57.5 332t-179 229.5t-293.5 85.5q-130 0 -232.5 -48.5t-168 -136t-99 -205t-33.5 -257.5q0 -109 20 -205t62.5 -177t105 -140t150 -92t194.5 -33zM1579 781q0 -232 -84 -411.5t-251.5 -284.5t-395.5 -105 q-175 0 -314.5 59.5t-230.5 166t-139.5 253.5t-48.5 323q0 239 85.5 419t252 281t396.5 101q225 0 391.5 -101.5t252.5 -282.5t86 -418zM848 134q132 0 235 50.5t167 139.5t96.5 205t32.5 252q0 188 -57.5 332t-179 229.5t-293.5 85.5q-130 0 -232.5 -48.5t-168 -136 t-99 -205t-33.5 -257.5q0 -109 20 -205t62.5 -177t105 -140t150 -92t194.5 -33zM1579 781q0 -232 -84 -411.5t-251.5 -284.5t-395.5 -105q-175 0 -314.5 59.5t-230.5 166t-139.5 253.5t-48.5 323q0 239 85.5 419t252 281t396.5 101q225 0 391.5 -101.5t252.5 -282.5t86 -418 zM848 134q132 0 235 50.5t167 139.5t96.5 205t32.5 252q0 188 -57.5 332t-179 229.5t-293.5 85.5q-130 0 -232.5 -48.5t-168 -136t-99 -205t-33.5 -257.5q0 -109 20 -205t62.5 -177t105 -140t150 -92t194.5 -33zM1579 781q0 -232 -84 -411.5t-251.5 -284.5t-395.5 -105 q-175 0 -314.5 59.5t-230.5 166t-139.5 253.5t-48.5 323q0 239 85.5 419t252 281t396.5 101q225 0 391.5 -101.5t252.5 -282.5t86 -418z" />
<glyph unicode="&#x41f;" horiz-adv-x="1532" d="M374 1353v-1353h-195v1508h1174v-1508h-195v1353h-784z" />
<glyph unicode="&#x420;" horiz-adv-x="1305" d="M689 833q181 0 254 75.5t73 233.5q0 133 -84 197t-233 64h-299v-567q218 -3 289 -3zM199 0v1557h504q230 0 371.5 -106t141.5 -305q0 -459 -536 -459q-221 0 -280 3v-690h-201z" />
<glyph unicode="&#x421;" horiz-adv-x="1324" d="M832 -20q-216 3 -380 114t-250.5 298t-86.5 420q0 227 87.5 401t255.5 272t394 98q260 0 437 -112l-60 -139q-163 96 -374 96q-259 0 -403 -173t-144 -450q0 -107 22 -205.5t68 -184t112 -147.5t159 -98t203 -36q186 0 366 86l29 -144q-62 -38 -182 -67t-253 -29z M832 -20q-216 3 -380 114t-250.5 298t-86.5 420q0 227 87.5 401t255.5 272t394 98q260 0 437 -112l-60 -139q-163 96 -374 96q-259 0 -403 -173t-144 -450q0 -107 22 -205.5t68 -184t112 -147.5t159 -98t203 -36q186 0 366 86l29 -144q-62 -38 -182 -67t-253 -29zM832 -20 q-216 3 -380 114t-250.5 298t-86.5 420q0 227 87.5 401t255.5 272t394 98q260 0 437 -112l-60 -139q-163 96 -374 96q-259 0 -403 -173t-144 -450q0 -107 22 -205.5t68 -184t112 -147.5t159 -98t203 -36q186 0 366 86l29 -144q-62 -38 -182 -67t-253 -29zM832 -20 q-216 3 -380 114t-250.5 298t-86.5 420q0 227 87.5 401t255.5 272t394 98q260 0 437 -112l-60 -139q-163 96 -374 96q-259 0 -403 -173t-144 -450q0 -107 22 -205.5t68 -184t112 -147.5t159 -98t203 -36q186 0 366 86l29 -144q-62 -38 -182 -67t-253 -29zM832 -20 q-216 3 -380 114t-250.5 298t-86.5 420q0 227 87.5 401t255.5 272t394 98q260 0 437 -112l-60 -139q-163 96 -374 96q-259 0 -403 -173t-144 -450q0 -107 22 -205.5t68 -184t112 -147.5t159 -98t203 -36q186 0 366 86l29 -144q-62 -38 -182 -67t-253 -29zM832 -20 q-216 3 -380 114t-250.5 298t-86.5 420q0 227 87.5 401t255.5 272t394 98q260 0 437 -112l-60 -139q-163 96 -374 96q-259 0 -403 -173t-144 -450q0 -107 22 -205.5t68 -184t112 -147.5t159 -98t203 -36q186 0 366 86l29 -144q-62 -38 -182 -67t-253 -29zM832 -20 q-216 3 -380 114t-250.5 298t-86.5 420q0 227 87.5 401t255.5 272t394 98q260 0 437 -112l-60 -139q-163 96 -374 96q-259 0 -403 -173t-144 -450q0 -107 22 -205.5t68 -184t112 -147.5t159 -98t203 -36q186 0 366 86l29 -144q-62 -38 -182 -67t-253 -29zM832 -20 q-216 3 -380 114t-250.5 298t-86.5 420q0 227 87.5 401t255.5 272t394 98q260 0 437 -112l-60 -139q-163 96 -374 96q-259 0 -403 -173t-144 -450q0 -107 22 -205.5t68 -184t112 -147.5t159 -98t203 -36q186 0 366 86l29 -144q-62 -38 -182 -67t-253 -29zM832 -20 q-216 3 -380 114t-250.5 298t-86.5 420q0 227 87.5 401t255.5 272t394 98q260 0 437 -112l-60 -139q-163 96 -374 96q-259 0 -403 -173t-144 -450q0 -107 22 -205.5t68 -184t112 -147.5t159 -98t203 -36q186 0 366 86l29 -144q-62 -38 -182 -67t-253 -29zM832 -20 q-216 3 -380 114t-250.5 298t-86.5 420q0 227 87.5 401t255.5 272t394 98q260 0 437 -112l-60 -139q-163 96 -374 96q-259 0 -403 -173t-144 -450q0 -107 22 -205.5t68 -184t112 -147.5t159 -98t203 -36q186 0 366 86l29 -144q-62 -38 -182 -67t-253 -29zM832 -20 q-216 3 -380 114t-250.5 298t-86.5 420q0 227 87.5 401t255.5 272t394 98q260 0 437 -112l-60 -139q-163 96 -374 96q-259 0 -403 -173t-144 -450q0 -107 22 -205.5t68 -184t112 -147.5t159 -98t203 -36q186 0 366 86l29 -144q-62 -38 -182 -67t-253 -29zM832 -20 q-216 3 -380 114t-250.5 298t-86.5 420q0 227 87.5 401t255.5 272t394 98q260 0 437 -112l-60 -139q-163 96 -374 96q-259 0 -403 -173t-144 -450q0 -107 22 -205.5t68 -184t112 -147.5t159 -98t203 -36q186 0 366 86l29 -144q-62 -38 -182 -67t-253 -29z" />
<glyph unicode="&#x422;" horiz-adv-x="1218" d="M1175 1557v-156h-466v-1401h-201v1401h-464v156h1131zM1175 1557v-156h-466v-1401h-201v1401h-464v156h1131z" />
<glyph unicode="&#x423;" horiz-adv-x="1397" d="M286 1508l464 -858l402 858h211l-717 -1508h-209l198 475l-563 1033h214z" />
<glyph unicode="&#x424;" horiz-adv-x="1753" d="M952 1230v-941q258 23 384 146t126 324.5t-126 324t-384 146.5zM786 290v939q-247 -26 -370.5 -148t-123.5 -322t123.5 -321t370.5 -148zM952 0h-166v130q-329 28 -507.5 193t-178.5 436t178.5 436t507.5 193v136h166v-134q330 -22 516 -185t186 -445.5t-186 -445.5 t-516 -185v-129z" />
<glyph unicode="&#x425;" horiz-adv-x="1339" d="M780 794l520 -794h-208l-417 641l-415 -641h-208l519 794l-519 763h208l415 -609l417 609h208z" />
<glyph unicode="&#x426;" horiz-adv-x="1552" d="M1434 -308h-180v308h-1075v1508h195v-1353h709v1353h195v-1350h156v-466z" />
<glyph unicode="&#x427;" horiz-adv-x="1275" d="M1139 0h-195v516h-384q-212 0 -325 108t-113 310v574h195v-538q0 -90 16 -147t54.5 -86.5t86 -40.5t123.5 -11h347v823h195v-1508z" />
<glyph unicode="&#x428;" horiz-adv-x="1708" d="M764 158v1350h180v-1350h431v1350h182v-1508h-1405v1508h182v-1350h430z" />
<glyph unicode="&#x429;" horiz-adv-x="1781" d="M791 158v1350h180v-1350h431v1350h182v-1350h113v-466h-178v308h-1340v1508h182v-1350h430z" />
<glyph unicode="&#x42a;" horiz-adv-x="1562" d="M698 709v-550h238q100 0 166.5 18t103.5 55.5t52 86.5t15 120q0 131 -78 200.5t-262 69.5h-235zM698 1508v-642h214q270 0 413.5 -107t143.5 -323q0 -436 -554 -436h-413v1350h-359v158h555z" />
<glyph unicode="&#x42b;" horiz-adv-x="1155" d="M363 709v-551h151q188 0 270.5 66.5t82.5 204.5q0 137 -83.5 208.5t-276.5 71.5h-144zM363 1508v-642h145q270 0 412.5 -112t142.5 -321q0 -203 -144.5 -318t-424.5 -115h-327v1508h196z" />
<glyph unicode="&#x42c;" horiz-adv-x="1602" d="M167 1508h196v-1508h-196v1508zM810 709v-551h166q98 0 165 18t105 56t53 87t15 120q0 137 -75 203.5t-260 66.5h-169zM810 1508v-642h155q268 0 406.5 -107.5t138.5 -314.5q0 -205 -138.5 -324.5t-403.5 -119.5h-354v1508h196z" />
<glyph unicode="&#x42d;" horiz-adv-x="1428" d="M581 -24q-285 0 -457 139l65 138q70 -53 171 -87.5t212 -34.5q233 0 370 153.5t160 391.5h-702v157h704q-5 93 -27 174.5t-64.5 154t-103.5 124.5t-150 82.5t-199 30.5q-109 0 -206.5 -35.5t-165.5 -88.5l-58 146q153 134 454 134q172 0 310 -62t225 -169t133 -248 t46 -304q0 -171 -46.5 -315.5t-135 -252t-225.5 -168t-310 -60.5z" />
<glyph unicode="&#x42e;" horiz-adv-x="2111" d="M1319 131q92 0 169.5 33t132.5 91.5t93 138.5t56.5 173t18.5 196q0 123 -30.5 235.5t-87.5 202.5t-150.5 144t-211.5 54q-114 0 -204.5 -52.5t-146.5 -142.5t-85.5 -203t-29.5 -241q0 -126 31 -238.5t88.5 -200t149.5 -139t207 -51.5zM1317 -24q-147 0 -269 57 t-204 155.5t-131.5 229t-60.5 281.5h-318v-699h-182v1523h182v-670h321q17 209 95.5 365t222 246.5t335.5 90.5q157 0 284.5 -60.5t212 -167.5t130.5 -253.5t46 -317.5q0 -161 -44 -302.5t-126.5 -247.5t-209.5 -168t-284 -62z" />
<glyph unicode="&#x42f;" horiz-adv-x="1413" d="M1095 791v559h-319q-190 0 -278 -68.5t-88 -205.5q0 -140 81 -212.5t285 -72.5h319zM367 0h-218q32 68 178.5 351.5t165.5 322.5q-132 50 -205 150t-73 244q0 220 148 330t432 110h495v-1508h-195v634h-173q-169 0 -248 7q-52 -111 -153 -321t-154 -320z" />
<glyph unicode="&#x430;" horiz-adv-x="1180" d="M516 114q107 0 212 49t131 118v268q-104 -10 -130 -14q-224 -27 -308 -76.5t-84 -165.5q0 -87 52 -133t127 -46zM491 -24q-154 0 -251.5 84t-97.5 235q0 172 133.5 255.5t387.5 102.5l196 16v98q0 116 -59 170.5t-180 54.5q-82 0 -185 -22t-181 -61q-14 36 -52 138 q72 41 189 67.5t225 26.5q215 0 327 -93t112 -308v-740h-158l-30 125q-49 -72 -153 -110.5t-223 -38.5zM516 114q107 0 212 49t131 118v268q-104 -10 -130 -14q-224 -27 -308 -76.5t-84 -165.5q0 -87 52 -133t127 -46zM491 -24q-154 0 -251.5 84t-97.5 235 q0 172 133.5 255.5t387.5 102.5l196 16v98q0 116 -59 170.5t-180 54.5q-82 0 -185 -22t-181 -61q-14 36 -52 138q72 41 189 67.5t225 26.5q215 0 327 -93t112 -308v-740h-158l-30 125q-49 -72 -153 -110.5t-223 -38.5zM516 114q107 0 212 49t131 118v268q-104 -10 -130 -14 q-224 -27 -308 -76.5t-84 -165.5q0 -87 52 -133t127 -46zM491 -24q-154 0 -251.5 84t-97.5 235q0 172 133.5 255.5t387.5 102.5l196 16v98q0 116 -59 170.5t-180 54.5q-82 0 -185 -22t-181 -61q-14 36 -52 138q72 41 189 67.5t225 26.5q215 0 327 -93t112 -308v-740h-158 l-30 125q-49 -72 -153 -110.5t-223 -38.5zM516 114q107 0 212 49t131 118v268q-104 -10 -130 -14q-224 -27 -308 -76.5t-84 -165.5q0 -87 52 -133t127 -46zM491 -24q-154 0 -251.5 84t-97.5 235q0 172 133.5 255.5t387.5 102.5l196 16v98q0 116 -59 170.5t-180 54.5 q-82 0 -185 -22t-181 -61q-14 36 -52 138q72 41 189 67.5t225 26.5q215 0 327 -93t112 -308v-740h-158l-30 125q-49 -72 -153 -110.5t-223 -38.5zM516 114q107 0 212 49t131 118v268q-104 -10 -130 -14q-224 -27 -308 -76.5t-84 -165.5q0 -87 52 -133t127 -46zM491 -24 q-154 0 -251.5 84t-97.5 235q0 172 133.5 255.5t387.5 102.5l196 16v98q0 116 -59 170.5t-180 54.5q-82 0 -185 -22t-181 -61q-14 36 -52 138q72 41 189 67.5t225 26.5q215 0 327 -93t112 -308v-740h-158l-30 125q-49 -72 -153 -110.5t-223 -38.5zM516 114q107 0 212 49 t131 118v268q-104 -10 -130 -14q-224 -27 -308 -76.5t-84 -165.5q0 -87 52 -133t127 -46zM491 -24q-154 0 -251.5 84t-97.5 235q0 172 133.5 255.5t387.5 102.5l196 16v98q0 116 -59 170.5t-180 54.5q-82 0 -185 -22t-181 -61q-14 36 -52 138q72 41 189 67.5t225 26.5 q215 0 327 -93t112 -308v-740h-158l-30 125q-49 -72 -153 -110.5t-223 -38.5zM516 114q107 0 212 49t131 118v268q-104 -10 -130 -14q-224 -27 -308 -76.5t-84 -165.5q0 -87 52 -133t127 -46zM491 -24q-154 0 -251.5 84t-97.5 235q0 172 133.5 255.5t387.5 102.5l196 16v98 q0 116 -59 170.5t-180 54.5q-82 0 -185 -22t-181 -61q-14 36 -52 138q72 41 189 67.5t225 26.5q215 0 327 -93t112 -308v-740h-158l-30 125q-49 -72 -153 -110.5t-223 -38.5zM516 114q107 0 212 49t131 118v268q-104 -10 -130 -14q-224 -27 -308 -76.5t-84 -165.5 q0 -87 52 -133t127 -46zM491 -24q-154 0 -251.5 84t-97.5 235q0 172 133.5 255.5t387.5 102.5l196 16v98q0 116 -59 170.5t-180 54.5q-82 0 -185 -22t-181 -61q-14 36 -52 138q72 41 189 67.5t225 26.5q215 0 327 -93t112 -308v-740h-158l-30 125q-49 -72 -153 -110.5 t-223 -38.5zM516 114q107 0 212 49t131 118v268q-104 -10 -130 -14q-224 -27 -308 -76.5t-84 -165.5q0 -87 52 -133t127 -46zM491 -24q-154 0 -251.5 84t-97.5 235q0 172 133.5 255.5t387.5 102.5l196 16v98q0 116 -59 170.5t-180 54.5q-82 0 -185 -22t-181 -61 q-14 36 -52 138q72 41 189 67.5t225 26.5q215 0 327 -93t112 -308v-740h-158l-30 125q-49 -72 -153 -110.5t-223 -38.5zM516 114q107 0 212 49t131 118v268q-104 -10 -130 -14q-224 -27 -308 -76.5t-84 -165.5q0 -87 52 -133t127 -46zM491 -24q-154 0 -251.5 84t-97.5 235 q0 172 133.5 255.5t387.5 102.5l196 16v98q0 116 -59 170.5t-180 54.5q-82 0 -185 -22t-181 -61q-14 36 -52 138q72 41 189 67.5t225 26.5q215 0 327 -93t112 -308v-740h-158l-30 125q-49 -72 -153 -110.5t-223 -38.5zM516 114q107 0 212 49t131 118v268q-104 -10 -130 -14 q-224 -27 -308 -76.5t-84 -165.5q0 -87 52 -133t127 -46zM491 -24q-154 0 -251.5 84t-97.5 235q0 172 133.5 255.5t387.5 102.5l196 16v98q0 116 -59 170.5t-180 54.5q-82 0 -185 -22t-181 -61q-14 36 -52 138q72 41 189 67.5t225 26.5q215 0 327 -93t112 -308v-740h-158 l-30 125q-49 -72 -153 -110.5t-223 -38.5zM516 114q107 0 212 49t131 118v268q-104 -10 -130 -14q-224 -27 -308 -76.5t-84 -165.5q0 -87 52 -133t127 -46zM491 -24q-154 0 -251.5 84t-97.5 235q0 172 133.5 255.5t387.5 102.5l196 16v98q0 116 -59 170.5t-180 54.5 q-82 0 -185 -22t-181 -61q-14 36 -52 138q72 41 189 67.5t225 26.5q215 0 327 -93t112 -308v-740h-158l-30 125q-49 -72 -153 -110.5t-223 -38.5zM516 114q107 0 212 49t131 118v268q-104 -10 -130 -14q-224 -27 -308 -76.5t-84 -165.5q0 -87 52 -133t127 -46zM491 -24 q-154 0 -251.5 84t-97.5 235q0 172 133.5 255.5t387.5 102.5l196 16v98q0 116 -59 170.5t-180 54.5q-82 0 -185 -22t-181 -61q-14 36 -52 138q72 41 189 67.5t225 26.5q215 0 327 -93t112 -308v-740h-158l-30 125q-49 -72 -153 -110.5t-223 -38.5z" />
<glyph unicode="&#x431;" horiz-adv-x="1100" d="M578 125q149 0 220 79.5t71 242.5q0 126 -71.5 205t-184.5 79q-64 0 -155.5 -33.5t-161.5 -106.5q-5 -39 -5 -81q0 -186 83.5 -285.5t203.5 -99.5zM584 -20q-89 0 -162.5 24t-122 61.5t-86.5 90t-59 103.5t-33.5 108t-16.5 97.5t-4 77.5q0 351 194.5 548.5t604.5 214.5 l24 -145q-258 -8 -417.5 -107t-198.5 -291q92 53 164.5 81t157.5 28q125 0 219.5 -63.5t140.5 -160t46 -203.5q0 -200 -124.5 -332t-326.5 -132z" />
<glyph unicode="&#x432;" horiz-adv-x="1165" d="M363 974v-324h308q93 0 132.5 46.5t39.5 114.5q0 75 -44.5 119t-141.5 44h-294zM363 510v-373h298q124 0 171 48t47 143q0 36 -7.5 65t-27.5 57t-62.5 44t-103.5 16h-315zM167 0v1119h499q187 0 280 -79t93 -202q0 -90 -44.5 -148.5t-147.5 -92.5q116 -28 172 -107.5 t56 -166.5q0 -67 -22.5 -123t-69.5 -101.5t-128 -72t-189 -26.5h-499z" />
<glyph unicode="&#x433;" horiz-adv-x="947" d="M872 983h-509v-983h-196v1119h718z" />
<glyph unicode="&#x434;" horiz-adv-x="1253" d="M890 983h-342l-62 -448q-20 -147 -57 -258.5t-68 -142.5h529v849zM50 -308v442h99q99 79 141 371l87 614h709v-985h89v-442h-166v308h-797v-308h-162z" />
<glyph unicode="&#x435;" horiz-adv-x="1240" d="M669 -24q-247 0 -400.5 157t-153.5 423q0 255 154 420t378 165q213 0 330.5 -141.5t117.5 -380.5l-6 -94h-781q3 -187 113 -293.5t276 -106.5q164 0 347 96l27 -148q-159 -97 -402 -97zM312 652h600q-5 170 -66 256.5t-193 86.5q-134 0 -230.5 -93.5t-110.5 -249.5z M669 -24q-247 0 -400.5 157t-153.5 423q0 255 154 420t378 165q213 0 330.5 -141.5t117.5 -380.5l-6 -94h-781q3 -187 113 -293.5t276 -106.5q164 0 347 96l27 -148q-159 -97 -402 -97zM312 652h600q-5 170 -66 256.5t-193 86.5q-134 0 -230.5 -93.5t-110.5 -249.5z" />
<glyph unicode="&#x436;" horiz-adv-x="1584" d="M698 616v503h188v-503l445 503h202l-501 -547l511 -572h-207l-450 515v-515h-188v515l-449 -515h-208l512 572l-501 547h203z" />
<glyph unicode="&#x437;" horiz-adv-x="968" d="M874 302q0 -135 -119.5 -228.5t-305.5 -93.5q-216 0 -339 98l39 138q49 -38 133.5 -64.5t166.5 -26.5q107 0 171 53.5t64 138.5q0 83 -58 139t-184 56h-142v133h142q107 0 163.5 49t56.5 119q0 85 -58.5 132t-171.5 47q-78 0 -154 -24.5t-130 -63.5q-35 96 -49 132 q126 105 351 105q102 0 179 -25.5t121 -70t66 -97.5t22 -114q0 -190 -169 -249q100 -34 152.5 -110t52.5 -173z" />
<glyph unicode="&#x438;" horiz-adv-x="1193" d="M317 267l561 747v105h171v-1119h-171v760l-571 -760h-161v1119h171v-852z" />
<glyph unicode="&#x439;" horiz-adv-x="1193" d="M854 1526q0 -123 -76.5 -185.5t-181.5 -62.5q-104 0 -179 62.5t-75 185.5h119q0 -69 38 -106t97.5 -37t99 37t39.5 106h119zM317 267l561 747v105h171v-1119h-171v760l-571 -760h-161v1119h171v-852zM854 1526q0 -123 -76.5 -185.5t-181.5 -62.5q-104 0 -179 62.5 t-75 185.5h119q0 -69 38 -106t97.5 -37t99 37t39.5 106h119zM317 267l561 747v105h171v-1119h-171v760l-571 -760h-161v1119h171v-852z" />
<glyph unicode="&#x43a;" horiz-adv-x="1191" d="M167 1119h196v-492l449 491h241l-523 -556l579 -562h-242l-504 492v-492h-196v1119z" />
<glyph unicode="&#x43b;" horiz-adv-x="1263" d="M900 0v974h-348l-66 -466q-16 -106 -32 -179t-47 -143.5t-73.5 -111t-108.5 -65.5t-156 -25l-15 148q120 0 165.5 78t80.5 328l82 581h714v-1119h-196z" />
<glyph unicode="&#x43c;" horiz-adv-x="1311" d="M974 1119h171v-1119h-172v796l-256 -566h-109l-270 566v-796h-171v1119h171l317 -688z" />
<glyph unicode="&#x43d;" horiz-adv-x="1280" d="M917 665v454h196v-1119h-196v528h-554v-528h-196v1119h196v-454h554z" />
<glyph unicode="&#x43e;" horiz-adv-x="1274" d="M637.5 125q165.5 0 245.5 118.5t80 313.5q0 128 -32.5 223.5t-107 153.5t-186.5 58t-187 -58t-107.5 -153.5t-32.5 -223.5q0 -195 81 -313.5t246.5 -118.5zM637.5 -24q-236.5 0 -379.5 164t-143 419q0 261 139.5 421.5t382.5 160.5t382.5 -160.5t139.5 -421.5 q0 -255 -142.5 -419t-379 -164zM637.5 125q165.5 0 245.5 118.5t80 313.5q0 128 -32.5 223.5t-107 153.5t-186.5 58t-187 -58t-107.5 -153.5t-32.5 -223.5q0 -195 81 -313.5t246.5 -118.5zM637.5 -24q-236.5 0 -379.5 164t-143 419q0 261 139.5 421.5t382.5 160.5 t382.5 -160.5t139.5 -421.5q0 -255 -142.5 -419t-379 -164z" />
<glyph unicode="&#x43f;" horiz-adv-x="1193" d="M878 0v974h-561v-974h-171v1119h903v-1119h-171z" />
<glyph unicode="&#x440;" horiz-adv-x="1318" d="M671 120q158 0 242 117.5t84 322.5q0 203 -83 320t-242 117q-327 0 -327 -419q0 -227 75.5 -342.5t250.5 -115.5zM149 1118h177l19 -183q45 98 142 152t214 54q230 0 361 -162.5t131 -425.5q0 -252 -136.5 -414.5t-354.5 -162.5q-110 0 -208.5 48.5t-154.5 127.5 q6 -92 6 -214v-412l-196 -11v1603z" />
<glyph unicode="&#x441;" horiz-adv-x="1058" d="M651 -24q-235 0 -385.5 163t-150.5 417q0 260 152.5 422.5t389.5 162.5q88 0 172.5 -21.5t131.5 -55.5l-47 -132q-113 60 -231 60q-175 0 -274 -118t-99 -320q0 -196 98 -312.5t275 -116.5q66 0 121 17.5t124 53.5l26 -139q-111 -81 -303 -81zM651 -24q-235 0 -385.5 163 t-150.5 417q0 260 152.5 422.5t389.5 162.5q88 0 172.5 -21.5t131.5 -55.5l-47 -132q-113 60 -231 60q-175 0 -274 -118t-99 -320q0 -196 98 -312.5t275 -116.5q66 0 121 17.5t124 53.5l26 -139q-111 -81 -303 -81z" />
<glyph unicode="&#x442;" horiz-adv-x="988" d="M906 1119v-145h-314v-974h-196v974h-313v145h823z" />
<glyph unicode="&#x443;" horiz-adv-x="1134" d="M103 -327l-7 156q22 -3 60 -3q46 0 86.5 7t72.5 17.5t60 27.5t47.5 32.5t38 38.5t30 40t22.5 40.5t16 36t12 33.5t9 25l-492 994h211l364 -808l272 808h206l-408 -1073q-140 -373 -548 -373q-34 0 -52 1z" />
<glyph unicode="&#x444;" horiz-adv-x="1506" d="M991 171q70 0 122.5 58t79 147t26.5 191q0 160 -60.5 272.5t-163.5 112.5q-106 0 -171 -32v-718q59 -31 167 -31zM477 171q107 0 168 28v724q-58 29 -171 29q-70 0 -121.5 -55t-76.5 -141t-25 -189q0 -160 61.5 -278t164.5 -118zM824 -314h-179v372q-65 -26 -173 -26 q-116 0 -208.5 74t-142 196t-49.5 267q0 223 111.5 372.5t290.5 149.5q89 0 171 -33v279h179v-279q82 33 171 33q178 0 290.5 -150t112.5 -372t-114 -379.5t-288 -157.5q-107 0 -172 26v-372z" />
<glyph unicode="&#x445;" horiz-adv-x="1143" d="M570 698l299 420h215l-404 -551l414 -567h-208l-316 444l-315 -444h-206l410 569l-394 549h206zM570 698l299 420h215l-404 -551l414 -567h-208l-316 444l-315 -444h-206l410 569l-394 549h206z" />
<glyph unicode="&#x446;" horiz-adv-x="1225" d="M1172 -308h-196v308h-808v1119h195v-985h504v985h195v-983h110v-444z" />
<glyph unicode="&#x447;" horiz-adv-x="1134" d="M968 0h-196v412q-116 -10 -246 -10q-193 0 -296 113t-103 325v279h196v-261q0 -179 52.5 -244t182.5 -65q51 0 104.5 2t81.5 5l28 2v561h196v-1119z" />
<glyph unicode="&#x448;" horiz-adv-x="1516" d="M696 134v985h185v-985h295v985h186v-1119h-1147v1119h186v-985h295z" />
<glyph unicode="&#x449;" horiz-adv-x="1516" d="M1262 -308v308h-1094v1119h195v-985h316v985h195v-985h280v985h194v-985h110v-442h-196z" />
<glyph unicode="&#x44a;" horiz-adv-x="1115" d="M422 137h235q49 0 86 21.5t57 57t30 74t10 78.5q0 84 -47.5 144t-141.5 60h-229v-435zM227 0v983h-179v136h374v-408h226q100 0 175.5 -28t121 -76.5t68 -109.5t22.5 -132q0 -72 -21.5 -135t-65 -115.5t-119 -83.5t-174.5 -31h-428z" />
<glyph unicode="&#x44b;" horiz-adv-x="1564" d="M362 572v-435h235q48 0 85 21.5t57 57t30.5 74t10.5 78.5q0 84 -48 144t-142 60h-228zM362 1119v-408h226q100 0 175.5 -28t121 -76.5t67.5 -109.5t22 -132q0 -72 -21 -135t-65 -115.5t-119.5 -83.5t-173.5 -31h-428v1119h195zM1203 0v1118h195v-1118h-195z" />
<glyph unicode="&#x44c;" horiz-adv-x="1055" d="M362 572v-435h235q48 0 85 21.5t57 57t30.5 74t10.5 78.5q0 84 -48 144t-142 60h-228zM362 1119v-408h226q100 0 175.5 -28t121 -76.5t67.5 -109.5t22 -132q0 -72 -21 -135t-65 -115.5t-119.5 -83.5t-173.5 -31h-428v1119h195z" />
<glyph unicode="&#x44d;" horiz-adv-x="1131" d="M460 -26q-218 0 -330 98l46 126q136 -83 274 -83q157 0 257.5 100.5t117.5 270.5h-471v145h471q-17 174 -112 274t-264 100q-140 0 -273 -85l-47 124q57 49 146 75.5t183 26.5q136 0 242 -47.5t171.5 -130t100 -188t34.5 -224.5q0 -116 -35 -219t-101 -184.5t-172 -130 t-238 -48.5z" />
<glyph unicode="&#x44e;" horiz-adv-x="1562" d="M972 115q80 0 137.5 36t89 100.5t46 140t14.5 166.5q0 447 -290 447q-80 0 -140 -37.5t-93.5 -102.5t-49.5 -143t-16 -168q0 -88 16 -163.5t50.5 -139t95 -100t140.5 -36.5zM969 -26q-114 0 -202.5 39.5t-144.5 110t-87.5 161.5t-39.5 202h-178v-487h-171v1119h171v-490 h178q8 111 40 203t88.5 163t145.5 111t203 40q124 0 216 -45.5t145.5 -127t78 -185t24.5 -228.5q0 -95 -16.5 -180t-52 -160.5t-89 -129t-133 -85t-176.5 -31.5z" />
<glyph unicode="&#x44f;" horiz-adv-x="1181" d="M497 590h324v384h-324q-48 0 -85 -17t-57.5 -47t-30.5 -63.5t-10 -70.5q0 -74 45 -130t138 -56zM120 0l233 468q-113 36 -173.5 120.5t-60.5 187.5q0 144 98.5 243.5t290.5 99.5h507v-1119h-194v447h-278l-205 -447h-218z" />
<glyph unicode="&#x450;" horiz-adv-x="1240" d="M541 1324l-330 395h256l188 -395h-114zM669 -24q-247 0 -400.5 157t-153.5 423q0 255 154 420t378 165q213 0 330.5 -141.5t117.5 -380.5l-6 -94h-781q3 -187 113 -293.5t276 -106.5q164 0 347 96l27 -148q-159 -97 -402 -97zM312 652h600q-5 170 -66 256.5t-193 86.5 q-134 0 -230.5 -93.5t-110.5 -249.5zM669 -24q-247 0 -400.5 157t-153.5 423q0 255 154 420t378 165q213 0 330.5 -141.5t117.5 -380.5l-6 -94h-781q3 -187 113 -293.5t276 -106.5q164 0 347 96l27 -148q-159 -97 -402 -97zM312 652h600q-5 170 -66 256.5t-193 86.5 q-134 0 -230.5 -93.5t-110.5 -249.5z" />
<glyph unicode="&#x451;" horiz-adv-x="1240" d="M716 1324v216h158v-216h-158zM319 1324v216h158v-216h-158zM669 -24q-247 0 -400.5 157t-153.5 423q0 255 154 420t378 165q213 0 330.5 -141.5t117.5 -380.5l-6 -94h-781q3 -187 113 -293.5t276 -106.5q164 0 347 96l27 -148q-159 -97 -402 -97zM312 652h600 q-5 170 -66 256.5t-193 86.5q-134 0 -230.5 -93.5t-110.5 -249.5zM669 -24q-247 0 -400.5 157t-153.5 423q0 255 154 420t378 165q213 0 330.5 -141.5t117.5 -380.5l-6 -94h-781q3 -187 113 -293.5t276 -106.5q164 0 347 96l27 -148q-159 -97 -402 -97zM312 652h600 q-5 170 -66 256.5t-193 86.5q-134 0 -230.5 -93.5t-110.5 -249.5z" />
<glyph unicode="&#x452;" horiz-adv-x="1265" d="M734 -289l-13 146h44q47 0 76 2.5t52.5 14t35.5 26t19.5 45t10 66.5t2.5 95v269q0 82 -5 137.5t-19 104t-38.5 76.5t-64.5 44t-97 16q-122 0 -221 -80.5t-123 -168.5v-504h-171v1119h-95v119h95v301h171v-301h423v-119h-423v-392q145 182 360 182q379 0 379 -455v-293 q0 -65 -1.5 -109t-6.5 -91.5t-15 -78.5t-26.5 -62t-40.5 -49.5t-57.5 -33t-77 -20.5t-101.5 -6h-72z" />
<glyph unicode="&#x453;" horiz-adv-x="947" d="M468 1324l190 395h258l-332 -395h-116zM872 983h-509v-983h-196v1119h718z" />
<glyph unicode="&#x454;" horiz-adv-x="1124" d="M666 -26q-132 0 -237.5 48.5t-172 130t-101 184.5t-34.5 219q0 119 34 224.5t100 188t172.5 130t242.5 47.5q94 0 183 -26.5t146 -75.5l-47 -124q-133 85 -274 85q-170 0 -264.5 -100t-112.5 -274h473v-145h-473q18 -170 118.5 -270.5t256.5 -100.5q138 0 275 83l47 -126 q-53 -46 -139.5 -72t-192.5 -26z" />
<glyph unicode="&#x455;" horiz-adv-x="911" d="M494 -24q-238 0 -356 78l36 134q147 -78 311 -78q118 0 181.5 45t63.5 129q0 74 -47.5 113t-202.5 95l-76 29q-145 54 -209 130t-65 183q0 134 101 220.5t283 86.5q178 0 333 -73l-43 -122q-145 61 -282 61q-103 0 -163 -46.5t-60 -119.5q0 -64 40 -96t166 -81l72 -28 q171 -67 241.5 -139.5t70.5 -195.5q-2 -155 -106 -240t-289 -85zM494 -24q-238 0 -356 78l36 134q147 -78 311 -78q118 0 181.5 45t63.5 129q0 74 -47.5 113t-202.5 95l-76 29q-145 54 -209 130t-65 183q0 134 101 220.5t283 86.5q178 0 333 -73l-43 -122q-145 61 -282 61 q-103 0 -163 -46.5t-60 -119.5q0 -64 40 -96t166 -81l72 -28q171 -67 241.5 -139.5t70.5 -195.5q-2 -155 -106 -240t-289 -85zM494 -24q-238 0 -356 78l36 134q147 -78 311 -78q118 0 181.5 45t63.5 129q0 74 -47.5 113t-202.5 95l-76 29q-145 54 -209 130t-65 183 q0 134 101 220.5t283 86.5q178 0 333 -73l-43 -122q-145 61 -282 61q-103 0 -163 -46.5t-60 -119.5q0 -64 40 -96t166 -81l72 -28q171 -67 241.5 -139.5t70.5 -195.5q-2 -155 -106 -240t-289 -85zM494 -24q-238 0 -356 78l36 134q147 -78 311 -78q118 0 181.5 45t63.5 129 q0 74 -47.5 113t-202.5 95l-76 29q-145 54 -209 130t-65 183q0 134 101 220.5t283 86.5q178 0 333 -73l-43 -122q-145 61 -282 61q-103 0 -163 -46.5t-60 -119.5q0 -64 40 -96t166 -81l72 -28q171 -67 241.5 -139.5t70.5 -195.5q-2 -155 -106 -240t-289 -85zM494 -24 q-238 0 -356 78l36 134q147 -78 311 -78q118 0 181.5 45t63.5 129q0 74 -47.5 113t-202.5 95l-76 29q-145 54 -209 130t-65 183q0 134 101 220.5t283 86.5q178 0 333 -73l-43 -122q-145 61 -282 61q-103 0 -163 -46.5t-60 -119.5q0 -64 40 -96t166 -81l72 -28 q171 -67 241.5 -139.5t70.5 -195.5q-2 -155 -106 -240t-289 -85zM494 -24q-238 0 -356 78l36 134q147 -78 311 -78q118 0 181.5 45t63.5 129q0 74 -47.5 113t-202.5 95l-76 29q-145 54 -209 130t-65 183q0 134 101 220.5t283 86.5q178 0 333 -73l-43 -122q-145 61 -282 61 q-103 0 -163 -46.5t-60 -119.5q0 -64 40 -96t166 -81l72 -28q171 -67 241.5 -139.5t70.5 -195.5q-2 -155 -106 -240t-289 -85zM494 -24q-238 0 -356 78l36 134q147 -78 311 -78q118 0 181.5 45t63.5 129q0 74 -47.5 113t-202.5 95l-76 29q-145 54 -209 130t-65 183 q0 134 101 220.5t283 86.5q178 0 333 -73l-43 -122q-145 61 -282 61q-103 0 -163 -46.5t-60 -119.5q0 -64 40 -96t166 -81l72 -28q171 -67 241.5 -139.5t70.5 -195.5q-2 -155 -106 -240t-289 -85zM494 -24q-238 0 -356 78l36 134q147 -78 311 -78q118 0 181.5 45t63.5 129 q0 74 -47.5 113t-202.5 95l-76 29q-145 54 -209 130t-65 183q0 134 101 220.5t283 86.5q178 0 333 -73l-43 -122q-145 61 -282 61q-103 0 -163 -46.5t-60 -119.5q0 -64 40 -96t166 -81l72 -28q171 -67 241.5 -139.5t70.5 -195.5q-2 -155 -106 -240t-289 -85zM494 -24 q-238 0 -356 78l36 134q147 -78 311 -78q118 0 181.5 45t63.5 129q0 74 -47.5 113t-202.5 95l-76 29q-145 54 -209 130t-65 183q0 134 101 220.5t283 86.5q178 0 333 -73l-43 -122q-145 61 -282 61q-103 0 -163 -46.5t-60 -119.5q0 -64 40 -96t166 -81l72 -28 q171 -67 241.5 -139.5t70.5 -195.5q-2 -155 -106 -240t-289 -85zM494 -24q-238 0 -356 78l36 134q147 -78 311 -78q118 0 181.5 45t63.5 129q0 74 -47.5 113t-202.5 95l-76 29q-145 54 -209 130t-65 183q0 134 101 220.5t283 86.5q178 0 333 -73l-43 -122q-145 61 -282 61 q-103 0 -163 -46.5t-60 -119.5q0 -64 40 -96t166 -81l72 -28q171 -67 241.5 -139.5t70.5 -195.5q-2 -155 -106 -240t-289 -85zM494 -24q-238 0 -356 78l36 134q147 -78 311 -78q118 0 181.5 45t63.5 129q0 74 -47.5 113t-202.5 95l-76 29q-145 54 -209 130t-65 183 q0 134 101 220.5t283 86.5q178 0 333 -73l-43 -122q-145 61 -282 61q-103 0 -163 -46.5t-60 -119.5q0 -64 40 -96t166 -81l72 -28q171 -67 241.5 -139.5t70.5 -195.5q-2 -155 -106 -240t-289 -85zM494 -24q-238 0 -356 78l36 134q147 -78 311 -78q118 0 181.5 45t63.5 129 q0 74 -47.5 113t-202.5 95l-76 29q-145 54 -209 130t-65 183q0 134 101 220.5t283 86.5q178 0 333 -73l-43 -122q-145 61 -282 61q-103 0 -163 -46.5t-60 -119.5q0 -64 40 -96t166 -81l72 -28q171 -67 241.5 -139.5t70.5 -195.5q-2 -155 -106 -240t-289 -85zM494 -24 q-238 0 -356 78l36 134q147 -78 311 -78q118 0 181.5 45t63.5 129q0 74 -47.5 113t-202.5 95l-76 29q-145 54 -209 130t-65 183q0 134 101 220.5t283 86.5q178 0 333 -73l-43 -122q-145 61 -282 61q-103 0 -163 -46.5t-60 -119.5q0 -64 40 -96t166 -81l72 -28 q171 -67 241.5 -139.5t70.5 -195.5q-2 -155 -106 -240t-289 -85z" />
<glyph unicode="&#x456;" horiz-adv-x="584" d="M199 1323v201h195v-201h-195zM199 0v1118h195v-1118h-195zM199 1323v201h195v-201h-195zM199 0v1118h195v-1118h-195zM199 1323v201h195v-201h-195zM199 0v1118h195v-1118h-195zM199 1323v201h195v-201h-195zM199 0v1118h195v-1118h-195zM199 1323v201h195v-201h-195z M199 0v1118h195v-1118h-195zM199 1323v201h195v-201h-195zM199 0v1118h195v-1118h-195zM199 1323v201h195v-201h-195zM199 0v1118h195v-1118h-195zM199 1323v201h195v-201h-195zM199 0v1118h195v-1118h-195zM199 1323v201h195v-201h-195zM199 0v1118h195v-1118h-195z M199 1323v201h195v-201h-195zM199 0v1118h195v-1118h-195zM199 1323v201h195v-201h-195zM199 0v1118h195v-1118h-195zM199 1323v201h195v-201h-195zM199 0v1118h195v-1118h-195zM199 1323v201h195v-201h-195zM199 0v1118h195v-1118h-195z" />
<glyph unicode="&#x457;" horiz-adv-x="462" d="M351 1324v216h158v-216h-158zM-46 1324v216h158v-216h-158zM146 0v1119h172v-1119h-172z" />
<glyph unicode="&#x458;" horiz-adv-x="542" d="M54 -446l-23 158h54q56 0 89.5 8.5t50.5 28.5t22 43.5t5 65.5l-1 1260h196v-1194q0 -108 -14 -174.5t-52 -112.5t-103 -64.5t-170 -18.5h-54zM251 1323v201h196v-201h-196zM54 -446l-23 158h54q56 0 89.5 8.5t50.5 28.5t22 43.5t5 65.5l-1 1260h196v-1194 q0 -108 -14 -174.5t-52 -112.5t-103 -64.5t-170 -18.5h-54zM251 1323v201h196v-201h-196zM54 -446l-23 158h54q56 0 89.5 8.5t50.5 28.5t22 43.5t5 65.5l-1 1260h196v-1194q0 -108 -14 -174.5t-52 -112.5t-103 -64.5t-170 -18.5h-54zM251 1323v201h196v-201h-196zM54 -446 l-23 158h54q56 0 89.5 8.5t50.5 28.5t22 43.5t5 65.5l-1 1260h196v-1194q0 -108 -14 -174.5t-52 -112.5t-103 -64.5t-170 -18.5h-54zM251 1323v201h196v-201h-196zM54 -446l-23 158h54q56 0 89.5 8.5t50.5 28.5t22 43.5t5 65.5l-1 1260h196v-1194q0 -108 -14 -174.5 t-52 -112.5t-103 -64.5t-170 -18.5h-54zM251 1323v201h196v-201h-196zM54 -446l-23 158h54q56 0 89.5 8.5t50.5 28.5t22 43.5t5 65.5l-1 1260h196v-1194q0 -108 -14 -174.5t-52 -112.5t-103 -64.5t-170 -18.5h-54zM251 1323v201h196v-201h-196zM54 -446l-23 158h54 q56 0 89.5 8.5t50.5 28.5t22 43.5t5 65.5l-1 1260h196v-1194q0 -108 -14 -174.5t-52 -112.5t-103 -64.5t-170 -18.5h-54zM251 1323v201h196v-201h-196zM54 -446l-23 158h54q56 0 89.5 8.5t50.5 28.5t22 43.5t5 65.5l-1 1260h196v-1194q0 -108 -14 -174.5t-52 -112.5 t-103 -64.5t-170 -18.5h-54zM251 1323v201h196v-201h-196zM54 -446l-23 158h54q56 0 89.5 8.5t50.5 28.5t22 43.5t5 65.5l-1 1260h196v-1194q0 -108 -14 -174.5t-52 -112.5t-103 -64.5t-170 -18.5h-54zM251 1323v201h196v-201h-196zM54 -446l-23 158h54q56 0 89.5 8.5 t50.5 28.5t22 43.5t5 65.5l-1 1260h196v-1194q0 -108 -14 -174.5t-52 -112.5t-103 -64.5t-170 -18.5h-54zM251 1323v201h196v-201h-196zM54 -446l-23 158h54q56 0 89.5 8.5t50.5 28.5t22 43.5t5 65.5l-1 1260h196v-1194q0 -108 -14 -174.5t-52 -112.5t-103 -64.5t-170 -18.5 h-54zM251 1323v201h196v-201h-196zM54 -446l-23 158h54q56 0 89.5 8.5t50.5 28.5t22 43.5t5 65.5l-1 1260h196v-1194q0 -108 -14 -174.5t-52 -112.5t-103 -64.5t-170 -18.5h-54zM251 1323v201h196v-201h-196zM54 -446l-23 158h54q56 0 89.5 8.5t50.5 28.5t22 43.5t5 65.5 l-1 1260h196v-1194q0 -108 -14 -174.5t-52 -112.5t-103 -64.5t-170 -18.5h-54zM251 1323v201h196v-201h-196z" />
<glyph unicode="&#x459;" horiz-adv-x="1845" d="M1124 572v-438h247q92 0 140.5 73t48.5 161q0 83 -51 143.5t-145 60.5h-240zM120 -26l-10 156h48q27 0 46.5 2t35 11t26 17t17.5 28.5t10.5 36.5t5 51t2 62t0.5 79v702h823v-408h216q99 0 174.5 -28t121 -76.5t68 -109.5t22.5 -132q0 -72 -21.5 -135t-65 -115.5 t-119 -83.5t-174.5 -31h-393v974h-480v-547q0 -78 -0.5 -117t-4.5 -94t-12.5 -80t-23.5 -59t-37.5 -48t-56 -30t-77.5 -20.5t-103 -4.5h-38z" />
<glyph unicode="&#x45a;" horiz-adv-x="1696" d="M980 572v-438h242q92 0 140.5 73t48.5 161q0 83 -51 143.5t-145 60.5h-235zM809 665v454h171v-408h211q99 0 174.5 -28t121 -76.5t68 -109.5t22.5 -132q0 -72 -21.5 -135t-65 -115.5t-119 -83.5t-174.5 -31h-388v528h-492v-528h-171v1119h171v-454h492z" />
<glyph unicode="&#x45b;" horiz-adv-x="1263" d="M410 0h-195v1068h-143v119h143v322h171v-322h402v-119h-378v-362q4 0 47 6.5t96.5 11t116.5 4.5q191 0 280 -106.5t89 -320.5v-301h-195v261q0 189 -38 254.5t-161 65.5q-53 0 -102.5 -4t-87 -9.5t-45.5 -5.5v-562z" />
<glyph unicode="&#x45c;" horiz-adv-x="1191" d="M580 1324l190 395h258l-332 -395h-116zM167 1119h196v-492l449 491h241l-523 -556l579 -562h-242l-504 492v-492h-196v1119z" />
<glyph unicode="&#x45d;" horiz-adv-x="1193" d="M541 1324l-330 395h256l188 -395h-114zM317 267l561 747v105h171v-1119h-171v760l-571 -760h-161v1119h171v-852z" />
<glyph unicode="&#x45e;" horiz-adv-x="1134" d="M841 1572q0 -123 -76.5 -185.5t-181.5 -62.5q-104 0 -179 62.5t-75 185.5h119q0 -69 38 -106t97.5 -37t99 37t39.5 106h119zM103 -327l-7 156q22 -3 60 -3q46 0 86.5 7t72.5 17.5t60 27.5t47.5 32.5t38 38.5t30 40t22.5 40.5t16 36t12 33.5t9 25l-492 994h211l364 -808 l272 808h206l-408 -1073q-140 -373 -548 -373q-34 0 -52 1z" />
<glyph unicode="&#x45f;" horiz-adv-x="1148" d="M317 1119v-985h515v985h172v-1119h-328l-6 -283h-139l-5 283h-380v1119h171z" />
<glyph unicode="&#x1e02;" horiz-adv-x="1383" d="M652 1719v201h171v-201h-171zM380 893h328q158 0 242 59.5t84 202t-98.5 198t-304.5 55.5h-251v-515zM380 144h320q192 0 291.5 86t99.5 239q0 156 -105.5 219.5t-328.5 63.5h-277v-608zM199 0v1557h441q295 0 438.5 -90.5t143.5 -284.5q0 -30 -3.5 -59t-19 -75 t-41.5 -83.5t-76 -74.5t-118 -58q155 -28 235 -128t80 -241q0 -209 -139 -336t-404 -127h-537zM651 1719v201h171v-201h-171zM380 893h328q158 0 242 59.5t84 202t-98.5 198t-304.5 55.5h-251v-515zM380 144h320q192 0 291.5 86t99.5 239q0 156 -105.5 219.5t-328.5 63.5 h-277v-608zM199 0v1557h441q295 0 438.5 -90.5t143.5 -284.5q0 -30 -3.5 -59t-19 -75t-41.5 -83.5t-76 -74.5t-118 -58q155 -28 235 -128t80 -241q0 -209 -139 -336t-404 -127h-537zM650 1719v201h171v-201h-171zM380 893h328q158 0 242 59.5t84 202t-98.5 198t-304.5 55.5 h-251v-515zM380 144h320q192 0 291.5 86t99.5 239q0 156 -105.5 219.5t-328.5 63.5h-277v-608zM199 0v1557h441q295 0 438.5 -90.5t143.5 -284.5q0 -30 -3.5 -59t-19 -75t-41.5 -83.5t-76 -74.5t-118 -58q155 -28 235 -128t80 -241q0 -209 -139 -336t-404 -127h-537z M649 1719v201h171v-201h-171zM380 893h328q158 0 242 59.5t84 202t-98.5 198t-304.5 55.5h-251v-515zM380 144h320q192 0 291.5 86t99.5 239q0 156 -105.5 219.5t-328.5 63.5h-277v-608zM199 0v1557h441q295 0 438.5 -90.5t143.5 -284.5q0 -30 -3.5 -59t-19 -75t-41.5 -83.5 t-76 -74.5t-118 -58q155 -28 235 -128t80 -241q0 -209 -139 -336t-404 -127h-537zM648 1719v201h171v-201h-171zM380 893h328q158 0 242 59.5t84 202t-98.5 198t-304.5 55.5h-251v-515zM380 144h320q192 0 291.5 86t99.5 239q0 156 -105.5 219.5t-328.5 63.5h-277v-608z M199 0v1557h441q295 0 438.5 -90.5t143.5 -284.5q0 -30 -3.5 -59t-19 -75t-41.5 -83.5t-76 -74.5t-118 -58q155 -28 235 -128t80 -241q0 -209 -139 -336t-404 -127h-537zM647 1719v201h171v-201h-171zM380 893h328q158 0 242 59.5t84 202t-98.5 198t-304.5 55.5h-251v-515z M380 144h320q192 0 291.5 86t99.5 239q0 156 -105.5 219.5t-328.5 63.5h-277v-608zM199 0v1557h441q295 0 438.5 -90.5t143.5 -284.5q0 -30 -3.5 -59t-19 -75t-41.5 -83.5t-76 -74.5t-118 -58q155 -28 235 -128t80 -241q0 -209 -139 -336t-404 -127h-537zM647 1719v201h171 v-201h-171zM380 893h328q158 0 242 59.5t84 202t-98.5 198t-304.5 55.5h-251v-515zM380 144h320q192 0 291.5 86t99.5 239q0 156 -105.5 219.5t-328.5 63.5h-277v-608zM199 0v1557h441q295 0 438.5 -90.5t143.5 -284.5q0 -30 -3.5 -59t-19 -75t-41.5 -83.5t-76 -74.5 t-118 -58q155 -28 235 -128t80 -241q0 -209 -139 -336t-404 -127h-537zM649 1719v201h171v-201h-171zM380 893h328q158 0 242 59.5t84 202t-98.5 198t-304.5 55.5h-251v-515zM380 144h320q192 0 291.5 86t99.5 239q0 156 -105.5 219.5t-328.5 63.5h-277v-608zM199 0v1557 h441q295 0 438.5 -90.5t143.5 -284.5q0 -30 -3.5 -59t-19 -75t-41.5 -83.5t-76 -74.5t-118 -58q155 -28 235 -128t80 -241q0 -209 -139 -336t-404 -127h-537zM647 1719v201h171v-201h-171zM380 893h328q158 0 242 59.5t84 202t-98.5 198t-304.5 55.5h-251v-515zM380 144h320 q192 0 291.5 86t99.5 239q0 156 -105.5 219.5t-328.5 63.5h-277v-608zM199 0v1557h441q295 0 438.5 -90.5t143.5 -284.5q0 -30 -3.5 -59t-19 -75t-41.5 -83.5t-76 -74.5t-118 -58q155 -28 235 -128t80 -241q0 -209 -139 -336t-404 -127h-537zM647 1719v201h171v-201h-171z M380 893h328q158 0 242 59.5t84 202t-98.5 198t-304.5 55.5h-251v-515zM380 144h320q192 0 291.5 86t99.5 239q0 156 -105.5 219.5t-328.5 63.5h-277v-608zM199 0v1557h441q295 0 438.5 -90.5t143.5 -284.5q0 -30 -3.5 -59t-19 -75t-41.5 -83.5t-76 -74.5t-118 -58 q155 -28 235 -128t80 -241q0 -209 -139 -336t-404 -127h-537zM635 1719v201h171v-201h-171zM380 893h328q158 0 242 59.5t84 202t-98.5 198t-304.5 55.5h-251v-515zM380 144h320q192 0 291.5 86t99.5 239q0 156 -105.5 219.5t-328.5 63.5h-277v-608zM199 0v1557h441 q295 0 438.5 -90.5t143.5 -284.5q0 -30 -3.5 -59t-19 -75t-41.5 -83.5t-76 -74.5t-118 -58q155 -28 235 -128t80 -241q0 -209 -139 -336t-404 -127h-537zM653 1719v201h171v-201h-171zM380 893h328q158 0 242 59.5t84 202t-98.5 198t-304.5 55.5h-251v-515zM380 144h320 q192 0 291.5 86t99.5 239q0 156 -105.5 219.5t-328.5 63.5h-277v-608zM199 0v1557h441q295 0 438.5 -90.5t143.5 -284.5q0 -30 -3.5 -59t-19 -75t-41.5 -83.5t-76 -74.5t-118 -58q155 -28 235 -128t80 -241q0 -209 -139 -336t-404 -127h-537z" />
</font>
</defs>
</svg>
